<svg width="24" height="24" viewBox="0 0 24 24" fill="none" xmlns="http://www.w3.org/2000/svg">
<path d="M11.962 17.986H18.772C19.0372 18.0008 19.3018 17.9475 19.5405 17.8311C19.7793 17.7147 19.9842 17.5391 20.1358 17.321C20.2874 17.1029 20.3806 16.8496 20.4066 16.5853C20.4325 16.321 20.3903 16.0544 20.284 15.811C19.924 14.723 18.489 13.418 18.489 12.134C18.489 9.28397 18.489 8.53397 17.085 6.85797C16.6307 6.31851 16.0673 5.88127 15.432 5.57497L14.649 5.19497C14.5176 5.11567 14.4043 5.00976 14.3163 4.88403C14.2283 4.75831 14.1675 4.61557 14.138 4.46497C14.0597 3.95738 13.7913 3.49856 13.3873 3.18156C12.9832 2.86457 12.4736 2.71313 11.962 2.75797C11.4596 2.72781 10.964 2.88599 10.572 3.20163C10.18 3.51728 9.91972 3.96772 9.84201 4.46497C9.80676 4.62076 9.7377 4.7669 9.63972 4.89305C9.54174 5.0192 9.41723 5.12227 9.27501 5.19497L8.49201 5.57497C7.85704 5.88139 7.29406 6.31862 6.84001 6.85797C5.43701 8.53397 5.43701 9.28397 5.43701 12.134C5.43701 13.418 4.06701 14.592 3.70701 15.745C3.49001 16.442 3.37001 17.986 5.18701 17.986H11.962Z" stroke="#15161A" stroke-width="1.25" stroke-linecap="round" stroke-linejoin="round"/>
<path d="M15.225 17.986C15.2335 18.4168 15.155 18.845 14.994 19.2447C14.8331 19.6445 14.5931 20.0076 14.2883 20.3123C13.9836 20.6171 13.6205 20.8571 13.2207 21.018C12.821 21.179 12.3928 21.2575 11.962 21.249C11.531 21.2581 11.1026 21.1799 10.7027 21.0192C10.3027 20.8584 9.93942 20.6184 9.63467 20.3135C9.32991 20.0087 9.08999 19.6453 8.92935 19.2453C8.76872 18.8453 8.69069 18.4169 8.69996 17.986" stroke="#15161A" stroke-width="1.25" stroke-linecap="round" stroke-linejoin="round"/>
</svg>
