<svg width="24" height="24" viewBox="0 0 24 24" fill="none" xmlns="http://www.w3.org/2000/svg">
<path d="M11.4294 5.13745H6.28651C5.6803 5.13745 5.09892 5.37827 4.67026 5.80692C4.24161 6.23558 4.00079 6.81696 4.00079 7.42317V17.7089C4.00079 18.3151 4.24161 18.8965 4.67026 19.3251C5.09892 19.7538 5.6803 19.9946 6.28651 19.9946H17.7151C18.3213 19.9946 18.9027 19.7538 19.3313 19.3251C19.76 18.8965 20.0008 18.3151 20.0008 17.7089V12.566" stroke="black" stroke-width="1.2" stroke-linecap="round" stroke-linejoin="round"/>
<path d="M17.714 6.28266L18.8031 7.42552M19.9997 3.95923C20.3049 4.27398 20.474 4.69622 20.4703 5.13464C20.4667 5.57307 20.2906 5.99244 19.9802 6.30209L11.9997 14.2827L8.57111 15.4255L9.71396 11.9969L17.6991 3.94437C17.98 3.66172 18.3556 3.49315 18.7534 3.4712C19.1513 3.44925 19.5432 3.57548 19.8534 3.82552L19.9997 3.95923Z" stroke="black" stroke-width="1.2" stroke-linecap="round" stroke-linejoin="round"/>
</svg>
