<svg width="21" height="24" viewBox="0 0 21 24" fill="none" xmlns="http://www.w3.org/2000/svg">
<path d="M15.964 8.30032C15.8965 8.23465 15.8145 8.18571 15.7247 8.15745C15.6348 8.12919 15.5396 8.12239 15.4467 8.1376C15.3537 8.1528 15.2656 8.18956 15.1894 8.24495C15.1132 8.30034 15.0511 8.3728 15.008 8.45654C14.7079 9.03915 14.3267 9.57633 13.876 10.0521C13.9208 9.70942 13.9433 9.36421 13.9433 9.01864C13.9433 8.35513 13.8544 7.67233 13.6789 6.98909C13.102 4.74471 11.5894 2.84659 9.52878 1.78154C9.44047 1.73589 9.34224 1.71279 9.24284 1.7143C9.14344 1.71582 9.04596 1.7419 8.95908 1.79022C8.87221 1.83853 8.79863 1.90759 8.74491 1.99124C8.69119 2.07489 8.659 2.17052 8.6512 2.26963C8.49057 4.30926 7.43993 6.16491 5.76722 7.36191C5.74504 7.37786 5.72306 7.39401 5.70108 7.41008C5.6556 7.44343 5.61265 7.47489 5.57259 7.50133C5.56632 7.50551 5.5601 7.50977 5.55395 7.51415C4.50191 8.26738 3.63385 9.27144 3.04355 10.4181C2.44368 11.5844 2.13953 12.8361 2.13953 14.138C2.13953 14.8013 2.22844 15.4841 2.40382 16.1675C3.32934 19.7698 6.57111 22.2857 10.2872 22.2857C14.7796 22.2857 18.4344 18.6307 18.4344 14.138C18.4344 11.9226 17.5571 9.84937 15.964 8.30032ZM10.2872 21.0803C7.12152 21.0803 4.35984 18.9368 3.57133 15.8678C3.4211 15.2823 3.34489 14.7003 3.34489 14.1381C3.34489 13.0297 3.60412 11.9636 4.11531 10.9697C4.61678 9.99562 5.35382 9.14198 6.24727 8.50029C6.30786 8.45983 6.36387 8.41877 6.41369 8.38229C6.43294 8.36814 6.45226 8.354 6.47022 8.34106C8.17215 7.12313 9.32564 5.3216 9.72409 3.30117C11.0957 4.24561 12.0929 5.66038 12.5115 7.28907C12.6618 7.87427 12.738 8.45622 12.738 9.01868C12.738 9.84226 12.587 10.6617 12.2893 11.4541C12.2449 11.5723 12.2387 11.7014 12.2717 11.8233C12.3046 11.9452 12.375 12.0536 12.4728 12.1333C12.5707 12.2131 12.6911 12.26 12.8171 12.2677C12.9431 12.2753 13.0684 12.2431 13.1751 12.1758C14.1662 11.5504 15.0114 10.7196 15.6537 9.7394C16.6746 10.9775 17.2291 12.513 17.2291 14.1381C17.2291 17.9661 14.1149 21.0803 10.2872 21.0803Z" fill="#15161A" stroke="#15161A" stroke-width="0.342857"/>
</svg>
