<svg width="754" height="224" viewBox="0 0 754 224" fill="none" xmlns="http://www.w3.org/2000/svg">
<path d="M209.964 176.167H178.686V99.4352H93.2464V176.167H61.8457V0H93.2464V73.0248H178.686V0H209.964V176.167ZM281.894 154.813C299.055 154.813 312.807 143.372 312.807 127.793V117.935L282.989 119.761C268.384 120.735 259.986 127.306 259.986 137.53C259.986 148.118 268.75 154.813 281.894 154.813ZM272.766 177.694C247.816 177.694 229.681 161.993 229.681 138.747C229.681 115.866 247.328 102.113 278.729 100.166L312.807 98.218V88.9685C312.807 75.4589 303.679 67.6696 288.71 67.6696C274.348 67.6696 265.22 74.6071 263.272 85.3174H235.158C236.497 61.2192 257.065 43.9366 289.926 43.9366C321.936 43.9366 342.748 60.854 342.748 86.7778V175.625H313.538V155.056H312.929C305.505 169.052 289.318 177.694 272.766 177.694ZM439.384 177.694C420.398 177.694 405.915 168.566 398.368 153.595H397.76V175.625H368.063V0H398.368V68.7651H399.098C406.401 53.6732 421.128 44.4234 439.384 44.4234C471.88 44.4234 492.57 69.8604 492.57 111.119C492.57 152.378 472.002 177.694 439.384 177.694ZM430.013 69.3736C411.27 69.3736 398.247 86.0475 398.247 111.119C398.247 136.435 411.27 152.865 430.013 152.865C449.486 152.865 461.535 136.8 461.535 111.119C461.535 85.5607 449.364 69.3736 430.013 69.3736ZM523.241 223.578C521.537 223.578 512.896 223.456 511.313 223.091V199.114C512.896 199.48 518.251 199.601 520.077 199.601C532.613 199.601 539.063 194.854 542.47 182.927C542.47 182.562 544.296 176.111 544.175 175.747L498.291 46.6142H531.395L561.823 149.823H562.309L592.736 46.6142H624.624L578.009 180.736C566.934 212.746 552.694 223.578 523.241 223.578ZM639.107 175.625V46.6142H668.195V68.7651H668.804C675.741 53.4299 689.494 44.1801 709.333 44.1801C737.812 44.1801 754 62.4362 754 92.2547V175.625H723.694V98.3398C723.694 80.0839 715.174 69.8604 697.892 69.8604C680.487 69.8604 669.412 82.3964 669.412 100.896V175.625H639.107Z" fill="white"/>
<rect y="95.5801" width="30.923" height="80.5872" fill="white"/>
<rect x="30.9229" y="44.979" width="30.923" height="131.188" fill="white"/>
<path d="M18.0758 108.121C18.1656 108.24 18.273 108.335 18.3917 108.399C18.5104 108.464 18.6379 108.497 18.7666 108.496L23.8338 108.496C24.2291 108.496 24.5495 108.91 24.5495 109.421L24.5495 174.927C24.5495 175.612 24.9789 176.167 25.5086 176.167L35.371 176.167C35.9007 176.167 36.3301 175.612 36.3301 174.927L36.3301 109.421C36.3301 108.91 36.6505 108.496 37.0458 108.496L42.1273 108.496C42.6569 108.509 43.0943 107.964 43.1043 107.28C43.1068 107.11 43.0823 106.942 43.0325 106.785C42.9826 106.628 42.9084 106.486 42.8144 106.368L31.134 91.265C30.9563 91.0316 30.7145 90.8985 30.4612 90.8948C30.3334 90.8942 30.2068 90.9266 30.0888 90.9902C29.9708 91.0537 29.8638 91.1472 29.7742 91.265L18.0938 106.368C17.7144 106.845 17.7063 107.63 18.0758 108.121Z" fill="#FF7E1F"/>
<path d="M48.9987 60.5113C49.0884 60.6253 49.1959 60.7158 49.3146 60.7773C49.4332 60.8389 49.5607 60.8703 49.6894 60.8697L54.7566 60.8697C55.1519 60.8697 55.4724 61.2658 55.4724 61.7544L54.5133 174.982C54.5133 175.637 54.9427 176.167 55.4724 176.167L65.3349 176.167C65.8645 176.167 66.2939 175.637 66.2939 174.982L67.2529 61.7544C67.2529 61.2658 67.5734 60.8697 67.9686 60.8697L73.0502 60.8697C73.5798 60.882 74.0172 60.3614 74.0272 59.7068C74.0296 59.5447 74.0052 59.3837 73.9553 59.2337C73.9055 59.0837 73.8312 58.948 73.7372 58.8349L62.0569 44.3961C61.8792 44.173 61.6373 44.0458 61.3841 44.0422C61.2563 44.0416 61.1296 44.0726 61.0116 44.1334C60.8936 44.1942 60.7867 44.2835 60.697 44.3961L49.0166 58.8349C48.6372 59.2916 48.6292 60.0422 48.9987 60.5113Z" fill="#FF7E1F"/>
</svg>
