<svg width="48" height="48" viewBox="0 0 48 48" fill="none" xmlns="http://www.w3.org/2000/svg">
<rect width="48" height="48" rx="24" fill="white"/>
<path d="M18.1332 16.9845C17.9117 17.3351 17.6161 17.6331 17.2672 17.8574C16.9183 18.0817 16.5245 18.2269 16.1135 18.2829C15.6458 18.3486 15.1806 18.4204 14.7178 18.4983C13.4218 18.7137 12.5 19.8546 12.5 21.1679V31.5383C12.5 32.2728 12.7918 32.9771 13.3111 33.4965C13.8304 34.0158 14.5348 34.3075 15.2692 34.3075H33.7308C34.4652 34.3075 35.1696 34.0158 35.6889 33.4965C36.2082 32.9771 36.5 32.2728 36.5 31.5383V21.1679C36.5 19.8546 35.5769 18.7137 34.2822 18.4983C33.8178 18.421 33.3525 18.3492 32.8865 18.2829C32.4757 18.2268 32.0822 18.0814 31.7335 17.8571C31.3848 17.6328 31.0894 17.335 30.868 16.9845L29.8563 15.3648C29.6292 14.9955 29.3165 14.6865 28.9445 14.4639C28.5726 14.2413 28.1524 14.1116 27.7197 14.086C25.5748 13.9713 23.4252 13.9713 21.2803 14.086C20.8476 14.1116 20.4274 14.2413 20.0555 14.4639C19.6835 14.6865 19.3708 14.9955 19.1437 15.3648L18.1332 16.9845Z" stroke="#15161A" stroke-width="1.5" stroke-linecap="round" stroke-linejoin="round"/>
<path d="M30.0385 25.0769C30.0385 26.5458 29.455 27.9545 28.4163 28.9932C27.3776 30.0319 25.9689 30.6154 24.5 30.6154C23.0311 30.6154 21.6224 30.0319 20.5837 28.9932C19.5451 27.9545 18.9615 26.5458 18.9615 25.0769C18.9615 23.608 19.5451 22.1993 20.5837 21.1606C21.6224 20.122 23.0311 19.5385 24.5 19.5385C25.9689 19.5385 27.3776 20.122 28.4163 21.1606C29.455 22.1993 30.0385 23.608 30.0385 25.0769ZM32.8077 22.3077H32.8175V22.3175H32.8077V22.3077Z" stroke="#15161A" stroke-width="1.5" stroke-linecap="round" stroke-linejoin="round"/>
</svg>
