<svg width="24" height="24" viewBox="0 0 24 24" fill="none" xmlns="http://www.w3.org/2000/svg">
<path d="M11.25 18C11.25 18.1989 11.329 18.3897 11.4697 18.5303C11.6103 18.671 11.8011 18.75 12 18.75C12.1989 18.75 12.3897 18.671 12.5303 18.5303C12.671 18.3897 12.75 18.1989 12.75 18V15C12.75 14.8011 12.671 14.6103 12.5303 14.4697C12.3897 14.329 12.1989 14.25 12 14.25C11.8011 14.25 11.6103 14.329 11.4697 14.4697C11.329 14.6103 11.25 14.8011 11.25 15V18Z" fill="black"/>
<path fill-rule="evenodd" clip-rule="evenodd" d="M11.9993 1.24683C11.2913 1.24683 10.6483 1.44983 9.94927 1.78883C9.27527 2.11683 8.49527 2.60083 7.52227 3.20483L5.45527 4.48783C4.53527 5.05983 3.79627 5.51783 3.22827 5.95283C2.63927 6.40283 2.18727 6.86283 1.86027 7.45983C1.53427 8.05483 1.38827 8.68883 1.31727 9.43783C1.24927 10.1628 1.24927 11.0508 1.24927 12.1638V13.7768C1.24927 15.6808 1.24927 17.1838 1.40227 18.3588C1.55827 19.5638 1.88827 20.5368 2.63227 21.3058C3.37927 22.0788 4.32927 22.4248 5.50727 22.5878C6.64727 22.7468 8.10527 22.7468 9.94127 22.7468H14.0573C15.8933 22.7468 17.3513 22.7468 18.4913 22.5878C19.6683 22.4248 20.6193 22.0788 21.3673 21.3058C22.1103 20.5368 22.4403 19.5638 22.5973 18.3588C22.7493 17.1838 22.7493 15.6808 22.7493 13.7768V12.1638C22.7493 11.0508 22.7493 10.1638 22.6813 9.43783C22.6113 8.68783 22.4643 8.05483 22.1383 7.45983C21.8113 6.86283 21.3583 6.40383 20.7703 5.95283C20.2023 5.51683 19.4643 5.05983 18.5433 4.48783L16.4763 3.20483C15.5033 2.60083 14.7233 2.11683 14.0483 1.78883C13.3513 1.44883 12.7083 1.24683 11.9993 1.24683ZM8.27927 4.50083C9.29427 3.87083 10.0093 3.42883 10.6063 3.13783C11.1873 2.85483 11.5993 2.74683 11.9993 2.74683C12.3993 2.74683 12.8113 2.85483 13.3923 3.13783C13.9903 3.42783 14.7043 3.87083 15.7193 4.50083L17.7193 5.74183C18.6803 6.33883 19.3553 6.75783 19.8593 7.14383C20.3483 7.51883 20.6293 7.82783 20.8223 8.17983C21.0153 8.53283 21.1283 8.94583 21.1873 9.57783C21.2483 10.2258 21.2493 11.0428 21.2493 12.2008V13.7218C21.2493 15.6918 21.2473 17.0978 21.1093 18.1648C20.9733 19.2128 20.7163 19.8208 20.2893 20.2638C19.8643 20.7028 19.2863 20.9638 18.2853 21.1028C17.2593 21.2448 15.9063 21.2468 13.9993 21.2468H9.99927C8.09127 21.2468 6.73927 21.2448 5.71327 21.1028C4.71227 20.9628 4.13427 20.7028 3.71027 20.2628C3.28227 19.8208 3.02527 19.2128 2.89027 18.1648C2.75027 17.0978 2.74927 15.6928 2.74927 13.7218V12.2008C2.74927 11.0428 2.74927 10.2258 2.81127 9.57783C2.87027 8.94583 2.98327 8.53283 3.17627 8.17983C3.36927 7.82783 3.65027 7.51883 4.14027 7.14383C4.64327 6.75783 5.31827 6.33883 6.27927 5.74183L8.27927 4.50083Z" fill="black"/>
</svg>
