<svg width="24" height="24" viewBox="0 0 24 24" fill="none" xmlns="http://www.w3.org/2000/svg">
<path d="M19 13.5V8C19 5.172 19 3.757 18.121 2.879C17.243 2 15.828 2 13 2H9C6.172 2 4.757 2 3.879 2.879C3 3.757 3 5.172 3 8V16C3 18.828 3 20.243 3.879 21.121C4.757 22 6.172 22 9 22H12" stroke="#15161A" stroke-width="1.5" stroke-linecap="round" stroke-linejoin="round"/>
<path d="M7 15H11M7 11H15M14 20C14 20 15 20 16 22C16 22 18.177 17 21 16M14.5 2H7.5C7.5 3.414 7.5 4.121 7.94 4.56C8.378 5 9.085 5 10.5 5H11.5C12.914 5 13.621 5 14.06 4.56C14.5 4.121 14.5 3.414 14.5 2Z" stroke="#15161A" stroke-width="1.5" stroke-linecap="round" stroke-linejoin="round"/>
</svg>
