<svg width="24" height="24" viewBox="0 0 24 24" fill="none" xmlns="http://www.w3.org/2000/svg">
<path d="M15.73 3H8.27L3 8.27V15.73L8.27 21H15.73L21 15.73V8.27L15.73 3ZM19 14.9L14.9 19H9.1L5 14.9V9.1L9.1 5H14.9L19 9.1V14.9Z" fill="black"/>
<path d="M12.001 17C12.5533 17 13.001 16.5523 13.001 16C13.001 15.4477 12.5533 15 12.001 15C11.4487 15 11.001 15.4477 11.001 16C11.001 16.5523 11.4487 17 12.001 17Z" fill="black"/>
<path d="M11.001 6.99609H13.001V13.9961H11.001V6.99609Z" fill="black"/>
</svg>
