<svg width="24" height="24" viewBox="0 0 24 24" fill="none" xmlns="http://www.w3.org/2000/svg">
<path d="M19.8871 12.5309L21.2431 13.7384C21.4935 13.9474 21.6608 14.2391 21.7147 14.5608C21.7687 14.8824 21.7056 15.2127 21.5371 15.4919L19.9021 18.2849C19.7752 18.4987 19.5941 18.6752 19.3771 18.7964C19.1575 18.9179 18.911 18.9824 18.6601 18.9839C18.5044 18.9849 18.3496 18.9616 18.2011 18.9149L16.4656 18.3419C16.1616 18.5369 15.8456 18.7114 15.5176 18.8654L15.1531 20.6249C15.0856 20.9486 14.9054 21.2378 14.6446 21.4409C14.3804 21.6477 14.053 21.7569 13.7176 21.7499H10.3321C9.9967 21.7569 9.66922 21.6477 9.40508 21.4409C9.1448 21.2376 8.96514 20.9484 8.89808 20.6249L8.53208 18.8654C8.20838 18.7094 7.89432 18.5341 7.59158 18.3404L5.85008 18.9149C5.70159 18.9616 5.54673 18.9849 5.39108 18.9839C5.14067 18.9822 4.89469 18.9177 4.67558 18.7964C4.45874 18.6756 4.27764 18.4997 4.15058 18.2864L2.45708 15.4919C2.28102 15.2102 2.21375 14.874 2.26787 14.5462C2.322 14.2184 2.4938 13.9216 2.75108 13.7114L4.10558 11.9999V11.4689L2.74958 10.2614C2.49917 10.0525 2.33186 9.76078 2.27793 9.43913C2.224 9.11748 2.28702 8.78715 2.45558 8.50795L4.14908 5.71495C4.27593 5.50115 4.45705 5.32468 4.67408 5.20345C4.89319 5.0822 5.13917 5.01774 5.38958 5.01595C5.54383 5.00621 5.69866 5.02038 5.84858 5.05795L7.55558 5.65795C7.86058 5.46295 8.17658 5.28845 8.50358 5.13445L8.86958 3.37495C8.93664 3.0515 9.1163 2.76234 9.37658 2.55895C9.64072 2.35216 9.9682 2.243 10.3036 2.24995H13.6606C13.996 2.243 14.3234 2.35216 14.5876 2.55895C14.8501 2.76445 15.0301 3.05395 15.0946 3.37495L15.4606 5.13445C15.7856 5.28945 16.0991 5.46445 16.4011 5.65945L18.1441 5.08645C18.3375 5.02352 18.5419 5.00142 18.7444 5.02156C18.9468 5.0417 19.1428 5.10363 19.3201 5.20345C19.5376 5.32645 19.7176 5.50345 19.8451 5.71345L21.5371 8.50795C21.7155 8.78728 21.7862 9.12199 21.736 9.44962C21.6857 9.77725 21.518 10.0754 21.2641 10.2884L19.8871 11.4614V12.5309Z" stroke="black" stroke-width="1.5"/>
<path d="M15.75 12C15.75 12.9946 15.3549 13.9484 14.6517 14.6517C13.9484 15.3549 12.9946 15.75 12 15.75C11.0054 15.75 10.0516 15.3549 9.34835 14.6517C8.64509 13.9484 8.25 12.9946 8.25 12C8.25 11.0054 8.64509 10.0516 9.34835 9.34835C10.0516 8.64509 11.0054 8.25 12 8.25C12.9946 8.25 13.9484 8.64509 14.6517 9.34835C15.3549 10.0516 15.75 11.0054 15.75 12Z" stroke="black" stroke-width="1.5"/>
</svg>
