<svg width="48" height="48" viewBox="0 0 48 48" fill="none" xmlns="http://www.w3.org/2000/svg">
<rect width="48" height="48" rx="24" fill="white"/>
<path d="M29.9946 13H18.9795C17.261 13 15.6129 13.6827 14.3978 14.8978C13.1827 16.1129 12.5 17.761 12.5 19.4795V28.5508C12.5 29.4017 12.6676 30.2442 12.9932 31.0303C13.3188 31.8165 13.7961 32.5308 14.3978 33.1324C15.6129 34.3476 17.261 35.0302 18.9795 35.0302H29.9946C30.8455 35.0302 31.6881 34.8626 32.4742 34.537C33.2603 34.2114 33.9746 33.7341 34.5763 33.1324C35.178 32.5308 35.6552 31.8165 35.9809 31.0303C36.3065 30.2442 36.4741 29.4017 36.4741 28.5508V19.4795C36.4741 18.6286 36.3065 17.786 35.9809 16.9999C35.6552 16.2138 35.178 15.4995 34.5763 14.8978C33.9746 14.2961 33.2603 13.8188 32.4742 13.4932C31.6881 13.1676 30.8455 13 29.9946 13Z" stroke="#15161A" stroke-width="1.5" stroke-linecap="round" stroke-linejoin="round"/>
<path d="M12.824 30.4948L16.3877 26.3479C16.854 25.8848 17.466 25.597 18.1201 25.5332C18.7743 25.4694 19.4303 25.6336 19.9773 25.998C20.5243 26.3624 21.1804 26.5266 21.8345 26.4628C22.4886 26.3991 23.1006 26.1113 23.567 25.6481L26.5864 22.6287C27.454 21.7581 28.6027 21.2242 29.8275 21.1221C31.0523 21.0201 32.2735 21.3565 33.2732 22.0715L36.5 24.5725M19.3035 21.6438C19.586 21.6438 19.8657 21.5882 20.1267 21.4801C20.3877 21.3719 20.6248 21.2135 20.8246 21.0137C21.0243 20.814 21.1828 20.5768 21.2909 20.3158C21.399 20.0548 21.4546 19.7751 21.4546 19.4926C21.4546 19.2101 21.399 18.9304 21.2909 18.6694C21.1828 18.4084 21.0243 18.1713 20.8246 17.9715C20.6248 17.7717 20.3877 17.6133 20.1267 17.5052C19.8657 17.3971 19.586 17.3414 19.3035 17.3414C18.7329 17.3414 18.1858 17.5681 17.7823 17.9715C17.3789 18.3749 17.1523 18.9221 17.1523 19.4926C17.1523 20.0631 17.3789 20.6103 17.7823 21.0137C18.1858 21.4172 18.7329 21.6438 19.3035 21.6438Z" stroke="#15161A" stroke-width="1.5" stroke-linecap="round" stroke-linejoin="round"/>
</svg>
