<svg width="24" height="24" viewBox="0 0 24 24" fill="none" xmlns="http://www.w3.org/2000/svg">
<path d="M14 9.99827L11 12.9983M20.288 3.02927C20.3829 2.99652 20.4851 2.99113 20.5829 3.01372C20.6807 3.0363 20.7702 3.08594 20.8411 3.15698C20.9121 3.22801 20.9616 3.31756 20.984 3.4154C21.0065 3.51324 21.0009 3.61542 20.968 3.71027L15.044 20.6403C15.0086 20.7415 14.9436 20.8297 14.8574 20.8935C14.7712 20.9573 14.6678 20.9937 14.5606 20.998C14.4535 21.0023 14.3475 20.9743 14.2565 20.9177C14.1654 20.861 14.0935 20.7783 14.05 20.6803L10.831 13.4383C10.7769 13.3178 10.6805 13.2214 10.56 13.1673L3.31805 9.94727C3.22034 9.90364 3.13796 9.83172 3.08155 9.7408C3.02514 9.64988 2.99729 9.54413 3.00159 9.43721C3.0059 9.3303 3.04217 9.22713 3.10571 9.14104C3.16925 9.05495 3.25715 8.98989 3.35805 8.95427L20.288 3.02927Z" stroke="#15161A" stroke-width="1.8" stroke-linecap="round" stroke-linejoin="round"/>
</svg>
