<svg width="24" height="24" viewBox="0 0 24 24" fill="none" xmlns="http://www.w3.org/2000/svg">
<path d="M19.5 3V21M14.774 12.78L6.124 19.7C5.97696 19.8174 5.79977 19.891 5.6128 19.9122C5.42584 19.9334 5.23667 19.9015 5.06705 19.82C4.89743 19.7385 4.75424 19.6109 4.65393 19.4517C4.55362 19.2924 4.50027 19.1082 4.5 18.92V5.08C4.50012 4.89165 4.55342 4.70717 4.65378 4.54779C4.75414 4.3884 4.89747 4.2606 5.06727 4.1791C5.23707 4.0976 5.42643 4.0657 5.61356 4.08709C5.80069 4.10848 5.97797 4.18228 6.125 4.3L14.774 11.22C14.8908 11.3137 14.9851 11.4324 15.0498 11.5674C15.1146 11.7024 15.1482 11.8503 15.1482 12C15.1482 12.1497 15.1146 12.2976 15.0498 12.4326C14.9851 12.5676 14.8908 12.6863 14.774 12.78Z" stroke="black" stroke-width="1.5" stroke-linecap="round" stroke-linejoin="round"/>
</svg>
