<svg width="24" height="24" viewBox="0 0 24 24" fill="none" xmlns="http://www.w3.org/2000/svg">
<path d="M15.0921 10.413C15.9205 10.413 16.5921 9.74139 16.5921 8.91296C16.5921 8.08454 15.9205 7.41296 15.0921 7.41296C14.2637 7.41296 13.5921 8.08454 13.5921 8.91296C13.5921 9.74139 14.2637 10.413 15.0921 10.413Z" fill="#15161A"/>
<path d="M3.50055 16.5722C3.5189 17.6209 3.94842 18.6204 4.69659 19.3555C5.44475 20.0906 6.4517 20.5024 7.50055 20.5022H10.9805M3.50055 16.5722V7.5022C3.50055 6.44133 3.92198 5.42392 4.67212 4.67377C5.42227 3.92362 6.43968 3.5022 7.50055 3.5022H16.5005C17.5614 3.5022 18.5788 3.92362 19.329 4.67377C20.0791 5.42392 20.5005 6.44133 20.5005 7.5022V10.9822M3.50055 16.5722L3.67855 16.3722L6.88455 12.5452C7.07227 12.3212 7.30681 12.141 7.57167 12.0174C7.83653 11.8938 8.12526 11.8297 8.41755 11.8297C8.70984 11.8297 8.99857 11.8938 9.26343 12.0174C9.52829 12.141 9.76283 12.3212 9.95055 12.5452L11.1925 14.0272" stroke="#15161A" stroke-width="1.28571" stroke-linecap="round" stroke-linejoin="round"/>
<path fill-rule="evenodd" clip-rule="evenodd" d="M17.5 23C18.9587 23 20.3576 22.4205 21.3891 21.3891C22.4205 20.3576 23 18.9587 23 17.5C23 16.0413 22.4205 14.6424 21.3891 13.6109C20.3576 12.5795 18.9587 12 17.5 12C16.0413 12 14.6424 12.5795 13.6109 13.6109C12.5795 14.6424 12 16.0413 12 17.5C12 18.9587 12.5795 20.3576 13.6109 21.3891C14.6424 22.4205 16.0413 23 17.5 23ZM17.5 14.007C17.6326 14.007 17.7598 14.0597 17.8536 14.1534C17.9473 14.2472 18 14.3744 18 14.507V17H20.493C20.6256 17 20.7528 17.0527 20.8466 17.1464C20.9403 17.2402 20.993 17.3674 20.993 17.5C20.993 17.6326 20.9403 17.7598 20.8466 17.8536C20.7528 17.9473 20.6256 18 20.493 18H18V20.494C18 20.6266 17.9473 20.7538 17.8536 20.8476C17.7598 20.9413 17.6326 20.994 17.5 20.994C17.3674 20.994 17.2402 20.9413 17.1464 20.8476C17.0527 20.7538 17 20.6266 17 20.494V18H14.507C14.3744 18 14.2472 17.9473 14.1534 17.8536C14.0597 17.7598 14.007 17.6326 14.007 17.5C14.007 17.3674 14.0597 17.2402 14.1534 17.1464C14.2472 17.0527 14.3744 17 14.507 17H17V14.507C17 14.3744 17.0527 14.2472 17.1464 14.1534C17.2402 14.0597 17.3674 14.007 17.5 14.007Z" fill="#15161A"/>
</svg>
