<svg width="24" height="24" viewBox="0 0 24 24" fill="none" xmlns="http://www.w3.org/2000/svg">
<path d="M17.5513 5.15424C17.6366 5.06893 17.7379 5.00126 17.8494 4.9551C17.9608 4.90893 18.0803 4.88517 18.2009 4.88517C18.3216 4.88517 18.441 4.90893 18.5525 4.9551C18.6639 5.00126 18.7652 5.06893 18.8505 5.15424C18.9358 5.23955 19.0035 5.34082 19.0497 5.45228C19.0958 5.56374 19.1196 5.6832 19.1196 5.80384C19.1196 5.92448 19.0958 6.04394 19.0497 6.1554C19.0035 6.26686 18.9358 6.36813 18.8505 6.45344L13.3017 12.0038L18.8505 17.5542L18.9689 17.6982C19.0847 17.8751 19.136 18.0864 19.1143 18.2966C19.0925 18.5068 18.9991 18.7031 18.8497 18.8526C18.7002 19.002 18.5039 19.0955 18.2937 19.1172C18.0834 19.1389 17.8722 19.0876 17.6953 18.9718L17.5513 18.8534L12.0009 13.303L6.45052 18.855C6.36511 18.9403 6.26373 19.008 6.15218 19.0541C6.04062 19.1002 5.92107 19.124 5.80036 19.1239C5.67964 19.1238 5.56012 19.1 5.44862 19.0537C5.33712 19.0074 5.23583 18.9397 5.15052 18.8542C5.06521 18.7688 4.99757 18.6674 4.95144 18.5559C4.90531 18.4443 4.88161 18.3248 4.88168 18.2041C4.88176 18.0834 4.90561 17.9638 4.95187 17.8523C4.99814 17.7408 5.06591 17.6395 5.15132 17.5542L10.7017 12.0038L5.14972 6.45344L5.03292 6.30944C4.91628 6.13263 4.86422 5.92098 4.88553 5.71024C4.90684 5.49949 5.00023 5.30256 5.14991 5.15268C5.2996 5.00281 5.49642 4.90918 5.70714 4.8876C5.91785 4.86602 6.12956 4.91782 6.30652 5.03424L6.45052 5.15424L12.0009 10.703L17.5513 5.15424Z" fill="#15161A"/>
</svg>
