<svg width="24" height="24" viewBox="0 0 24 24" fill="none" xmlns="http://www.w3.org/2000/svg">
<path d="M20.2448 1.61278C20.8358 1.67337 21.3833 1.95101 21.7814 2.39197C22.1795 2.83294 22.3999 3.40589 22.4 3.99998V20L22.3872 20.2448C22.3312 20.794 22.0875 21.3072 21.6972 21.6978C21.307 22.0883 20.794 22.3324 20.2448 22.3888L20 22.4H3.99998L3.75518 22.3872C3.20591 22.3312 2.69274 22.0875 2.30219 21.6972C1.91164 21.307 1.66759 20.794 1.61118 20.2448L1.59998 20V3.99998C1.60005 3.40589 1.82046 2.83294 2.21857 2.39197C2.61667 1.95101 3.16419 1.67337 3.75518 1.61278L3.99998 1.59998H20L20.2448 1.61278ZM3.99998 3.19998C3.7878 3.19998 3.58432 3.28426 3.43429 3.43429C3.28426 3.58432 3.19998 3.7878 3.19998 3.99998V20C3.19998 20.2121 3.28426 20.4156 3.43429 20.5657C3.58432 20.7157 3.7878 20.8 3.99998 20.8H20C20.2121 20.8 20.4156 20.7157 20.5657 20.5657C20.7157 20.4156 20.8 20.2121 20.8 20V3.99998C20.8 3.7878 20.7157 3.58432 20.5657 3.43429C20.4156 3.28426 20.2121 3.19998 20 3.19998H3.99998Z" fill="black"/>
</svg>
