<svg width="24" height="24" viewBox="0 0 24 24" fill="none" xmlns="http://www.w3.org/2000/svg">
<path fill-rule="evenodd" clip-rule="evenodd" d="M5.62437 4.42163C3.96537 5.17963 2.75037 6.98363 2.75037 9.13463C2.75037 11.3316 3.65037 13.0256 4.93837 14.4776C6.00137 15.6736 7.28737 16.6656 8.54137 17.6316C8.84003 17.8616 9.13503 18.091 9.42637 18.3196C9.95237 18.7346 10.4214 19.0976 10.8744 19.3626C11.3274 19.6276 11.6904 19.7476 12.0004 19.7476C12.3104 19.7476 12.6744 19.6276 13.1264 19.3626C13.5794 19.0976 14.0484 18.7346 14.5744 18.3196C14.8657 18.0903 15.1607 17.8613 15.4594 17.6326C16.7134 16.6646 17.9994 15.6736 19.0624 14.4776C20.3514 13.0256 21.2504 11.3316 21.2504 9.13463C21.2504 6.98463 20.0354 5.17963 18.3764 4.42163C16.7644 3.68463 14.5984 3.87963 12.5404 6.01863C12.4704 6.09121 12.3865 6.14895 12.2937 6.18839C12.201 6.22782 12.1012 6.24815 12.0004 6.24815C11.8996 6.24815 11.7998 6.22782 11.707 6.18839C11.6142 6.14895 11.5303 6.09121 11.4604 6.01863C9.40237 3.87963 7.23637 3.68463 5.62437 4.42163ZM12.0004 4.45763C9.68837 2.38763 7.09937 2.09763 5.00037 3.05663C2.78637 4.07163 1.25037 6.42363 1.25037 9.13563C1.25037 11.8006 2.36037 13.8346 3.81737 15.4746C4.98337 16.7876 6.41037 17.8866 7.67137 18.8566C7.95803 19.0766 8.23337 19.2906 8.49737 19.4986C9.01037 19.9026 9.56037 20.3326 10.1174 20.6586C10.6744 20.9846 11.3104 21.2486 12.0004 21.2486C12.6904 21.2486 13.3264 20.9836 13.8834 20.6586C14.4414 20.3326 14.9904 19.9026 15.5034 19.4986C15.7674 19.2906 16.0427 19.0766 16.3294 18.8566C17.5894 17.8866 19.0174 16.7866 20.1834 15.4746C21.6404 13.8346 22.7504 11.8006 22.7504 9.13563C22.7504 6.42363 21.2154 4.07163 19.0004 3.05863C16.9014 2.09863 14.3124 2.38863 12.0004 4.45763Z" fill="#15161A"/>
</svg>
