<svg width="24" height="24" viewBox="0 0 24 24" fill="none" xmlns="http://www.w3.org/2000/svg">
<path d="M8.99902 12.0039C8.99902 12.6669 8.73563 13.3028 8.26679 13.7717C7.79795 14.2405 7.16206 14.5039 6.49902 14.5039C5.83598 14.5039 5.2001 14.2405 4.73126 13.7717C4.26242 13.3028 3.99902 12.6669 3.99902 12.0039C3.99902 11.3409 4.26242 10.705 4.73126 10.2361C5.2001 9.7673 5.83598 9.50391 6.49902 9.50391C7.16206 9.50391 7.79795 9.7673 8.26679 10.2361C8.73563 10.705 8.99902 11.3409 8.99902 12.0039Z" stroke="black" stroke-width="1.875"/>
<path d="M14 6.50391L9 10.0039M14 17.5039L9 14.0039" stroke="black" stroke-width="1.875" stroke-linecap="round"/>
<path d="M18.998 18.5C18.998 19.163 18.7347 19.7989 18.2658 20.2678C17.797 20.7366 17.1611 21 16.498 21C15.835 21 15.1991 20.7366 14.7303 20.2678C14.2614 19.7989 13.998 19.163 13.998 18.5C13.998 17.837 14.2614 17.2011 14.7303 16.7322C15.1991 16.2634 15.835 16 16.498 16C17.1611 16 17.797 16.2634 18.2658 16.7322C18.7347 17.2011 18.998 17.837 18.998 18.5ZM18.998 5.5C18.998 6.16304 18.7347 6.79893 18.2658 7.26777C17.797 7.73661 17.1611 8 16.498 8C15.835 8 15.1991 7.73661 14.7303 7.26777C14.2614 6.79893 13.998 6.16304 13.998 5.5C13.998 4.83696 14.2614 4.20107 14.7303 3.73223C15.1991 3.26339 15.835 3 16.498 3C17.1611 3 17.797 3.26339 18.2658 3.73223C18.7347 4.20107 18.998 4.83696 18.998 5.5Z" stroke="black" stroke-width="1.875"/>
</svg>
