<svg width="24" height="24" viewBox="0 0 24 24" fill="none" xmlns="http://www.w3.org/2000/svg">
<path d="M5.47001 12.53C5.32956 12.3893 5.25067 12.1987 5.25067 12C5.25067 11.8012 5.32956 11.6106 5.47001 11.47L7.47001 9.46997C7.61219 9.33749 7.80023 9.26537 7.99453 9.26879C8.18883 9.27222 8.37422 9.35093 8.51163 9.48835C8.64905 9.62576 8.72776 9.81115 8.73119 10.0054C8.73461 10.1997 8.66249 10.3878 8.53001 10.53L7.81001 11.25H15C15.1989 11.25 15.3897 11.329 15.5303 11.4696C15.671 11.6103 15.75 11.8011 15.75 12C15.75 12.1989 15.671 12.3896 15.5303 12.5303C15.3897 12.671 15.1989 12.75 15 12.75H7.81001L8.53001 13.47C8.6037 13.5386 8.6628 13.6214 8.70379 13.7134C8.74478 13.8054 8.76683 13.9047 8.7686 14.0054C8.77038 14.1061 8.75185 14.2062 8.71413 14.2996C8.67641 14.393 8.62027 14.4778 8.54905 14.549C8.47783 14.6202 8.393 14.6764 8.29961 14.7141C8.20622 14.7518 8.10619 14.7703 8.00549 14.7686C7.90479 14.7668 7.80547 14.7447 7.71347 14.7037C7.62147 14.6628 7.53867 14.6037 7.47001 14.53L5.47001 12.53Z" fill="#15161A"/>
<path fill-rule="evenodd" clip-rule="evenodd" d="M13.945 1.25H15.055C16.423 1.25 17.525 1.25 18.392 1.367C19.292 1.487 20.05 1.747 20.652 2.348C21.254 2.95 21.512 3.708 21.634 4.608C21.75 5.475 21.75 6.578 21.75 7.945V16.055C21.75 17.422 21.75 18.525 21.634 19.392C21.513 20.292 21.254 21.05 20.652 21.652C20.05 22.254 19.292 22.512 18.392 22.634C17.525 22.75 16.422 22.75 15.055 22.75H13.945C12.578 22.75 11.475 22.75 10.608 22.634C9.708 22.512 8.95 22.254 8.348 21.652C7.95 21.252 7.701 20.784 7.543 20.25C6.592 20.249 5.799 20.238 5.157 20.152C4.393 20.049 3.731 19.827 3.202 19.298C2.673 18.769 2.451 18.108 2.348 17.343C2.25 16.613 2.25 15.687 2.25 14.553V9.447C2.25 8.314 2.25 7.389 2.348 6.657C2.451 5.894 2.673 5.232 3.202 4.703C3.731 4.174 4.392 3.952 5.157 3.849C5.799 3.763 6.592 3.752 7.543 3.751C7.701 3.217 7.95 2.748 8.349 2.349C8.95 1.747 9.709 1.489 10.609 1.368C11.475 1.251 12.578 1.251 13.945 1.251M7.252 17.004C7.256 17.649 7.266 18.229 7.302 18.749C6.468 18.746 5.848 18.731 5.357 18.665C4.759 18.585 4.467 18.441 4.263 18.237C4.059 18.033 3.915 17.741 3.835 17.143C3.752 16.524 3.75 15.7 3.75 14.5V9.5C3.75 8.3 3.752 7.476 3.835 6.857C3.915 6.259 4.059 5.967 4.263 5.763C4.467 5.559 4.759 5.415 5.357 5.335C5.848 5.269 6.468 5.255 7.303 5.251C7.266 5.771 7.256 6.351 7.252 6.996C7.25094 7.19491 7.32894 7.3861 7.46884 7.5275C7.60874 7.6689 7.79909 7.74894 7.998 7.75C8.19691 7.75106 8.3881 7.67306 8.5295 7.53316C8.6709 7.39326 8.75094 7.20291 8.752 7.004C8.758 5.911 8.786 5.136 8.894 4.547C8.999 3.981 9.166 3.652 9.409 3.409C9.686 3.132 10.075 2.952 10.809 2.853C11.564 2.752 12.565 2.75 14 2.75H15C16.436 2.75 17.437 2.752 18.192 2.853C18.926 2.952 19.314 3.133 19.592 3.409C19.868 3.686 20.048 4.074 20.147 4.809C20.249 5.563 20.25 6.565 20.25 8V16C20.25 17.435 20.249 18.436 20.147 19.192C20.048 19.926 19.868 20.314 19.591 20.591C19.314 20.868 18.926 21.048 18.192 21.147C17.437 21.248 16.436 21.25 15 21.25H14C12.565 21.25 11.564 21.248 10.808 21.147C10.075 21.048 9.686 20.867 9.409 20.591C9.166 20.347 8.999 20.019 8.894 19.453C8.786 18.864 8.758 18.089 8.752 16.996C8.75147 16.8975 8.73155 16.8001 8.69338 16.7093C8.6552 16.6185 8.59952 16.5361 8.5295 16.4668C8.45949 16.3976 8.37651 16.3428 8.28532 16.3056C8.19412 16.2684 8.09649 16.2495 7.998 16.25C7.89951 16.2505 7.80208 16.2704 7.71129 16.3086C7.6205 16.3468 7.53811 16.4025 7.46884 16.4725C7.39957 16.5425 7.34477 16.6255 7.30756 16.7167C7.27035 16.8079 7.25147 16.9055 7.252 17.004Z" fill="#15161A"/>
</svg>
