<svg width="24" height="24" viewBox="0 0 24 24" fill="none" xmlns="http://www.w3.org/2000/svg">
<path fill-rule="evenodd" clip-rule="evenodd" d="M16.53 9.47003C16.6704 9.61066 16.7493 9.80128 16.7493 10C16.7493 10.1988 16.6704 10.3894 16.53 10.53L12 15.06L7.46997 10.53C7.39628 10.4614 7.33718 10.3786 7.29619 10.2866C7.2552 10.1946 7.23316 10.0953 7.23138 9.99455C7.2296 9.89385 7.24813 9.79382 7.28585 9.70043C7.32357 9.60705 7.37971 9.52221 7.45093 9.45099C7.52215 9.37978 7.60698 9.32363 7.70037 9.28591C7.79376 9.24819 7.89379 9.22966 7.99449 9.23144C8.0952 9.23322 8.19451 9.25526 8.28651 9.29625C8.37851 9.33724 8.46131 9.39635 8.52997 9.47003L12 12.94L15.47 9.47003C15.6106 9.32958 15.8012 9.25069 16 9.25069C16.1987 9.25069 16.3893 9.32958 16.53 9.47003Z" fill="#15161A"/>
</svg>
