<svg width="24" height="24" viewBox="0 0 24 24" fill="none" xmlns="http://www.w3.org/2000/svg">
<path d="M7.99683 14.9968H11.4258M7.99683 10.9968H15.9968M14.4968 1.99683H9.49683C9.099 1.99683 8.71747 2.15486 8.43617 2.43617C8.15486 2.71747 7.99683 3.099 7.99683 3.49683C7.99683 3.89465 8.15486 4.27618 8.43617 4.55749C8.71747 4.83879 9.099 4.99683 9.49683 4.99683H14.4968C14.8947 4.99683 15.2762 4.83879 15.5575 4.55749C15.8388 4.27618 15.9968 3.89465 15.9968 3.49683C15.9968 3.099 15.8388 2.71747 15.5575 2.43617C15.2762 2.15486 14.8947 1.99683 14.4968 1.99683Z" stroke="black" stroke-width="1.5" stroke-linecap="round" stroke-linejoin="round"/>
<path d="M15.9961 3.49683C17.5491 3.54383 18.4761 3.71683 19.1171 4.35883C19.9971 5.23683 19.9971 6.65183 19.9971 9.47883V15.9968C19.9971 18.8248 19.9971 20.2388 19.1171 21.1178C18.2391 21.9968 16.8241 21.9968 13.9971 21.9968H9.99709C7.16709 21.9968 5.75309 21.9968 4.87509 21.1178C3.99709 20.2388 3.99609 18.8248 3.99609 15.9968V9.47983C3.99609 6.65183 3.99609 5.23683 4.87509 4.35883C5.51609 3.71683 6.44309 3.54383 7.99609 3.49683" stroke="black" stroke-width="1.5" stroke-linecap="round" stroke-linejoin="round"/>
</svg>
