<svg width="24" height="24" viewBox="0 0 24 24" fill="none" xmlns="http://www.w3.org/2000/svg">
<path d="M0.800058 12L0.057658 11.7024C-0.0188938 11.8934 -0.0188938 12.1065 0.057658 12.2976L0.800058 12ZM23.2001 12L23.9425 12.2976C24.019 12.1065 24.019 11.8934 23.9425 11.7024L23.2001 12ZM12.0001 19.2C8.29766 19.2 5.69766 17.3568 3.99526 15.4656C3.06555 14.4246 2.28526 13.2593 1.67686 12.0032L1.54886 11.7152L1.54246 11.704L0.800058 12L0.057658 12.2976V12.3008L0.062458 12.3072L0.104058 12.408L0.228858 12.6848C0.903854 14.0818 1.77092 15.3775 2.80486 16.5344C4.70406 18.6448 7.70246 20.8 12.0001 20.8V19.2ZM0.800058 12L1.54246 12.2976L1.54886 12.2848C1.58836 12.1874 1.63105 12.0913 1.67686 11.9968C2.28526 10.7406 3.06555 9.57532 3.99526 8.53435C5.69606 6.64315 8.29766 4.79995 12.0001 4.79995V3.19995C7.70246 3.19995 4.70246 5.35675 2.80486 7.46555C1.77092 8.62238 0.903854 9.91813 0.228858 11.3152C0.170692 11.4398 0.115213 11.5657 0.062458 11.6928L0.059258 11.6992V11.7008H0.056058L0.800058 12ZM12.0001 4.79995C15.7025 4.79995 18.3025 6.64315 20.0049 8.53435C20.9346 9.57532 21.7149 10.7406 22.3233 11.9968L22.4513 12.2848L22.4577 12.296L23.2001 12L23.9425 11.7024V11.6992L23.9377 11.6928L23.8961 11.592L23.7713 11.3152C23.0963 9.91813 22.2292 8.62238 21.1953 7.46555C19.2961 5.35675 16.2977 3.19995 12.0001 3.19995V4.79995ZM23.2001 12L22.4577 11.7024L22.4529 11.7152L22.4289 11.7712L22.3233 12.0032C21.7149 13.2593 20.9346 14.4246 20.0049 15.4656C18.3041 17.3568 15.7025 19.2 12.0001 19.2V20.8C16.2977 20.8 19.2977 18.6432 21.1953 16.536C22.2293 15.3786 23.0964 14.0823 23.7713 12.6848C23.8294 12.5601 23.8849 12.4342 23.9377 12.3072L23.9409 12.3008V12.2992L23.9425 12.2976L23.2001 12ZM12.0001 14.4C11.3635 14.4 10.7531 14.1471 10.303 13.697C9.85291 13.2469 9.60006 12.6365 9.60006 12H8.00006C8.00006 13.0608 8.42149 14.0782 9.17163 14.8284C9.92178 15.5785 10.9392 16 12.0001 16V14.4ZM14.4001 12C14.4001 12.6365 14.1472 13.2469 13.6971 13.697C13.247 14.1471 12.6366 14.4 12.0001 14.4V16C13.0609 16 14.0783 15.5785 14.8285 14.8284C15.5786 14.0782 16.0001 13.0608 16.0001 12H14.4001ZM12.0001 9.59995C12.6366 9.59995 13.247 9.85281 13.6971 10.3029C14.1472 10.753 14.4001 11.3634 14.4001 12H16.0001C16.0001 10.9391 15.5786 9.92167 14.8285 9.17152C14.0783 8.42138 13.0609 7.99995 12.0001 7.99995V9.59995ZM12.0001 7.99995C10.9392 7.99995 9.92178 8.42138 9.17163 9.17152C8.42149 9.92167 8.00006 10.9391 8.00006 12H9.60006C9.60006 11.3634 9.85291 10.753 10.303 10.3029C10.7531 9.85281 11.3635 9.59995 12.0001 9.59995V7.99995Z" fill="#15161A"/>
</svg>
