<svg width="24" height="24" viewBox="0 0 24 24" fill="none" xmlns="http://www.w3.org/2000/svg">
<path d="M13.8768 5.4399C13.8768 4.62104 12.9017 4.19519 12.3015 4.75236L8.67082 8.12256C8.58421 8.20319 8.47033 8.24809 8.35201 8.24825H5.90653C5.53349 8.24825 5.17574 8.39648 4.91196 8.66034C4.64819 8.9242 4.5 9.28208 4.5 9.65523V14.3452C4.5 14.7183 4.64819 15.0762 4.91196 15.3401C5.17574 15.6039 5.53349 15.7522 5.90653 15.7522H8.35107C8.46926 15.7521 8.58313 15.7966 8.66988 15.8769L12.3015 19.2481C12.9017 19.8043 13.8768 19.3794 13.8768 18.5605V5.4399ZM16.9281 6.96039C16.974 6.91936 17.0276 6.8878 17.0857 6.86748C17.1438 6.84717 17.2054 6.8385 17.2668 6.84199C17.3283 6.84547 17.3885 6.86103 17.444 6.88779C17.4994 6.91454 17.5491 6.95196 17.5901 6.99791C18.82 8.37364 19.5 10.1546 19.5 12.0002C19.5 13.8459 18.82 15.6268 17.5901 17.0025C17.5492 17.0491 17.4995 17.087 17.4439 17.1142C17.3882 17.1415 17.3277 17.1574 17.2659 17.1611C17.2041 17.1648 17.1421 17.1562 17.0837 17.1358C17.0252 17.1154 16.9713 17.0837 16.9252 17.0423C16.879 17.001 16.8415 16.951 16.8148 16.8951C16.7881 16.8391 16.7728 16.7785 16.7696 16.7166C16.7665 16.6548 16.7757 16.5929 16.7966 16.5346C16.8175 16.4762 16.8498 16.4226 16.8915 16.3769C17.9678 15.1731 18.5628 13.6147 18.5628 11.9997C18.5628 10.3847 17.9678 8.82639 16.8915 7.62261C16.8086 7.52994 16.7658 7.40811 16.7727 7.28392C16.7795 7.15973 16.8354 7.04335 16.9281 6.96039ZM15.8263 14.7513C15.7729 14.7206 15.7261 14.6797 15.6885 14.6308C15.6509 14.582 15.6233 14.5263 15.6073 14.4668C15.5913 14.4073 15.5871 14.3452 15.5951 14.2841C15.6031 14.223 15.623 14.1641 15.6538 14.1107C16.0243 13.4691 16.2194 12.7412 16.2194 12.0002C16.2194 11.2592 16.0243 10.5313 15.6538 9.88973C15.6198 9.83635 15.5971 9.77666 15.5868 9.71424C15.5765 9.65183 15.579 9.58798 15.594 9.52655C15.6091 9.46511 15.6364 9.40735 15.6743 9.35675C15.7123 9.30614 15.76 9.26374 15.8148 9.23208C15.8695 9.20043 15.9301 9.18018 15.9929 9.17255C16.0557 9.16493 16.1193 9.17008 16.18 9.1877C16.2408 9.20533 16.2973 9.23505 16.3463 9.2751C16.3952 9.31515 16.4355 9.36469 16.4649 9.42073C16.9178 10.2048 17.1564 11.0945 17.1566 12.0001C17.1567 12.9057 16.9185 13.7954 16.4658 14.5797C16.4036 14.6871 16.3014 14.7656 16.1815 14.7977C16.0616 14.8299 15.9339 14.8132 15.8263 14.7513Z" fill="black"/>
</svg>
