<svg width="24" height="24" viewBox="0 0 24 24" fill="none" xmlns="http://www.w3.org/2000/svg">
<path d="M9.13636 4.5C8.70237 4.5 8.28616 4.76339 7.97928 5.23223C7.6724 5.70107 7.5 6.33696 7.5 7V17C7.5 17.663 7.6724 18.2989 7.97928 18.7678C8.28616 19.2366 8.70237 19.5 9.13636 19.5C9.57035 19.5 9.98657 19.2366 10.2934 18.7678C10.6003 18.2989 10.7727 17.663 10.7727 17V7C10.7727 6.33696 10.6003 5.70107 10.2934 5.23223C9.98657 4.76339 9.57035 4.5 9.13636 4.5ZM14.8636 4.5C14.4296 4.5 14.0134 4.76339 13.7066 5.23223C13.3997 5.70107 13.2273 6.33696 13.2273 7V17C13.2273 17.663 13.3997 18.2989 13.7066 18.7678C14.0134 19.2366 14.4296 19.5 14.8636 19.5C15.2976 19.5 15.7138 19.2366 16.0207 18.7678C16.3276 18.2989 16.5 17.663 16.5 17V7C16.5 6.33696 16.3276 5.70107 16.0207 5.23223C15.7138 4.76339 15.2976 4.5 14.8636 4.5Z" fill="black"/>
</svg>
