<svg width="100" height="120" viewBox="0 0 100 120" fill="none" xmlns="http://www.w3.org/2000/svg">
<path d="M99.2959 3.40209C98.6313 2.67125 97.7079 2.23177 96.7242 2.17822L59.4154 0C56.8305 0.120628 53.5717 1.75916 53.5717 4.34764V41.466L43.6147 34.3231C43.5814 34.2987 43.5438 34.2811 43.5038 34.2714C43.4638 34.2616 43.4222 34.2599 43.3816 34.2663C43.3409 34.2728 43.3019 34.2872 43.2668 34.3088C43.2317 34.3304 43.2012 34.3588 43.1771 34.3923L40.5909 37.9363C39.9971 37.4306 39.4032 36.9311 38.8462 36.4253C39.9158 35.7342 39.7132 35.4591 38.8268 34.778L38.9912 34.1736C40.6503 34.4997 42.5407 33.5271 43.3265 30.9983C43.8603 30.725 44.7536 30.4612 44.6305 29.7179C44.6086 29.5596 44.6536 29.6513 43.3527 28.053C43.2976 27.157 43.057 26.2824 42.6463 25.4852C42.9244 25.5512 43.2076 25.5933 43.4928 25.6109C44.8749 25.8917 46.8609 23.5527 44.7674 23.0488C44.8602 22.9116 44.9136 22.7514 44.9217 22.5857C44.9297 22.42 44.8922 22.2553 44.8132 22.1096C44.7342 21.964 44.6167 21.843 44.4738 21.7601C44.3308 21.6772 44.1679 21.6355 44.0029 21.6396C43.7412 21.6733 43.4844 21.7378 43.2377 21.8318C42.7476 21.8865 42.12 21.3807 41.708 20.9925C43.0208 19.4877 44.2017 18.2494 43.5784 16.6253C42.9533 15.4398 40.8353 15.284 37.6097 16.1799C34.8541 12.7275 31.0759 14.1732 27.8984 16.3187C25.5854 17.8819 25.4885 19.6875 26.1649 22.4607C20.4662 27.4241 23.2337 30.0553 28.8173 28.3772C29.8044 29.9208 30.5314 30.8903 30.1107 31.3747C29.6437 31.915 28.6773 30.9424 28.2934 31.6624C21.8996 32.067 16.9286 37.3376 12.1895 41.2568C10.5017 42.6528 10.3298 44.2134 11.1487 46.2201C12.0815 48.5115 13.4524 50.5967 15.1839 52.3577C15.0839 52.8044 14.9857 53.263 14.8907 53.7399C14.8518 54.1308 14.8378 54.5239 14.8488 54.9166C7.83679 62.0739 9.99473 73.9068 12.9835 82.8936C13.2948 83.5069 13.4167 84.1996 13.3336 84.883C13.2505 85.5664 12.9662 86.2093 12.5171 86.7292C8.49049 92.8169 4.94556 99.2129 1.91497 105.858C1.88489 105.925 1.87899 106 1.89828 106.071C1.91758 106.142 1.96085 106.203 2.02061 106.245C1.53464 106.745 1.07396 107.269 0.640334 107.816C-2.1271 110.885 4.84619 113.893 6.91473 114.052C8.05996 114.14 8.93826 113.11 7.78991 112.324C7.07726 111.543 4.32108 109.772 5.30503 108.335C5.66135 108.402 5.9089 108.147 6.23772 107.943L21.5371 93.0214C23.2812 91.3544 24.7313 89.4021 25.8254 87.2475C28.6817 96.0138 30.5705 105.069 31.4578 114.25C31.4338 114.593 31.5279 114.934 31.7244 115.215C31.9209 115.496 32.2078 115.701 32.5368 115.795C32.2405 117.295 31.7935 119.964 33.9915 120C35.9581 120 39.055 117.663 39.7264 117.067C40.1816 116.712 40.5584 116.266 40.8328 115.757C41.2311 115.09 40.8954 114.089 40.0421 114.192C38.5543 114.244 37.2527 115.361 35.8431 115.574C35.8631 115.489 35.8868 115.398 35.91 115.31C36.3764 114.446 36.6559 113.492 36.7301 112.512C39.9502 94.489 39.1813 74.4817 35.6393 57.9525C35.5971 57.2554 35.6012 56.5562 35.6518 55.8597C36.6926 55.2314 36.6664 54.4392 36.8008 53.5809C40.8253 61.3087 46.6471 60.9248 53.1228 57.6302L53.3154 57.8224V91.9627C53.3057 92.8107 53.6087 93.6323 54.1658 94.2693C54.7229 94.9062 55.4948 95.3135 56.3329 95.4126C95.7465 100.046 93.9517 99.7791 94.8332 99.6999C96.6291 99.5391 99.9529 97.2917 99.9492 95.3585V6.09864C100.03 5.62817 100.014 5.14597 99.9018 4.68204C99.7894 4.21812 99.5831 3.78243 99.2959 3.40209ZM7.70489 113.11C7.47672 114.363 0.953523 111.674 0.603452 109.511C0.597511 109.275 0.639203 109.04 0.726013 108.821C0.812823 108.601 0.942954 108.402 1.10855 108.234C1.55921 107.667 2.03913 107.123 2.54635 106.606C2.54635 106.606 4.69678 108.079 4.72366 108.097C3.5778 110.05 6.47777 111.788 7.70489 113.11ZM43.5015 35.0161L60.6437 47.3931C60.3302 47.6369 60.0456 47.916 59.7954 48.2249C59.7531 48.1911 59.7023 48.1698 59.6485 48.1636C59.5948 48.1574 59.5405 48.1664 59.4916 48.1897C58.6367 48.542 57.7487 48.8072 56.8411 48.9814L56.0128 47.2517C55.9934 47.2117 55.9657 47.1763 55.9317 47.1479C55.8976 47.1194 55.858 47.0986 55.8153 47.0867C55.7726 47.0748 55.7279 47.0722 55.6842 47.079C55.6404 47.0858 55.5986 47.1018 55.5615 47.1261L54.2024 48.0056L54.5081 46.4237C54.5165 46.3801 54.5157 46.3351 54.5055 46.2919C54.4954 46.2486 54.4763 46.208 54.4494 46.1728C54.4225 46.1375 54.3885 46.1084 54.3496 46.0873C54.3107 46.0662 54.2678 46.0537 54.2237 46.0505C51.8482 45.965 52.0139 45.3267 52.2377 47.9108L51.1843 46.7303C51.1523 46.6944 51.1125 46.6664 51.068 46.6485C51.0235 46.6306 50.9755 46.6232 50.9277 46.6269C50.8799 46.6306 50.8336 46.6453 50.7923 46.6699C50.7511 46.6944 50.716 46.7282 50.6898 46.7686L49.7365 48.2406C49.7138 48.276 49.6984 48.3157 49.6912 48.3572C49.684 48.3987 49.6852 48.4412 49.6947 48.4822C49.7042 48.5233 49.7218 48.562 49.7465 48.596C49.7712 48.63 49.8025 48.6588 49.8384 48.6804L51.1724 49.4764C50.908 49.5657 49.4883 49.7007 49.4671 49.9288C49.3314 50.1292 49.6546 50.596 49.7059 50.7851C48.9877 50.974 48.2453 51.0537 47.5036 51.0214C46.9935 50.0295 46.5023 49.0526 46.0301 48.0905C46.0927 48.0905 46.1758 48.0974 46.1752 48.0276C46.1991 48.0023 46.2172 47.9719 46.228 47.9386C46.2388 47.9053 46.2421 47.8701 46.2377 47.8354C46.1752 47.2593 46.1127 46.4903 46.1127 45.9782C46.3671 46.2346 46.7497 46.5543 47.3867 47.1311C47.4119 47.1552 47.4422 47.1733 47.4753 47.1842C47.5084 47.1951 47.5434 47.1984 47.578 47.1939C47.9679 46.6804 48.3296 46.1458 48.6613 45.5925C48.6613 45.4882 48.6919 45.2783 48.5363 45.2727L47.1985 44.5677L48.8551 44.0557C48.8874 44.053 48.9176 44.0389 48.9405 44.0159C48.9634 43.9929 48.9774 43.9625 48.9801 43.93C49.1051 43.8044 49.1051 43.7378 49.1051 43.6737L48.3406 42.0088C48.3406 41.8511 48.1243 41.8831 48.0218 41.8831L46.4921 42.9079L46.8109 41.1788C46.8459 41.084 46.7003 40.9018 46.6196 40.9225C43.9847 40.6982 44.5999 40.1987 44.7718 42.9079C43.2783 41.2486 43.584 41.4578 43.1789 41.5627L43.0764 41.7003C42.5363 40.6473 42.3519 39.4323 41.408 38.6356C41.2942 38.5395 41.1848 38.4471 41.0729 38.3485L43.5015 35.0161ZM78.9174 59.7487L64.8521 49.6335C64.3745 49.0084 89.1214 52.4243 89.1232 52.249C89.2061 52.249 89.2856 52.2159 89.3443 52.157C89.4029 52.0981 89.4358 52.0182 89.4358 51.9349V44.2492C89.4361 44.1703 89.4068 44.0941 89.3537 44.0359C89.3007 43.9777 89.2278 43.9417 89.1495 43.9351L60.7925 41.5012C60.7493 41.4975 60.7058 41.5029 60.6648 41.517C60.6238 41.5312 60.5862 41.5537 60.5543 41.5833C60.5225 41.6128 60.4971 41.6487 60.4797 41.6887C60.4624 41.7286 60.4535 41.7717 60.4537 41.8153V46.4808L57.8907 44.586V6.86325L93.0153 9.31728V87.1344L57.795 83.799V61.1548C71.8197 71.6381 70.9271 71.0136 71.0877 71.0136C71.329 71.0136 70.6289 71.689 78.9893 60.1872C79.0369 60.1192 79.056 60.0352 79.0425 59.9532C79.0291 59.8712 78.9842 59.7978 78.9174 59.7487ZM63.2118 47.1832C63.1208 47.0016 62.9772 46.8519 62.7998 46.754C62.6225 46.656 62.4198 46.6145 62.2184 46.6348C60.9488 46.9407 61.3708 47.1443 61.0782 46.9326V42.1571L88.8069 44.5376V51.5812L64.5695 48.7483C64.1144 48.2513 63.4043 47.8681 63.2118 47.1832ZM64.1144 49.5744H63.89C63.4087 49.6857 63.2849 50.04 63.048 50.3579C62.7048 50.9293 62.1574 51.3474 61.5177 51.5265L60.9932 51.4951C60.7431 50.6356 60.4599 49.7277 60.0924 48.8098C60.6405 48.0508 61.4289 47.5014 62.3284 47.2517C62.3913 47.2529 62.4529 47.2698 62.5075 47.3011C62.5621 47.3324 62.608 47.377 62.641 47.4308C62.8748 48.0146 63.2755 48.5157 63.7925 48.8708C63.9675 48.9487 64.3976 49.4645 64.1144 49.5738V49.5744ZM41.7699 25.2094C41.9282 25.4499 42.0684 25.7019 42.1894 25.9634C41.4796 26.155 40.8703 26.6137 40.4878 27.2444C40.4452 27.3159 40.4326 27.4014 40.4527 27.4823C40.4729 27.5631 40.5242 27.6326 40.5953 27.6754C40.6664 27.7182 40.7516 27.7309 40.832 27.7106C40.9124 27.6904 40.9815 27.6388 41.0241 27.5673C41.1784 27.3125 41.3814 27.0909 41.6214 26.9154C41.8615 26.74 42.1338 26.6141 42.4225 26.5451C42.5868 27.1461 42.7152 27.7564 42.807 28.3728L43.9754 29.8059C44.071 29.8568 43.9754 29.9541 43.9053 29.9893C43.6041 30.18 43.2858 30.342 42.9545 30.4731C42.7045 30.5698 42.8451 30.7244 42.3994 31.6209C42.099 31.7149 41.7747 31.6949 41.488 31.5648C41.2013 31.4347 40.972 31.2034 40.8435 30.9148C40.8063 30.8398 40.7411 30.7827 40.6621 30.7561C40.583 30.7294 40.4967 30.7354 40.4221 30.7728C40.3475 30.8101 40.2907 30.8757 40.2642 30.9551C40.2377 31.0345 40.2437 31.1212 40.2809 31.1962C40.4351 31.5225 40.6763 31.7994 40.9777 31.9961C41.279 32.1929 41.6288 32.3018 41.9881 32.3108C41.6814 32.7672 41.2528 33.1272 40.7514 33.3495C40.2501 33.5718 39.6965 33.6473 39.1544 33.5673C39.4094 32.9472 38.713 32.8046 38.6018 33.2149L38.2948 34.3458C37.8502 34.0065 37.386 33.6942 36.9045 33.4103C38.7208 31.0735 39.9539 28.3337 40.5009 25.4199C40.5634 25.0995 40.756 24.715 40.6922 24.4593C41.0326 24.7356 41.3928 24.9863 41.7699 25.2094ZM26.7944 18.2475C28.9886 15.7564 33.6389 13.1422 36.3951 15.8425C38.5205 17.924 38.5405 17.9642 38.6043 18.2444C38.7162 18.7382 38.2529 19.3363 37.9516 19.7987C37.1533 20.9602 36.1167 21.9365 34.9116 22.6618C32.8737 24.044 28.7723 24.441 27.2063 23.9742C26.9225 22.9238 25.8742 19.5493 26.7944 18.2475ZM23.7563 27.5661C23.2699 26.7355 24.2745 25.0304 26.3262 23.1606C26.5556 23.9102 26.5424 24.3298 26.8763 24.5271C29.738 25.1052 32.7111 24.6298 35.253 23.1876C36.6015 22.3627 37.7507 21.2468 38.6174 19.9206C39.5795 18.583 39.3901 17.8109 38.1748 16.7453C40.3884 15.9374 42.7326 16.1541 43.0333 16.9282C43.6584 19.3495 39.1237 22.7881 35.0004 25.146C29.3105 28.2685 24.5102 28.9301 23.7563 27.5661ZM24.9353 87.644C25.0984 85.991 24.072 85.5776 21.7659 78.4473C21.5108 77.6783 19.4716 72.0427 21.0013 72.3631C21.5746 72.4888 21.7659 73.7717 21.8934 74.2203C22.7517 77.3843 24.5702 82.3527 25.6823 85.8521C25.4948 86.4735 25.2445 87.0739 24.9353 87.644ZM25.4441 59.7556C22.0472 59.2278 18.8471 57.815 16.1622 55.658C15.8843 55.4587 15.6732 55.1793 15.5565 54.8568C15.4399 54.5343 15.4233 54.1839 15.509 53.8517C15.8715 52.2364 16.1891 50.7952 16.5929 49.4746C20.5537 53.0469 25.9905 55.4331 32.2211 56.2762C33.1502 56.4637 34.1112 56.4138 35.016 56.1311C34.9635 56.6375 35.0836 57.8683 34.776 58.2672C32.88 60.7357 28.7685 60.338 25.4441 59.7575V59.7556ZM40.2765 114.838C40.6878 115.377 39.6576 116.305 39.3388 116.573C38.0773 117.641 34.0877 120.375 33.1713 118.997C32.7337 118.384 32.9075 117.378 33.0594 116.49C33.0056 115.605 33.747 116.163 34.2434 116.076C34.5546 116.083 34.8641 116.028 35.1548 115.916C35.1548 116 35.1878 116.079 35.2464 116.138C35.305 116.197 35.3845 116.23 35.4674 116.23C37.2071 116.23 38.8593 114.679 40.2765 114.84V114.838ZM41.623 58.2628C38.1354 56.0639 35.3992 50.1946 34.4966 45.5321C34.4781 45.4531 34.4299 45.3843 34.3621 45.3402C34.2943 45.2961 34.2121 45.2801 34.1328 45.2955C34.0535 45.311 33.9833 45.3567 33.9367 45.423C33.8902 45.4894 33.8711 45.5713 33.8833 45.6515C34.3944 48.1145 35.2267 50.4988 36.3588 52.7428C35.9575 53.7845 36.4063 54.8425 35.1617 55.4212C34.2564 55.7645 33.2735 55.8465 32.3242 55.658C24.8665 54.3939 18.0532 51.4813 14.5031 46.0637C14.488 45.9104 14.5053 45.7557 14.554 45.6097C14.6027 45.4638 14.6817 45.3298 14.7857 45.2168C16.0678 42.5244 17.6152 39.9679 19.4048 37.5858C19.4545 37.5191 19.4759 37.4353 19.4641 37.3529C19.4524 37.2704 19.4086 37.196 19.3422 37.146C19.2759 37.096 19.1926 37.0745 19.1105 37.0863C19.0284 37.0981 18.9544 37.1421 18.9047 37.2088C17.0981 39.6135 15.5348 42.1934 14.2381 44.9102C14.0985 45.0789 13.9947 45.2746 13.9332 45.4852C13.8717 45.6958 13.8538 45.9168 13.8805 46.1347C14.1306 47.3774 15.2927 48.1005 16.081 49.0115C15.8228 49.8333 15.5846 50.7047 15.3608 51.632C13.8138 49.9971 12.5841 48.0863 11.7351 45.9977C11.0162 44.2329 11.0881 42.9776 12.6103 41.7298C17.2468 37.92 22.0222 32.7958 28.1984 32.2932C28.2706 32.4881 28.3816 32.6661 28.5247 32.8162C28.6677 32.9664 28.8399 33.0856 29.0305 33.1665C28.4572 33.9355 29.2142 34.6549 29.8587 34.9602C30.2512 35.1376 30.6784 35.2241 31.1086 35.2132C31.5388 35.2023 31.9611 35.0944 32.3442 34.8974C32.3224 35.6702 33.5551 35.9862 34.2559 35.7298C35.1639 35.3485 35.9429 34.7114 36.4988 33.8953C36.8377 34.1466 39.2281 35.4697 38.6762 35.7707C38.3867 35.9906 37.8704 36.3009 38.1854 36.6641C39.1969 37.6297 40.3634 38.4861 41.3636 39.4743C43.1846 43.2792 44.7505 47.2197 46.986 51.387C47.6298 52.4978 57.5681 49.457 59.4422 48.8607C59.7907 49.7277 60.0925 50.613 60.3462 51.5127C58.3229 53.3891 56.1275 55.0689 53.7892 56.5294C52.002 57.6226 45.7707 60.8526 41.623 58.2647V58.2628ZM57.8888 54.3946L58.8796 54.9839C57.2643 55.298 57.2674 55.2591 57.1749 55.4381C56.9774 55.5556 57.8363 57.1257 57.9307 57.4398C57.9486 57.4802 57.9747 57.5164 58.0075 57.5459C58.0402 57.5754 58.0788 57.5977 58.1207 57.6112C58.1626 57.6248 58.2069 57.6292 58.2506 57.6244C58.2943 57.6195 58.3366 57.6054 58.3745 57.583L59.8492 56.711C59.8273 56.9114 59.2334 58.3923 59.4179 58.5053C59.442 58.5436 59.4742 58.5762 59.512 58.6008C59.5499 58.6254 59.5926 58.6415 59.6373 58.648C59.6373 58.648 61.4501 58.9074 61.4664 58.9074C61.5096 58.9076 61.5523 58.8987 61.5919 58.8814C61.6315 58.8641 61.6671 58.8388 61.6965 58.8069C61.7259 58.7751 61.7484 58.7375 61.7625 58.6965C61.7767 58.6556 61.7823 58.6121 61.779 58.5688C61.7339 57.9726 61.6896 57.3342 61.6639 56.8725L62.7892 57.8708C62.8227 57.9007 62.8623 57.923 62.9052 57.9362C62.9482 57.9494 62.9934 57.9531 63.0379 57.9472C63.0824 57.9412 63.1251 57.9257 63.163 57.9017C63.201 57.8776 63.2334 57.8457 63.258 57.808C63.3205 57.6377 64.3907 56.2423 64.2545 56.0852C64.2595 55.8653 63.1236 55.401 62.9867 55.288L64.4245 54.8632C64.4681 54.8502 64.5083 54.8278 64.5424 54.7975C64.5764 54.7672 64.6035 54.7299 64.6217 54.688C64.6399 54.6461 64.6488 54.6007 64.6478 54.5551C64.6468 54.5094 64.6359 54.4645 64.6158 54.4235L63.7875 52.7585C63.768 52.7189 63.7405 52.6838 63.7066 52.6556C63.6728 52.6274 63.6334 52.6067 63.591 52.5948C63.5487 52.583 63.5043 52.5802 63.4608 52.5868C63.4173 52.5933 63.3757 52.6091 63.3386 52.6329L61.9796 53.5125L62.2853 51.9305C62.9616 51.4839 63.5313 50.8926 63.9538 50.199H64.3363C64.5383 49.8471 78.1335 60.1307 78.3023 60.076L71.0227 70.254L53.7186 57.2934C55.1739 56.4263 56.5674 55.4583 57.8888 54.3964V54.3946ZM97.0624 96.3801C97.0692 97.9835 95.3839 99.2073 93.8117 99.0779L56.4072 94.7868C55.7213 94.705 55.0898 94.3709 54.6345 93.8488C54.1793 93.3267 53.9325 92.6537 53.9417 91.9596V58.2842L57.173 60.6823V84.0792C57.1658 84.1539 57.1878 84.2286 57.2345 84.2873C57.2812 84.346 57.3489 84.384 57.4231 84.3933C57.7131 84.4379 93.2503 88.0015 93.411 87.7081C93.411 87.2626 93.7348 9.74325 93.6817 9.09801C93.6529 8.74806 93.5148 8.72105 93.4791 8.7066C93.2497 8.80775 57.5894 6 57.4312 6.29215C57.1361 6.40775 57.3062 43.9294 57.2049 44.1317L54.1962 41.9127V4.34199C54.2116 3.62444 54.5053 2.94131 55.0145 2.43811C55.5237 1.9349 56.2082 1.65139 56.9224 1.64796C57.0061 1.51414 94.2224 3.90534 94.3268 3.82241C96.0221 3.94052 97.063 5.37801 97.063 7.09382L97.0624 96.3801Z" fill="#15161A"/>
<path d="M73.5435 87.3868C69.2926 87.9391 70.0703 95.2666 74.5018 94.8702C78.8852 94.13 77.7956 86.8339 73.5435 87.3868ZM76.1734 93.1079C75.9833 93.4157 75.7274 93.6771 75.4243 93.8731C75.1212 94.0691 74.7784 94.1948 74.4209 94.241C74.0634 94.2872 73.7001 94.2528 73.3575 94.1402C73.0149 94.0277 72.7015 93.8398 72.4401 93.5904C70.571 92.0542 71.2024 88.2758 73.6235 88.01C76.0334 87.6519 77.5943 91.1458 76.1734 93.1097V93.1079Z" fill="#15161A"/>
<path d="M71.9668 61.6629C71.9861 61.4411 70.8322 60.9718 70.6978 60.8575L72.1356 60.4334C72.1793 60.4206 72.2197 60.3983 72.254 60.3681C72.2883 60.3379 72.3156 60.3006 72.334 60.2587C72.3524 60.2168 72.3614 60.1713 72.3605 60.1256C72.3596 60.0798 72.3488 60.0347 72.3287 59.9936C72.1949 59.8051 71.5111 58.046 71.3035 58.0975C71.151 57.9536 69.8382 58.9651 69.6901 59.0179L69.9907 57.4378C69.9991 57.3942 69.9981 57.3494 69.9879 57.3062C69.9778 57.263 69.9586 57.2225 69.9318 57.1873C69.9049 57.1521 69.8709 57.123 69.832 57.102C69.7932 57.081 69.7503 57.0684 69.7063 57.0652C67.2877 56.9597 67.509 56.3798 67.724 58.9764L66.5988 57.8003C66.5676 57.7678 66.5298 57.7425 66.488 57.726C66.4462 57.7095 66.4013 57.7022 66.3565 57.7047C66.3116 57.7072 66.2679 57.7194 66.2281 57.7405C66.1884 57.7615 66.1536 57.7909 66.1262 57.8267C66.0287 58.0152 64.8516 59.3188 64.9835 59.4866C64.9272 59.6901 66.35 60.3831 66.4644 60.4918C66.1962 60.5817 64.7766 60.7155 64.7584 60.9454C64.5653 61.0749 65.4067 62.6016 65.5142 62.9477C65.5325 62.9879 65.5589 63.0238 65.5917 63.0531C65.6246 63.0824 65.6631 63.1046 65.705 63.118C65.7468 63.1315 65.791 63.1361 65.8347 63.1314C65.8783 63.1268 65.9206 63.113 65.9587 63.091L67.459 62.2039L67.0283 63.7607C67.0164 63.8038 67.0137 63.8489 67.0205 63.893C67.0273 63.9372 67.0434 63.9794 67.0677 64.0168C67.0921 64.0542 67.124 64.0859 67.1615 64.1099C67.199 64.1339 67.2412 64.1496 67.2852 64.1559C69.7563 64.47 69.4769 64.9098 69.3356 62.4294C69.5919 62.655 69.9482 62.9603 70.4415 63.38C70.4743 63.4078 70.5125 63.4286 70.5536 63.441C70.5948 63.4533 70.638 63.457 70.6807 63.4518C70.7233 63.4466 70.7644 63.4327 70.8015 63.4108C70.8385 63.3889 70.8707 63.3596 70.8959 63.3247C70.9909 63.1299 72.1043 61.83 71.9668 61.6629Z" fill="#15161A"/>
<path d="M41.6516 28.9481C42.4196 29.0109 42.8421 27.5131 42.0265 27.3598C41.4953 27.1487 40.6311 28.862 41.6516 28.9481Z" fill="#15161A"/>
<path d="M27.2695 18.8804C29.9745 18.6762 32.5326 17.5641 34.5329 15.7227C34.5936 15.6659 34.6293 15.5872 34.6322 15.5039C34.6352 15.4206 34.605 15.3395 34.5485 15.2785C34.492 15.2175 34.4137 15.1816 34.3308 15.1787C34.2479 15.1757 34.1672 15.206 34.1065 15.2628C32.217 17.0171 29.7893 18.0721 27.2233 18.254C27.142 18.2619 27.067 18.3015 27.0144 18.3643C26.9618 18.4271 26.9357 18.5081 26.9418 18.5899C26.9478 18.6718 26.9855 18.748 27.0468 18.8023C27.108 18.8566 27.188 18.8846 27.2695 18.8804Z" fill="#15161A"/>
<path d="M78.6797 26.2772C78.6934 24.3365 78.7047 21.5231 78.6628 20.8527C78.2746 15.4948 69.9891 15.361 69.691 20.2207L69.4984 25.8789C68.888 25.9985 68.3357 26.3218 67.9311 26.7965C67.5265 27.2711 67.2932 27.8692 67.2692 28.4938L67.1442 38.0322C67.1431 38.1118 67.1722 38.1888 67.2254 38.2477C67.2787 38.3066 67.3522 38.3429 67.4311 38.3495L80.8138 39.4383C80.8569 39.4417 80.9003 39.4362 80.9411 39.422C80.982 39.4077 81.0195 39.3852 81.0512 39.3556C81.0829 39.3261 81.1082 39.2903 81.1255 39.2504C81.1427 39.2106 81.1515 39.1676 81.1514 39.1241V29.0718C81.1599 28.3802 80.9112 27.7104 80.454 27.1935C79.9968 26.6765 79.364 26.3498 78.6797 26.2772ZM71.0306 32.3715C71.2994 30.4445 77.4025 30.7838 77.4513 32.8816C77.1268 34.779 71.075 34.4655 71.0325 32.3696L71.0306 32.3715ZM73.3167 19.2029H73.9687C74.5656 19.1895 75.1444 19.4099 75.5827 19.8174C76.021 20.2248 76.2847 20.7876 76.3179 21.3867V26.1358L71.7789 25.8921V21.3352C71.7401 21.0934 71.7492 20.8463 71.8057 20.6081C71.8621 20.3698 71.9648 20.1451 72.1079 19.9469C72.2509 19.7486 72.4315 19.5806 72.6392 19.4526C72.847 19.3246 73.0779 19.2391 73.3186 19.201L73.3167 19.2029ZM78.0545 26.2332L76.943 26.1704V21.3704C76.9031 20.6056 76.5691 19.8863 76.0115 19.3643C75.4538 18.8423 74.7162 18.5585 73.9543 18.5727C73.575 18.522 73.1891 18.5597 72.8266 18.6831C72.4641 18.8065 72.1347 19.0121 71.8641 19.2841C71.5935 19.5561 71.3889 19.8871 71.2661 20.2514C71.1433 20.6157 71.1058 21.0036 71.1563 21.3849V25.8613L70.2092 25.8098C70.0904 25.8041 70.0654 26.4726 70.3155 20.2452C70.3205 20.1271 70.4861 17.3438 73.8268 17.3438C77.7732 17.3438 78.0301 20.7472 78.0389 20.8917C78.0808 21.5325 78.0702 24.2994 78.0545 26.2313V26.2332Z" fill="#FF7E1F"/>
<path d="M75.9672 4.91792C75.9672 5.11837 75.888 5.31062 75.747 5.45236C75.606 5.5941 75.4148 5.67373 75.2154 5.67373C75.016 5.67373 74.8248 5.5941 74.6838 5.45236C74.5428 5.31062 74.4636 5.11837 74.4636 4.91792C74.4636 4.71747 74.5428 4.52522 74.6838 4.38348C74.8248 4.24174 75.016 4.16211 75.2154 4.16211C75.4148 4.16211 75.606 4.24174 75.747 4.38348C75.888 4.52522 75.9672 4.71747 75.9672 4.91792Z" fill="#15161A"/>
</svg>
