<svg width="237" height="237" viewBox="0 0 237 237" fill="none" xmlns="http://www.w3.org/2000/svg">
<path d="M71.4727 107.189C71.5495 107.189 71.625 107.169 71.6921 107.132C71.7592 107.095 71.8156 107.041 71.8559 106.975C71.8963 106.91 71.9193 106.836 71.9228 106.759C71.9262 106.682 71.91 106.606 71.8756 106.537C71.8756 106.407 71.1291 105.352 70.9987 105.175C70.9579 105.099 70.8887 105.043 70.8065 105.019C70.7243 104.994 70.6357 105.003 70.5603 105.044C70.4849 105.085 70.4288 105.154 70.4043 105.236C70.3799 105.319 70.3891 105.407 70.4299 105.483C70.9632 106.561 70.9987 107.189 71.4727 107.189ZM69.2686 105.968C69.2089 105.627 69.2435 105.275 69.3688 104.951C69.4941 104.628 69.7053 104.344 69.9796 104.132C70.0278 104.088 70.0664 104.035 70.0928 103.976C70.1191 103.917 70.1328 103.853 70.1328 103.788C70.1328 103.723 70.1191 103.659 70.0928 103.6C70.0664 103.541 70.0278 103.488 69.9796 103.444C69.2923 102.722 68.214 104.452 68.6643 106.111C68.6736 106.15 68.6907 106.188 68.7145 106.221C68.7383 106.254 68.7684 106.282 68.8031 106.303C68.8377 106.325 68.8763 106.339 68.9165 106.346C68.9567 106.352 68.9979 106.351 69.0376 106.342C69.0772 106.332 69.1147 106.315 69.1478 106.292C69.1809 106.268 69.209 106.238 69.2304 106.203C69.2519 106.168 69.2663 106.13 69.2728 106.09C69.2794 106.049 69.278 106.008 69.2686 105.968ZM112.829 74.4949C112.862 74.5174 112.901 74.5286 112.94 74.5265C112.98 74.5245 113.017 74.5094 113.047 74.4835C113.077 74.4577 113.097 74.4227 113.105 74.384C113.113 74.3453 113.108 74.305 113.09 74.2697C112.665 73.1811 112.499 72.0088 112.604 70.8451C113.698 70.8325 114.747 70.4096 115.543 69.6601C116.715 70.1578 118.026 70.2208 119.24 69.8378C119.524 72.9781 119.24 73.298 119.465 73.3928C119.494 73.4094 119.527 73.4182 119.56 73.4182C119.593 73.4182 119.626 73.4094 119.655 73.3928C120.01 73.1151 120.306 72.7697 120.526 72.3765C120.747 71.9833 120.887 71.5503 120.938 71.1025C120.99 70.6548 120.952 70.2013 120.826 69.7683C120.701 69.3354 120.491 68.9317 120.208 68.5807C119.926 68.2297 119.576 67.9383 119.18 67.7236C118.783 67.5089 118.348 67.3751 117.9 67.33C117.452 67.2849 116.999 67.3294 116.568 67.4609C116.136 67.5923 115.736 67.8082 115.389 68.0959C114.963 67.8297 114.566 67.5199 114.204 67.1716C114.435 66.5645 114.7 65.9711 114.998 65.3941C115.015 65.3654 115.025 65.3336 115.03 65.3007C115.034 65.2677 115.032 65.2343 115.023 65.2022C115.014 65.1702 114.999 65.1403 114.978 65.1142C114.958 65.0881 114.932 65.0664 114.903 65.0504C114.642 64.8845 114.5 65.1926 114.275 65.5007C113.528 66.5317 113.09 67.1123 113.445 67.7759C109.807 67.8352 109.428 72.4567 112.829 74.4949ZM118.754 90.4805C118.734 90.618 118.743 90.7581 118.78 90.892C118.817 91.0259 118.882 91.1505 118.97 91.2578C119.059 91.365 119.168 91.4527 119.293 91.515C119.417 91.5773 119.553 91.6129 119.691 91.6196C119.83 91.6262 119.969 91.6038 120.098 91.5536C120.228 91.5034 120.346 91.4267 120.444 91.3283C120.542 91.23 120.618 91.1122 120.668 90.9825C120.718 90.8528 120.74 90.7141 120.733 90.5753C120.753 90.4378 120.745 90.2977 120.707 90.1638C120.67 90.0299 120.605 89.9053 120.517 89.7981C120.429 89.6908 120.319 89.6031 120.195 89.5408C120.071 89.4785 119.935 89.4429 119.796 89.4362C119.657 89.4296 119.519 89.4521 119.389 89.5022C119.259 89.5524 119.142 89.6291 119.044 89.7275C118.946 89.8258 118.869 89.9437 118.819 90.0733C118.769 90.203 118.747 90.3417 118.754 90.4805Z" fill="#15161A"/>
<path d="M95.149 86.6892C94.1773 93.3726 92.3169 92.1521 92.3169 86.4641C85.5742 85.4924 86.9014 83.6556 92.5302 83.6319C93.4189 78.0506 95.3741 77.0433 95.3741 83.8452C100.896 84.734 102.022 86.6892 95.149 86.6892Z" fill="#FF7E1F"/>
<path d="M34.4734 36.2075C34.7911 35.9984 35.1631 35.8871 35.5435 35.8874C35.9109 35.8915 36.2696 36.0003 36.5774 36.2011C36.8851 36.4019 37.1292 36.6864 37.281 37.021C37.4328 37.3557 37.486 37.7267 37.4343 38.0906C37.3826 38.4544 37.2282 38.7959 36.9892 39.0751C36.8229 39.2919 36.6106 39.4692 36.3675 39.5941C36.1245 39.719 35.8568 39.7886 35.5837 39.7976C35.3106 39.8067 35.0388 39.7551 34.788 39.6465C34.5373 39.538 34.3137 39.3752 34.1333 39.1699C33.8713 38.8942 33.6959 38.5477 33.6288 38.1734C33.5618 37.799 33.6061 37.4132 33.7562 37.0637C33.9063 36.7143 34.1557 36.4165 34.4734 36.2075Z" fill="#FF7E1F"/>
<path d="M40.6591 35.2239C40.9768 35.0148 41.3488 34.9035 41.7292 34.9039C42.0998 34.9038 42.4627 35.0104 42.7745 35.2109C43.0862 35.4114 43.3337 35.6973 43.4874 36.0347C43.641 36.372 43.6944 36.7464 43.6411 37.1132C43.5878 37.48 43.4301 37.8237 43.1867 38.1034C43.0196 38.3215 42.806 38.4997 42.5614 38.6249C42.3168 38.7501 42.0473 38.8192 41.7726 38.8271C41.4979 38.835 41.2249 38.7817 40.9735 38.6708C40.722 38.56 40.4985 38.3944 40.319 38.1863C40.057 37.9107 39.8816 37.5642 39.8145 37.1898C39.7475 36.8154 39.7918 36.4296 39.9419 36.0802C40.092 35.7307 40.3414 35.433 40.6591 35.2239Z" fill="#FF7E1F"/>
<path d="M47.1741 34.0601C47.4884 33.85 47.8568 33.7356 48.2348 33.7307C48.6055 33.7306 48.9684 33.8372 49.2801 34.0377C49.5919 34.2382 49.8393 34.5242 49.993 34.8615C50.1467 35.1988 50.2 35.5732 50.1467 35.94C50.0934 36.3069 49.9357 36.6506 49.6924 36.9302C49.5253 37.1484 49.3117 37.3265 49.067 37.4517C48.8224 37.5769 48.5529 37.646 48.2783 37.654C48.0036 37.6619 47.7306 37.6085 47.4791 37.4977C47.2277 37.3868 47.0041 37.2213 46.8247 37.0132C46.5681 36.7356 46.3974 36.3896 46.3333 36.017C46.2693 35.6445 46.3146 35.2613 46.4638 34.914C46.6131 34.5667 46.8598 34.2701 47.1741 34.0601Z" fill="#FF7E1F"/>
<path d="M87.8731 91.3455C89.5436 92.8345 91.7114 93.6433 93.9489 93.6126C96.1864 93.5819 98.3311 92.7138 99.9601 91.1796C108.622 96.0026 118.671 96.1329 128.27 91.1796C133.563 88.9789 137.78 84.7872 140.013 79.5074C144.516 67.9892 140.629 51.7784 127.665 45.9956C107.023 36.6222 84.5788 55.76 90.3142 77.6943C84.7921 80.1117 82.8961 87.0203 87.8731 91.3455ZM114.619 44.8106C138.319 42.7013 146.519 69.3519 137.027 82.8846C135.937 82.0666 134.741 81.4008 133.472 80.9057C130.893 80.0828 128.189 79.7257 125.485 79.851C124.975 79.3652 122.487 77.2085 122.06 76.8411V74.8385C123.24 72.9932 123.781 70.8117 123.601 68.6291C127.251 67.4441 127.476 62.5856 124.608 62.4671C124.973 60.1111 124.973 57.7131 124.608 55.3571C123.601 51.9087 119.287 50.4393 118.79 50.2853C113.457 48.6026 107.378 51.6362 106.312 55.1201C105.802 56.7198 106.312 61.8035 106.703 63.6402C106.347 63.7821 106.025 63.996 105.757 64.2684C105.488 64.5409 105.279 64.866 105.142 65.2232C105.005 65.5805 104.943 65.9623 104.961 66.3445C104.979 66.7267 105.076 67.1011 105.245 67.4441C105.589 68.238 106.608 70.5843 108.208 70.2644C108.265 71.9943 108.885 73.6583 109.973 75.0044C109.843 77.6825 110.08 76.6752 109.547 76.6634C109.479 76.6673 109.414 76.6878 109.356 76.7229C109.298 76.758 109.25 76.8067 109.215 76.8648C108.67 77.8128 107.153 81.0479 106.845 81.9248C106.122 82.2447 103.373 83.6549 102.591 84.0341C101.809 78.8556 95.8244 75.6443 91.0133 77.4692C87.565 60.0971 98.6922 46.2444 114.619 44.8106ZM126.101 91.0256C121.955 92.9699 117.405 93.8962 112.829 93.7274C112.829 90.3857 110.234 90.3383 108.99 87.281C108.717 86.5937 107.461 83.6549 107.082 82.7069C107.26 82.3514 107.603 81.8181 107.9 81.3323C108.362 84.6977 112.64 88.4423 112.64 88.4423C113.481 89.1177 114.073 89.0229 114.583 87.9327L116.432 83.963C117.09 85.4566 117.866 86.895 118.754 88.2645C118.801 88.3406 118.871 88.3992 118.954 88.431C119.038 88.4629 119.129 88.4662 119.214 88.4404C119.3 88.4147 119.374 88.3613 119.426 88.2888C119.478 88.2162 119.504 88.1285 119.501 88.0394C119.501 87.2099 119.868 84.3422 120.022 83.2046C120.71 84.2987 121.504 85.3227 122.392 86.2619C122.445 86.2982 122.506 86.3216 122.57 86.3303C122.634 86.339 122.699 86.3328 122.759 86.3121C122.82 86.2914 122.876 86.2568 122.921 86.2111C122.966 86.1654 123 86.1097 123.02 86.0486C123.364 85.1598 125.39 81.0953 125.663 80.6094L126.338 80.6924C125.521 83.5719 126.018 88.6556 126.101 91.0256ZM108.326 69.186C107.84 69.6837 107.414 69.3875 107.058 68.7831C106.312 67.7285 105.53 66.4131 106.11 65.1333C106.223 64.893 106.4 64.6885 106.622 64.5422C106.843 64.3959 107.101 64.3134 107.366 64.3038C107.735 64.4568 108.066 64.6871 108.338 64.9793C108.687 65.3436 108.943 65.7867 109.085 66.2709C109.095 66.3088 109.117 66.3424 109.148 66.3663C109.179 66.3902 109.217 66.4032 109.256 66.4032C109.296 66.4032 109.334 66.3902 109.365 66.3663C109.396 66.3424 109.418 66.3088 109.428 66.2709C109.428 64.9793 109.547 60.6896 109.57 59.1609C111.4 60.0877 113.446 60.5031 115.492 60.3633C117.538 60.2236 119.509 59.5339 121.195 58.367C121.337 59.6942 121.812 63.9128 122.049 65.3822C122.061 65.4157 122.084 65.4445 122.114 65.4649C122.143 65.4852 122.178 65.4961 122.214 65.4961C122.25 65.4961 122.285 65.4852 122.315 65.4649C122.345 65.4445 122.367 65.4157 122.38 65.3822C122.705 64.724 123.156 64.1361 123.708 63.6521C123.845 63.5151 124.015 63.4167 124.203 63.3667C124.39 63.3168 124.587 63.3171 124.774 63.3677C126.528 63.7943 125.698 67.3256 123.079 67.8944C122.985 67.92 122.902 67.9754 122.842 68.0524C122.783 68.1293 122.749 68.2235 122.748 68.321C122.831 70.2881 122.546 74.874 118.742 76.1301C117.265 76.7112 115.651 76.8471 114.097 76.5212C112.562 76.1646 111.207 75.2658 110.282 73.9899C109.357 72.7141 108.923 71.1471 109.061 69.5771C109.075 69.4839 109.06 69.3887 109.017 69.3048C108.974 69.2209 108.906 69.1525 108.822 69.1093C108.738 69.0662 108.643 69.0503 108.55 69.0641C108.457 69.0779 108.37 69.1205 108.303 69.186H108.326ZM114.133 81.036C112.926 80.0375 111.793 78.9523 110.744 77.7891V75.7746C113.706 78.5238 118.73 78.0024 121.409 75.6798C121.368 76.2422 121.424 76.8073 121.574 77.3507L122.759 78.5357C119.572 81.5811 119.513 81.5337 119.501 82.0077C119.195 83.546 118.982 85.1011 118.861 86.6648C118.671 86.2856 116.989 82.8846 116.894 82.7306C116.669 82.1855 115.484 82.0196 114.109 81.036H114.133ZM116.183 82.9439C115.258 84.3303 113.943 87.3047 113.469 87.8024C110.969 85.8471 108.48 83.2046 108.611 80.0406C108.682 79.851 109.262 78.5594 109.653 77.7417C112.272 80.8227 113.09 81.6404 116.159 82.9439H116.183ZM120.271 81.9011C120.615 81.5693 123.399 79.0571 123.399 79.0571C123.601 79.2111 124.679 80.0762 124.893 80.2421C124.226 81.9342 123.434 83.5741 122.522 85.148C121.587 84.2011 120.818 83.1035 120.247 81.9011H120.271ZM93.9758 77.801C95.8305 77.7911 97.6293 78.4357 99.0555 79.6213C100.482 80.807 101.444 82.4577 101.773 84.2829C101.854 85.8674 101.459 87.4397 100.64 88.7983C99.8205 90.1569 98.6142 91.2398 97.1755 91.9083C95.7367 92.5767 94.1311 92.8002 92.5645 92.55C90.9979 92.2999 89.5417 91.5875 88.3827 90.5042C83.0383 85.5153 87.1858 77.801 93.9758 77.801Z" fill="#15161A"/>
<path d="M112.071 63.6522C112.071 64.2921 111.952 65.2638 111.976 65.3941C111.994 65.5025 112.049 65.6011 112.133 65.6723C112.216 65.7435 112.322 65.7825 112.432 65.7825C112.542 65.7825 112.648 65.7435 112.732 65.6723C112.815 65.6011 112.871 65.5025 112.889 65.3941C112.889 65.2519 112.758 63.8062 112.758 63.664C112.76 63.5729 112.725 63.4849 112.662 63.4193C112.598 63.3538 112.512 63.316 112.42 63.3145C112.329 63.3129 112.241 63.3476 112.176 63.4109C112.11 63.4743 112.072 63.5611 112.071 63.6522ZM118.517 64.9794C118.517 64.8016 118.387 63.4033 118.387 63.2493C118.372 63.1706 118.33 63.0995 118.269 63.0483C118.207 62.9972 118.129 62.9692 118.049 62.9692C117.969 62.9692 117.891 62.9972 117.83 63.0483C117.768 63.0995 117.726 63.1706 117.711 63.2493C117.64 64.1499 117.593 64.8728 117.605 65.015C117.626 65.123 117.685 65.22 117.772 65.2883C117.858 65.3566 117.966 65.3917 118.076 65.3874C118.186 65.3831 118.291 65.3397 118.372 65.2649C118.453 65.1901 118.504 65.0888 118.517 64.9794ZM110.981 63.6522C111.016 63.6609 111.054 63.6622 111.09 63.6561C111.126 63.65 111.161 63.6365 111.192 63.6166C111.223 63.5966 111.25 63.5706 111.271 63.5401C111.291 63.5095 111.305 63.4751 111.312 63.4389C111.361 63.1917 111.491 62.968 111.683 62.8044C111.874 62.6409 112.115 62.5471 112.367 62.5383C112.455 62.5069 112.53 62.4459 112.578 62.3656C112.626 62.2853 112.644 62.1909 112.63 62.0984C112.616 62.0059 112.571 61.9212 112.501 61.8588C112.431 61.7963 112.342 61.7601 112.249 61.7562C112.095 61.7401 111.94 61.756 111.793 61.8029C111.647 61.8499 111.511 61.9267 111.395 62.0287C110.993 62.4672 110.459 63.6522 110.981 63.6522ZM118.422 61.8273C118.718 61.849 119 61.9573 119.234 62.1385C119.468 62.3198 119.643 62.566 119.738 62.8464C119.764 62.9054 119.81 62.9533 119.867 62.9817C119.925 63.0101 119.991 63.0171 120.054 63.0015C120.116 62.9859 120.171 62.9486 120.209 62.8964C120.246 62.8441 120.264 62.7802 120.259 62.716C120.187 62.2895 119.978 61.8981 119.664 61.6009C119.35 61.3037 118.947 61.1169 118.517 61.0689C118.091 60.9859 117.996 61.768 118.422 61.8273ZM117.463 71.4613C117.339 71.6824 117.152 71.8621 116.927 71.978C116.701 72.0939 116.447 72.1409 116.195 72.1131C115.874 72.1042 115.558 72.0303 115.267 71.8959C114.976 71.7614 114.715 71.5693 114.5 71.331C114.483 71.2896 114.456 71.2535 114.42 71.2264C114.385 71.1993 114.343 71.1822 114.299 71.1769C113.374 71.1058 114.808 72.99 116.254 72.99C116.625 72.9692 116.986 72.8645 117.31 72.6839C117.634 72.5033 117.913 72.2514 118.126 71.9472C118.446 71.5561 117.723 70.9873 117.463 71.4613ZM152.302 104.831C147.775 103.812 119.939 105.814 86.617 106.68C81.7822 106.798 77.9428 110.045 78.5709 114.548C79.0449 117.961 81.6875 118.897 85.041 119.122C86.9133 119.252 145.109 117.428 147.751 117.404C149.989 117.559 152.214 116.967 154.079 115.721C158.108 112.688 157.563 106.051 152.302 104.831ZM80.1469 111.384C80.9764 109.666 82.5999 108.576 85.1121 108.042C87.0081 107.639 144.362 105.601 148.284 105.566C150.868 105.566 153.344 105.506 154.909 107.58C157.03 110.377 155.489 115.875 149.398 116.314C147.585 116.456 85.4084 118.032 85.4084 118.032C84.1477 118.029 82.8998 117.779 81.7349 117.297C79.4834 116.219 79.1752 113.422 80.1469 111.384Z" fill="#15161A"/>
<path d="M96.2392 133.152C96.5792 132.998 96.8946 132.794 97.1753 132.548C97.1753 132.951 97.0687 133.354 97.0213 133.733C96.9502 134.397 98.0048 134.432 98.0522 133.733V132.619C98.4977 133.012 98.9915 133.347 99.5216 133.615C99.6238 133.64 99.7313 133.632 99.8287 133.592C99.9261 133.552 100.008 133.482 100.064 133.393C100.119 133.303 100.144 133.198 100.136 133.094C100.128 132.989 100.087 132.889 100.019 132.809C99.4762 132.344 98.9021 131.916 98.3011 131.529C98.4551 131.399 99.3557 130.616 99.6638 130.344C99.7217 130.287 99.7568 130.211 99.7623 130.13C99.7678 130.049 99.7435 129.969 99.6938 129.904C99.6442 129.84 99.5727 129.796 99.4929 129.781C99.4131 129.766 99.3306 129.781 99.2609 129.823C98.8936 130.095 98.5381 130.344 98.0759 130.605C98.0759 130.095 98.0759 129.526 98.1707 128.957C98.1565 128.885 98.1174 128.819 98.0601 128.772C98.0028 128.725 97.9309 128.699 97.8567 128.699C97.7825 128.699 97.7106 128.725 97.6533 128.772C97.596 128.819 97.5569 128.885 97.5427 128.957C97.5427 129.586 97.4005 130.214 97.3175 130.83L96.1325 130.131C96.0587 130.088 95.971 130.077 95.8888 130.099C95.8065 130.121 95.7365 130.175 95.6941 130.249C95.6516 130.323 95.6403 130.411 95.6625 130.493C95.6847 130.575 95.7387 130.645 95.8126 130.688C96.1697 130.925 96.5102 131.186 96.8317 131.47C96.3988 131.721 96.0004 132.028 95.6467 132.382C95.5445 132.461 95.4778 132.577 95.4611 132.704C95.4444 132.832 95.4792 132.961 95.5578 133.064C95.6364 133.166 95.7523 133.232 95.8801 133.249C96.0079 133.266 96.137 133.231 96.2392 133.152ZM103.717 133.188C104.061 133.034 104.38 132.831 104.665 132.584C104.665 132.986 104.558 133.389 104.51 133.769C104.428 134.432 105.494 134.468 105.53 133.769V132.655C105.982 133.044 106.479 133.378 107.011 133.65C107.485 133.816 107.805 133.212 107.509 132.844C106.962 132.379 106.384 131.951 105.778 131.564L107.141 130.379C107.199 130.323 107.234 130.246 107.24 130.165C107.245 130.084 107.221 130.004 107.171 129.94C107.122 129.876 107.05 129.832 106.97 129.817C106.89 129.802 106.808 129.816 106.738 129.858C106.383 130.131 106.015 130.379 105.553 130.64C105.553 130.131 105.553 129.562 105.648 128.993C105.743 128.424 105.067 128.555 105.02 128.993C105.02 129.621 104.878 130.249 104.795 130.865L103.61 130.166C103.536 130.124 103.448 130.112 103.366 130.135C103.284 130.157 103.214 130.211 103.171 130.285C103.129 130.359 103.118 130.446 103.14 130.528C103.162 130.611 103.216 130.681 103.29 130.723C103.649 130.963 103.993 131.224 104.321 131.505C103.888 131.756 103.489 132.063 103.136 132.418C103.05 132.5 102.998 132.611 102.989 132.729C102.979 132.848 103.014 132.965 103.085 133.06C103.157 133.155 103.26 133.22 103.377 133.244C103.493 133.267 103.614 133.247 103.717 133.188ZM110.649 133.223C110.991 133.067 111.31 132.864 111.597 132.619C111.597 133.022 111.478 133.425 111.443 133.804C111.36 134.468 112.414 134.503 112.462 133.804V132.69C112.909 133.08 113.403 133.415 113.931 133.686C114.033 133.711 114.141 133.703 114.238 133.663C114.336 133.623 114.418 133.553 114.473 133.464C114.529 133.374 114.554 133.27 114.546 133.165C114.538 133.06 114.497 132.96 114.429 132.88C113.886 132.415 113.312 131.987 112.711 131.6C112.865 131.47 113.765 130.688 114.073 130.415C114.382 130.142 113.99 129.657 113.671 129.894C113.351 130.131 112.9 130.439 112.486 130.688C112.486 130.166 112.486 129.597 112.58 129.029C112.675 128.46 112 128.602 111.952 129.029C111.952 129.657 111.81 130.285 111.727 130.901L110.542 130.202C110.468 130.159 110.381 130.148 110.298 130.17C110.216 130.192 110.146 130.246 110.104 130.32C110.061 130.394 110.05 130.482 110.072 130.564C110.094 130.646 110.148 130.716 110.222 130.759C110.579 130.996 110.92 131.257 111.241 131.541C110.811 131.796 110.413 132.102 110.056 132.453C109.954 132.532 109.887 132.648 109.871 132.776C109.854 132.903 109.889 133.032 109.967 133.135C110.046 133.237 110.162 133.304 110.29 133.32C110.417 133.337 110.547 133.302 110.649 133.223ZM118.256 133.152C118.6 132.999 118.92 132.795 119.204 132.548C119.204 132.951 119.098 133.354 119.05 133.733C118.967 134.397 120.022 134.432 120.07 133.733V132.619C120.522 133.009 121.019 133.343 121.551 133.615C122.025 133.78 122.345 133.176 122.037 132.809C121.498 132.338 120.924 131.91 120.318 131.529L121.681 130.344C121.739 130.287 121.774 130.211 121.78 130.13C121.785 130.049 121.761 129.969 121.711 129.904C121.661 129.84 121.59 129.796 121.51 129.781C121.43 129.766 121.348 129.781 121.278 129.823C120.899 130.107 120.504 130.368 120.093 130.605C120.093 130.095 120.093 129.526 120.188 128.957C120.283 128.389 119.607 128.519 119.56 128.957C119.501 129.586 119.418 130.237 119.335 130.83L118.15 130.131C118.076 130.088 117.988 130.077 117.906 130.099C117.824 130.121 117.754 130.175 117.711 130.249C117.669 130.323 117.658 130.411 117.68 130.493C117.702 130.575 117.756 130.645 117.83 130.688C118.187 130.925 118.528 131.186 118.849 131.47C118.417 131.723 118.019 132.029 117.664 132.382C117.562 132.461 117.495 132.577 117.478 132.704C117.462 132.832 117.497 132.961 117.575 133.064C117.654 133.166 117.77 133.232 117.897 133.249C118.025 133.266 118.154 133.231 118.256 133.152ZM125.189 133.449C125.531 133.292 125.85 133.089 126.137 132.844C126.137 133.247 126.018 133.65 125.983 134.029C125.9 134.681 126.954 134.728 127.002 134.029V132.927C127.452 133.314 127.945 133.647 128.471 133.923C128.573 133.948 128.681 133.94 128.778 133.9C128.876 133.86 128.958 133.79 129.013 133.701C129.068 133.611 129.094 133.507 129.086 133.402C129.078 133.297 129.037 133.197 128.969 133.117C128.427 132.646 127.853 132.215 127.251 131.825L128.613 130.64C128.921 130.379 128.542 129.87 128.21 130.119C127.879 130.368 127.488 130.628 127.025 130.901C127.025 130.391 127.025 129.823 127.12 129.242C127.106 129.169 127.067 129.103 127.01 129.056C126.952 129.009 126.88 128.983 126.806 128.983C126.732 128.983 126.66 129.009 126.603 129.056C126.546 129.103 126.506 129.169 126.492 129.242C126.492 129.87 126.35 130.498 126.267 131.114L125.082 130.415C125.011 130.387 124.933 130.386 124.861 130.41C124.789 130.435 124.728 130.485 124.689 130.551C124.651 130.617 124.637 130.694 124.65 130.769C124.664 130.844 124.703 130.912 124.762 130.96C125.119 131.202 125.46 131.467 125.781 131.754C125.349 132.003 124.951 132.305 124.596 132.655C124.544 132.694 124.5 132.742 124.467 132.798C124.434 132.854 124.412 132.916 124.402 132.98C124.393 133.045 124.396 133.11 124.412 133.173C124.428 133.236 124.457 133.296 124.495 133.348C124.534 133.4 124.583 133.444 124.639 133.477C124.695 133.511 124.757 133.532 124.821 133.542C124.886 133.551 124.951 133.548 125.014 133.532C125.077 133.516 125.137 133.488 125.189 133.449ZM132.37 133.152C132.712 132.996 133.031 132.792 133.318 132.548C133.259 132.951 133.199 133.354 133.164 133.733C133.081 134.397 134.135 134.432 134.183 133.733V132.619C134.63 133.009 135.124 133.344 135.652 133.615C135.754 133.64 135.862 133.632 135.959 133.592C136.057 133.552 136.139 133.482 136.194 133.393C136.25 133.303 136.275 133.198 136.267 133.094C136.259 132.989 136.218 132.889 136.15 132.809C135.61 132.34 135.036 131.912 134.432 131.529C134.586 131.399 135.486 130.616 135.794 130.344C135.852 130.287 135.887 130.211 135.893 130.13C135.898 130.049 135.874 129.969 135.824 129.904C135.775 129.84 135.703 129.796 135.624 129.781C135.544 129.766 135.461 129.781 135.392 129.823C135.036 130.095 134.669 130.344 134.207 130.605C134.207 130.107 134.207 129.538 134.301 128.957C134.396 128.377 133.721 128.519 133.673 128.957C133.673 129.574 133.531 130.142 133.448 130.83L132.263 130.131C132.189 130.088 132.102 130.077 132.019 130.099C131.937 130.121 131.867 130.175 131.825 130.249C131.782 130.323 131.771 130.411 131.793 130.493C131.815 130.575 131.869 130.645 131.943 130.688C132.3 130.925 132.641 131.186 132.962 131.47C132.53 131.723 132.132 132.029 131.777 132.382C131.675 132.461 131.608 132.577 131.592 132.704C131.575 132.832 131.61 132.961 131.688 133.064C131.767 133.166 131.883 133.232 132.011 133.249C132.139 133.266 132.268 133.231 132.37 133.152ZM171.783 155.324C171.812 155.262 171.816 155.192 171.793 155.128C171.771 155.064 171.725 155.011 171.664 154.98C171.427 154.862 171.321 155.122 171.226 155.288C168.287 160.656 165.064 168.24 164.033 173.881C162.943 180.671 163.903 176.879 161.189 188.101C161.18 188.136 161.179 188.172 161.186 188.207C161.193 188.242 161.208 188.275 161.23 188.304C161.251 188.332 161.279 188.355 161.311 188.371C161.343 188.388 161.378 188.396 161.414 188.397C161.639 188.397 161.675 188.302 162.374 185.956C166.735 171.321 162.433 176.346 171.783 155.324ZM143.639 193.102C140.973 195.175 139.409 198.47 138.721 203.494C138.715 203.528 138.716 203.563 138.723 203.597C138.73 203.631 138.744 203.664 138.764 203.692C138.784 203.721 138.809 203.745 138.839 203.764C138.868 203.783 138.9 203.796 138.935 203.802C138.969 203.808 139.004 203.808 139.038 203.8C139.072 203.793 139.104 203.779 139.133 203.759C139.162 203.739 139.186 203.714 139.205 203.685C139.224 203.656 139.237 203.623 139.243 203.589C140.191 197.581 143.983 191.739 150.18 192.142C150.25 192.151 150.32 192.133 150.375 192.09C150.431 192.048 150.467 191.986 150.477 191.917C150.486 191.847 150.468 191.777 150.425 191.722C150.383 191.666 150.321 191.63 150.251 191.62C149.111 191.324 147.916 191.304 146.766 191.562C145.616 191.819 144.544 192.347 143.639 193.102Z" fill="#FF7E1F"/>
<path d="M141.85 111.965C138.864 111.882 139.373 111.965 138.662 111.965C138.022 111.965 138.034 110.981 138.698 111.041C140.926 110.91 143.13 111.467 145.31 111.372C145.389 111.372 145.464 111.404 145.52 111.459C145.575 111.515 145.606 111.59 145.606 111.669C145.606 111.747 145.575 111.823 145.52 111.878C145.464 111.934 145.389 111.965 145.31 111.965H141.85Z" fill="#15161A"/>
<path d="M134.55 111.882C132.856 112 121.349 112.688 119.998 112.593C119.939 112.591 119.881 112.578 119.827 112.554C119.773 112.53 119.724 112.496 119.683 112.453C119.643 112.41 119.611 112.359 119.59 112.304C119.569 112.249 119.558 112.19 119.56 112.131C119.562 112.072 119.575 112.013 119.599 111.959C119.623 111.905 119.657 111.857 119.7 111.816C119.743 111.775 119.794 111.743 119.849 111.722C119.904 111.701 119.963 111.691 120.022 111.692C120.781 111.609 133.65 111.278 134.55 111.278C134.62 111.292 134.683 111.329 134.728 111.384C134.773 111.439 134.798 111.509 134.798 111.58C134.798 111.651 134.773 111.72 134.728 111.775C134.683 111.83 134.62 111.868 134.55 111.882Z" fill="#15161A"/>
<path d="M115.33 112.332C114.204 112.392 111.857 112.735 111.04 112.735C110.9 112.732 110.767 112.673 110.67 112.572C110.574 112.471 110.521 112.336 110.524 112.196C110.527 112.056 110.586 111.923 110.687 111.827C110.737 111.779 110.796 111.741 110.861 111.716C110.925 111.691 110.994 111.679 111.064 111.681H115.33C115.405 111.695 115.474 111.736 115.523 111.795C115.572 111.854 115.599 111.929 115.599 112.006C115.599 112.084 115.572 112.158 115.523 112.218C115.474 112.277 115.405 112.318 115.33 112.332Z" fill="#15161A"/>
<path d="M100.553 113.031C98.1589 113.174 88.3234 113.778 86.4037 113.707C86.2811 113.707 86.1636 113.658 86.0769 113.572C85.9902 113.485 85.9415 113.367 85.9415 113.245C85.9415 113.122 85.9902 113.005 86.0769 112.918C86.1636 112.831 86.2811 112.783 86.4037 112.783C87.802 112.7 102.911 112.095 105.494 112.095C105.551 112.098 105.606 112.115 105.655 112.145C105.703 112.175 105.743 112.217 105.77 112.267C105.798 112.317 105.812 112.374 105.811 112.431C105.811 112.488 105.795 112.544 105.767 112.593C105.648 112.818 105.909 112.711 100.553 113.031Z" fill="#15161A"/>
<path d="M190.956 6.66549C190.418 6.591 189.871 6.591 189.333 6.66549C36.3138 31.9652 36.2663 31.3016 33.5053 32.4274C28.4809 34.4893 29.4526 41.0186 29.4052 45.8771C29.4052 49.918 28.3268 159.234 28.3268 159.234C28.3268 163.133 28.232 167.991 32.2966 169.899C34.9865 171.203 41.3737 171.226 53.2118 171.594C55.3211 187.532 59.0065 184.155 55.3567 214.728C55.013 217.678 55.5344 218.283 58.0229 219.349C58.1737 220.568 58.3873 221.779 58.6628 222.975C58.3875 223.831 58.33 224.742 58.4956 225.626C58.6611 226.509 59.0444 227.337 59.6108 228.035C59.9782 228.462 70.2758 225.831 71.3186 225.464C71.3521 225.454 71.3815 225.434 71.4028 225.406C71.4241 225.378 71.4361 225.345 71.4371 225.31C71.6267 223.426 69.8729 223.615 68.0717 223.319C67.1952 223.155 66.3431 222.88 65.5358 222.501V220.345C66.1721 220.323 66.7839 220.095 67.2778 219.693C67.8703 219.112 69.1264 213.566 69.3278 212.583C70.8655 205.288 71.8597 197.889 72.3022 190.447C74.9921 193.694 75.3239 195.27 76.3193 199.927C78.2035 208.874 77.9902 206.658 79.424 221.755C79.4619 222.19 79.6529 222.598 79.9631 222.907C80.2734 223.215 80.6828 223.403 81.1186 223.438C81.2489 223.947 81.6992 226.554 81.8177 226.993C81.4776 228.737 81.8122 230.545 82.7539 232.053C83.0857 232.444 93.49 229.837 94.4735 229.481C94.7342 229.386 94.592 228.604 94.4024 228.296C93.6796 227.111 91.7836 227.929 88.8092 226.59C88.6571 225.374 88.7539 224.14 89.0936 222.964C90.9778 222.383 91.4636 221.779 91.8665 219.811C95.4215 203.968 96.7724 196.585 88.039 174.426C96.4762 174.995 135.794 177.377 139.978 177.507C140.185 178.152 140.355 178.809 140.487 179.474C141.565 184.273 142.691 184.854 145.168 185.873C148.009 186.999 150.502 188.855 152.396 191.253C150.417 190.423 150.026 188.231 144.741 187.994C143.272 187.923 142.371 189.013 140.783 190.364C138.496 192.26 138.058 192.734 137.039 195.033C134.29 201.254 133.804 207.523 135.984 212.808C136.814 215.368 138.615 215.901 140.167 213.602C141.447 211.706 141.091 209.455 142.087 207.523C143.809 204.264 145.961 201.25 148.486 198.564C150.145 196.503 150.323 192.639 153.332 192.426C155.615 195.718 157.437 199.306 158.748 203.091V203.921C157.196 203.921 146.353 204.027 146.092 204.134C145.429 204.406 145.606 205.106 145.654 206.255C145.796 209.431 145.44 208.981 148.308 209.17C148.498 210.948 149.339 217.145 149.659 218.757C150.263 221.861 151.14 225.369 154.209 226.85C157.279 228.332 161.319 228.948 164.471 227.502C169.543 225.132 170.136 218.709 171.107 210.58C171.344 208.625 171.285 208.826 171.404 208.826C172.968 208.909 174.058 208.827 174.248 208.376C174.3 207.052 174.264 205.726 174.141 204.406C174.138 204.292 174.09 204.184 174.009 204.104C173.927 204.024 173.817 203.98 173.703 203.98C171.392 203.98 162.161 203.897 159.85 203.909C159.85 203.423 159.945 201.882 160.075 201.053C160.739 200.465 161.515 200.017 162.355 199.734C163.196 199.451 164.085 199.339 164.969 199.406C168.24 199.512 170.574 201.219 173.632 202.321C175.738 202.854 177.588 204.113 178.857 205.876C179.623 206.961 180.645 207.84 181.832 208.435C182.265 208.614 182.741 208.666 183.203 208.584C183.664 208.502 184.093 208.29 184.439 207.973C184.759 207.563 184.943 207.063 184.966 206.542C184.99 206.022 184.851 205.508 184.569 205.07C183.556 203.158 182.432 201.306 181.204 199.524C178.087 194.784 176.12 193.801 172.103 192.296C171.559 192.06 170.996 191.87 170.42 191.727C168.785 191.407 164.495 192.462 162.125 194.725C166.296 187.947 170.716 189.63 173.122 185.707C173.999 184.167 173.454 183.918 175.101 180.173C176.428 180.28 184.178 180.837 185.517 180.837C191.324 180.837 194.796 177.993 194.997 172.364V11.0737C195.015 9.96154 194.606 8.88479 193.855 8.06486C193.103 7.24493 192.066 6.74414 190.956 6.66549ZM149.221 195.436C147.088 200.46 146.353 198.327 141.435 207.013C140.369 208.886 140.689 211.137 139.669 212.938C139.528 213.239 139.327 213.507 139.078 213.727C138.83 213.947 138.539 214.114 138.224 214.218C137.311 214.349 136.754 212.512 136.458 211.611C134.957 206.89 135.192 201.788 137.122 197.225C138.556 193.457 138.662 193.279 140.831 191.466C143.45 189.298 143.473 188.705 145.298 188.93C149.896 189.404 149.837 191.17 152.041 191.94C150.685 192.698 149.674 193.951 149.221 195.436ZM42.7364 170.385C36.5389 170.113 34.0859 169.887 32.3321 168.892C31.6036 168.459 30.9788 167.872 30.5018 167.172C30.0247 166.472 29.707 165.676 29.5711 164.839C28.8364 161.284 29.5711 158.914 30.3769 43.3412C35.0102 42.7369 38.3401 41.9311 42.9142 41.1371C42.7957 58.4855 42.6061 163.37 42.7364 170.385ZM46.7891 170.527L43.6607 170.421C43.7555 166.119 43.7674 105.435 43.7674 104.262H46.801C46.801 122.037 46.6706 164.875 46.7891 170.527ZM46.8602 75.5021H43.7555C43.7555 74.957 43.7555 48.7804 43.6726 41.1371L47.0261 40.8409C46.8958 52.6672 46.8839 64.8371 46.8602 75.5021ZM64.6352 222.442C62.9475 222.835 61.192 222.835 59.5042 222.442C59.229 221.542 59.0424 220.617 58.9472 219.681C60.8518 220.326 62.8686 220.572 64.8722 220.404C64.7537 221.02 64.6589 222.075 64.6234 222.442H64.6352ZM87.8612 226.471C86.1579 226.868 84.3861 226.868 82.6828 226.471C82.4449 225.535 82.2628 224.585 82.1377 223.627C84.1632 223.838 86.2096 223.709 88.193 223.248C87.9546 224.305 87.8392 225.387 87.8494 226.471H87.8612ZM89.2121 180.078C94.6868 194.986 94.8883 203.387 90.7645 220.368C90.5275 221.352 90.3142 221.459 90.1364 221.553C87.2854 222.775 84.1224 223.069 81.0949 222.395C80.9076 222.364 80.7377 222.266 80.616 222.121C80.4942 221.975 80.4287 221.791 80.4313 221.601C79.6255 210.343 79.4122 209.099 76.6037 196.929C75.7624 192.059 73.1317 189.949 70.3114 186.454C67.1346 182.47 64.4932 178.088 62.4548 173.419C62.3126 173.099 61.8031 173.288 61.9453 173.608C64.2192 179.424 67.4605 184.812 71.5319 189.547C70.8328 198.493 70.501 205.39 67.1593 217.987C66.9341 219.314 66.1165 219.42 64.7063 219.503C62.3896 219.714 60.0586 219.305 57.9518 218.318C56.0084 217.536 56.1388 216.659 56.3521 214.763C58.5799 194.689 58.8406 193.113 55.9136 180.138C54.4561 173.62 52.9393 166.901 54.6575 160.419C62.5141 164.816 73.2265 165.882 80.7275 159.993C83.8881 166.541 86.7159 173.245 89.2003 180.078H89.2121ZM53.2829 146.057C51.6639 144.976 50.4704 143.367 49.9062 141.504C49.3421 139.641 49.4425 137.64 50.1901 135.842C51.2044 136.511 52.2703 137.097 53.3777 137.596C53.4008 137.608 53.4261 137.614 53.4518 137.613C53.4775 137.613 53.5028 137.607 53.5258 137.596C53.5488 137.584 53.5688 137.568 53.5842 137.547C53.5996 137.527 53.6101 137.503 53.6147 137.478C54.1361 135.202 56.5654 128.614 58.6628 126.706C59.1605 126.161 59.5753 126.09 59.753 126.256C60.6655 127.085 57.383 128.389 56.198 133.923C56.044 134.456 53.4962 145.038 53.2829 146.057ZM64.8011 111.443C64.4163 111.633 63.9822 111.7 63.5581 111.634C63.1339 111.569 62.7404 111.373 62.4311 111.076C62.1346 110.784 61.9452 110.401 61.8936 109.988C61.842 109.575 61.9312 109.157 62.1467 108.801C62.7629 108.019 65.0737 107.983 66.4364 110.045C66.4585 110.07 66.486 110.089 66.5169 110.102C66.5478 110.114 66.5811 110.119 66.6142 110.116C67.6096 109.95 68.0836 109.026 67.8821 108.848C67.1713 108.279 66.6395 107.516 66.3505 106.653C66.0615 105.789 66.0275 104.86 66.2525 103.978C66.4775 103.095 66.9521 102.296 67.6194 101.676C68.2866 101.056 69.1184 100.642 70.0151 100.482C73.5701 105.767 73.3687 106.916 74.7551 107.379C75.4306 107.604 75.1817 107.924 74.6722 109.239C73.4872 109.239 70.2521 109.452 69.8374 110.128C69.233 111.088 69.7189 112.996 71.5675 114.524C71.5963 114.547 71.6314 114.561 71.6682 114.563C71.7049 114.565 71.7414 114.556 71.7727 114.536C71.8039 114.517 71.8283 114.488 71.8425 114.454C71.8566 114.42 71.8599 114.382 71.8519 114.346C71.6309 113.402 71.5117 112.437 71.4964 111.467C72.2666 111.301 73.6768 111.135 74.4589 111.04C74.5017 111.537 74.5017 112.037 74.4589 112.533C73.5583 112.841 73.3805 112.462 73.2739 112.225C73.234 112.166 73.1745 112.122 73.1058 112.102C73.0371 112.081 72.9634 112.085 72.8974 112.113C72.8314 112.141 72.7773 112.192 72.7444 112.255C72.7114 112.319 72.7017 112.392 72.7169 112.462C72.7991 112.794 72.9944 113.087 73.269 113.29C73.5437 113.493 73.8807 113.594 74.2219 113.576C73.736 114.903 72.6458 115.685 71.1527 117.131C70.488 116.673 69.6798 116.471 68.8775 116.562C66.9912 117.106 65.1555 117.811 63.391 118.672C63.154 118.044 62.3482 115.958 62.206 115.33C63.5967 114.528 64.6367 113.234 65.1211 111.704C65.1557 111.661 65.172 111.607 65.1664 111.553C65.1609 111.498 65.1339 111.448 65.0915 111.414C65.049 111.379 64.9946 111.363 64.9402 111.368C64.8857 111.374 64.8357 111.401 64.8011 111.443ZM157.978 166.747C157.771 165.371 157.372 164.031 156.793 162.766C154.6 157.623 152.053 156.841 146.282 154.968C140.771 153.155 141.779 151.947 136.031 151.342C133.318 151.07 130.426 150.75 127.796 151.615V147.55C127.792 147.157 127.705 146.77 127.541 146.412C127.378 146.055 127.141 145.736 126.845 145.477C126.55 145.218 126.204 145.023 125.828 144.907C125.453 144.79 125.058 144.754 124.667 144.801H102.591C102.091 144.827 101.61 145.002 101.211 145.304C100.811 145.606 100.512 146.021 100.351 146.495C97.3768 144.126 91.4873 139.551 89.4728 137.999C99.0476 137.999 148.616 137.537 148.616 137.537C157.136 136.79 158.096 128.353 152.977 126.113C150.87 125.368 148.624 125.097 146.4 125.32C146.4 125.32 93.4663 126.244 84.9817 126.505C84.3212 125.154 83.5731 123.847 82.742 122.594C80.5261 120.224 77.1133 118.861 72.5747 118.66C72.3486 118.299 72.0822 117.965 71.7808 117.664C73.1033 116.593 74.1717 115.241 74.9092 113.707C75.0966 112.779 75.1722 111.832 75.1343 110.886C75.2619 110.826 75.372 110.735 75.4545 110.621C75.5369 110.506 75.5889 110.373 75.6055 110.233C75.6221 110.093 75.6027 109.951 75.5494 109.821C75.4959 109.691 75.4102 109.576 75.3002 109.488C75.5609 108.824 76.0231 107.758 75.6202 107.118C75.5226 106.972 75.3904 106.852 75.2353 106.769C75.0803 106.687 74.9072 106.644 74.7314 106.644C74.1034 106.454 72.1718 102.544 70.5484 100.198C72.2785 98.5267 71.9111 96.7018 69.9677 96.05C67.6688 95.1139 65.0618 96.2041 63.4147 97.0454C62.8933 83.252 62.3837 52.3709 62.3956 51.9443C62.3342 50.2209 62.5584 48.4991 63.0592 46.8488C63.3572 45.912 63.8837 45.064 64.5912 44.3813C65.2987 43.6986 66.165 43.2027 67.1119 42.9383C69.2567 42.3221 164.045 27.8533 164.969 27.7348C167.122 27.2783 169.346 27.2783 171.499 27.7348C172.423 27.9597 173.266 28.4365 173.936 29.1122C174.605 29.788 175.074 30.6361 175.291 31.5623C175.454 32.4573 175.53 33.3662 175.516 34.276C175.516 34.276 175.883 136.624 175.883 143.083C167.718 148.948 163.701 158.31 161.758 166.937C161.082 166.901 159.85 166.854 157.978 166.747ZM161.533 167.754C159.708 176.429 162.137 171.049 158.155 168.679V167.719C159.044 167.79 160.62 167.814 161.509 167.802L161.533 167.754ZM134.159 163.796C134.302 164.553 134.5 165.297 134.752 166.024C130.343 165.775 84.8276 164.188 83.7967 164.152C83.0975 162.576 82.3273 160.952 81.5096 159.317C82.0762 158.842 82.5924 158.31 83.0501 157.729C82.8368 155.122 82.7539 146.294 82.8131 144.031C84.9106 145.216 91.985 148.948 94.9238 150.133C96.8425 150.806 98.6484 151.765 100.28 152.977C100.28 155.881 100.138 156.26 100.873 156.852C101.607 157.445 100.019 157.196 121.124 157.196C118.754 161.166 120.378 164.105 123.802 164.555C126.634 164.91 129.052 163.536 131.398 162.185C134.743 160.069 138.654 159.023 142.608 159.187C144.078 159.862 146.886 161.557 147.455 162.92C147.846 163.856 147.538 164.294 148.13 165.29C148.521 165.929 148.853 165.953 149.434 166.593C143.07 166.451 143.805 166.593 143.509 166.238C141.506 163.986 139.432 161.663 136.126 161.604C134.491 161.557 133.744 162.197 134.159 163.796ZM90.0772 136.542C89.5913 135.534 87.3754 131.067 85.4912 127.429C101.216 127.061 148.557 126.244 148.557 126.244C150.607 126.244 152.882 126.564 154.257 128.199C154.786 128.937 155.087 129.815 155.123 130.723C155.159 131.63 154.928 132.529 154.458 133.306C152.621 136.565 148.533 136.719 144.812 136.601L89.5558 137.134C89.935 136.897 90.1838 136.779 90.089 136.589L90.0772 136.542ZM88.2641 138.046C106.963 152.812 100.327 147.1 101.69 148.439C101.809 148.557 101.797 148.557 103.823 147.42C104.913 146.804 105.447 146.436 105.672 146.673C106.181 147.242 104.119 148.226 104.487 149.174C104.89 150.359 107.343 150.442 108.314 151.176C108.376 151.222 108.421 151.287 108.443 151.36C108.465 151.434 108.462 151.513 108.436 151.585C108.409 151.657 108.36 151.719 108.295 151.76C108.23 151.802 108.154 151.822 108.077 151.816C106.4 151.666 104.755 151.267 103.195 150.631C103.166 150.615 103.133 150.605 103.1 150.601C103.066 150.598 103.033 150.601 103.001 150.611C102.968 150.621 102.939 150.637 102.913 150.659C102.887 150.681 102.866 150.708 102.851 150.738C102.721 151.01 103.029 151.105 103.29 151.247C104.805 151.967 106.425 152.439 108.089 152.646C109.274 152.812 108.634 153.677 107.663 153.475C106.123 153.186 104.6 152.814 103.1 152.361C103.046 152.338 102.985 152.336 102.929 152.355C102.874 152.375 102.827 152.414 102.799 152.466C102.771 152.518 102.763 152.579 102.777 152.636C102.791 152.693 102.826 152.743 102.875 152.776C103.266 152.989 105.15 153.416 106.501 153.771C106.561 153.789 106.614 153.824 106.652 153.873C106.69 153.922 106.712 153.982 106.715 154.044C106.714 154.107 106.693 154.167 106.654 154.216C106.616 154.266 106.562 154.301 106.501 154.316C106.176 154.4 105.84 154.428 105.506 154.399C104.121 154.05 102.784 153.532 101.524 152.859C99.6071 151.341 97.4586 150.141 95.1608 149.304C92.3405 148.119 84.3181 144.019 82.7894 143.106C82.7894 142.395 82.8605 141.684 82.9198 140.997C84.0692 140.464 87.3991 138.651 88.276 138.094L88.2641 138.046ZM109.772 149.102C109.857 149 109.98 148.935 110.113 148.921C110.246 148.908 110.379 148.948 110.483 149.031C111.541 150.031 112.505 151.126 113.362 152.302C114.447 150.009 116.349 148.205 118.695 147.242C118.802 147.204 118.92 147.205 119.026 147.247C119.132 147.288 119.22 147.366 119.273 147.467C119.327 147.568 119.342 147.684 119.316 147.795C119.29 147.906 119.225 148.004 119.133 148.072C116.856 149.397 115.135 151.502 114.287 153.997C114.239 154.145 114.146 154.274 114.02 154.365C113.894 154.457 113.743 154.506 113.588 154.506C113.114 154.506 112.971 154.198 112.58 153.7C109.547 149.873 109.547 149.482 109.784 149.15L109.772 149.102ZM150.062 167.494C150.702 168.736 151.142 170.072 151.365 171.452C147.514 170.184 146.199 169.082 144.504 167.316L150.062 167.494ZM147.052 158.12C139.504 158.417 137.086 157.729 130.853 161.296C129.348 162.268 127.695 162.988 125.959 163.429C123.767 163.856 121.219 163.263 120.97 161C120.603 157.848 124.324 154.399 127.132 152.894C129.738 152.067 132.5 151.852 135.202 152.266C137.44 152.286 139.636 152.882 141.577 153.997C135.996 153.937 131.659 155.11 128.353 157.552C128.311 157.599 128.288 157.66 128.288 157.723C128.288 157.787 128.311 157.848 128.353 157.895C128.827 158.594 129.609 155.644 140.345 154.945C144.673 155.067 148.898 156.29 152.621 158.5C150.815 158.038 148.937 157.926 147.088 158.168L147.052 158.12ZM70.027 128.697C70.4062 130.166 76.1179 141.353 77.137 143.118C78.1324 142.621 79.3411 141.992 80.692 141.376C80.8056 141.324 80.9347 141.317 81.0536 141.355C81.1726 141.394 81.2726 141.476 81.3338 141.585C81.3951 141.694 81.413 141.822 81.3841 141.944C81.3552 142.065 81.2816 142.172 81.1778 142.241C77.6228 144.434 77.1014 144.789 76.4378 144.303C75.7742 143.817 69.8374 131.458 69.3278 128.898C69.3332 128.819 69.364 128.744 69.4156 128.684C69.4671 128.624 69.5367 128.582 69.614 128.565C69.6913 128.547 69.7721 128.556 69.8444 128.588C69.9167 128.62 69.9766 128.675 70.0151 128.744L70.027 128.697ZM64.493 120.402C64.547 119.791 64.7461 119.202 65.0737 118.684C67.5029 117.747 69.6952 116.183 71.4134 118.399C68.5457 118.162 67.894 119.584 64.4812 120.532L64.493 120.402ZM63.6398 120.615C63.1895 120.722 62.68 120.817 62.123 120.899C61.9571 120.058 61.9927 120.011 62.5852 119.714C64.7774 118.968 63.7109 118.885 63.628 120.71L63.6398 120.615ZM87.7072 173.585C86.5222 170.764 85.3372 167.66 84.1522 164.946C90.6815 165.242 131.339 166.937 135.107 166.96C136.411 170.326 138.449 173.324 139.705 176.677C133.922 176.227 91.6414 173.857 87.7072 173.585ZM153.404 225.179C150.169 222.193 150.014 214.858 149.351 210.877H152.823C152.823 214.633 153.546 223.165 155.027 226.163C154.432 225.933 153.883 225.6 153.404 225.179ZM156.176 226.59C155.279 224.938 154.715 223.126 154.517 221.257C154.103 218.994 153.569 212.405 153.51 210.877H157.859C157.859 212.192 158.629 225.997 159.163 227.277C158.148 227.14 157.149 226.91 156.176 226.59ZM160.075 227.348C159.75 226.601 159.584 225.793 159.589 224.978C159.459 223.793 158.677 212.737 158.582 210.877H165.289C165.135 216.162 165.017 222.193 162.919 227.064C161.991 227.3 161.032 227.396 160.075 227.348ZM168.761 219.93C167.861 223.485 166.273 225.76 164.021 226.72C165.799 221.696 165.965 215.925 165.953 210.865H170.171C169.963 213.921 169.491 216.954 168.761 219.93ZM173.264 204.845C173.347 205.805 173.347 206.776 173.43 207.748C173.43 207.985 173.43 207.985 173.371 208.033C173.312 208.08 146.59 208.376 146.483 208.27C146.425 207.141 146.425 206.009 146.483 204.88C146.566 204.857 170.645 204.798 173.264 204.845ZM158.949 201.444C156.082 191.217 155.063 183.1 143.817 174.746C143.79 174.725 143.759 174.709 143.725 174.7C143.692 174.691 143.658 174.689 143.623 174.694C143.555 174.702 143.492 174.738 143.45 174.793C143.407 174.848 143.388 174.918 143.397 174.987C143.406 175.056 143.442 175.118 143.497 175.161C149.971 180.252 154.487 187.422 156.283 195.46C153.107 189.641 149.481 186.691 145.618 185.067C142.513 183.776 142.312 182.911 141.459 179.332C139.752 172.222 135.984 168.809 135.083 163.275C135.083 162.86 135.083 162.754 135.238 162.683C140.771 161.711 143.177 169.082 147.87 170.978C149.398 171.748 152.254 172.755 153.629 174.817C154.245 175.741 156.094 179.806 159.933 197.593C159.481 198.841 159.155 200.131 158.961 201.444H158.949ZM163.381 194.832C165.163 193.595 167.223 192.818 169.377 192.568C170.483 192.613 171.568 192.883 172.565 193.362C177.838 194.749 180.742 199.821 183.23 204.3C184.202 206.006 184.332 206.67 183.787 207.298C183.431 207.571 182.991 207.711 182.543 207.694C182.095 207.676 181.667 207.503 181.334 207.203C180.542 206.595 179.833 205.886 179.225 205.094C177.281 202.819 176.665 202.534 174.568 201.859C169.591 200.259 164.483 196.668 160.17 199.892C160.331 198.872 160.701 197.897 161.255 197.027C161.81 196.156 162.538 195.409 163.393 194.832H163.381ZM160.49 195.851C159.893 190.971 159.809 186.042 160.241 181.145C161.71 166.925 164.898 151.093 177.72 142.976C177.222 160.68 167.339 179.225 160.502 195.851H160.49ZM175.812 159.779C175.741 162.896 175.883 164.46 175.16 165.704C174.988 166.013 174.754 166.284 174.473 166.498C174.191 166.712 173.869 166.865 173.525 166.949C174.354 164.579 175.136 162.185 175.824 159.779H175.812ZM175.634 179.178C176.511 177.886 178.265 176.808 182.543 177.59C183.242 177.732 186.24 178.905 187.46 179.284C185.28 180.161 184 179.628 175.634 179.178ZM189.7 177.412C189.428 177.857 189.088 178.257 188.693 178.597C186.904 178.941 183.669 175.291 175.658 176.879C174.731 177 173.834 177.293 173.015 177.744C171.816 178.41 170.45 178.714 169.081 178.621C175.385 169.852 188.337 171.333 189.629 176.251C189.749 176.626 189.773 177.025 189.7 177.412ZM190.482 175.528C188.574 170.421 177.222 168.845 170.053 176.156C171.096 173.561 172.174 170.8 173.181 167.968C175.373 167.968 176.63 165.598 176.677 163.488C176.76 162.446 176.843 158.44 176.748 156.378C178.004 151.742 178.649 146.962 178.668 142.158C178.661 142.069 178.631 141.982 178.582 141.908C178.532 141.833 178.464 141.772 178.383 141.732C178.111 141.601 177.921 141.732 176.653 142.573C176.748 129.183 176.547 35.4017 176.547 35.0462C176.684 33.2672 176.4 31.4809 175.717 29.8322C173.738 26.0047 168.737 26.2061 165.147 26.6801C160.3 27.3319 71.5319 41.1134 71.1053 41.1608C67.4792 41.6348 63.7228 42.1207 62.1586 46.2563C61.5552 48.1176 61.2942 50.0729 61.3883 52.0273C61.3883 52.0273 62.2534 84.9821 62.6444 97.4602C55.4515 100.849 54.8471 109.926 61.3409 115.235C61.6985 116.477 62.142 117.693 62.6681 118.873C61.1987 119.525 61.0802 119.572 61.3646 121.243C55.7648 123.896 51.2435 128.388 48.5548 133.97C48.5382 133.999 48.5294 134.032 48.5294 134.065C48.5294 134.098 48.5382 134.131 48.5548 134.16C48.8654 134.575 49.2018 134.971 49.562 135.345C48.5748 137.409 48.3768 139.763 49.0055 141.964C49.6342 144.164 51.046 146.058 52.9748 147.289C52.7378 148.818 51.6002 155.016 50.9722 157.741C50.9586 157.769 50.9515 157.799 50.9515 157.83C50.9515 157.861 50.9586 157.891 50.9722 157.919C51.8397 158.699 52.7802 159.393 53.7806 159.993C52.782 163.504 52.5277 167.185 53.0341 170.8L47.6305 170.61C47.7608 163.891 47.7134 49.8113 47.6305 40.7224C49.2421 40.4735 181.725 19.9493 191.418 18.397C191.525 28.1021 191.146 172.862 190.482 175.469V175.528ZM191.596 17.603C186.264 18.4207 36.5033 41.4571 30.3532 42.488C30.211 37.8547 30.6257 33.3161 36.5626 32.6762C38.3519 32.3207 180.777 9.10659 181.133 9.04734C183.728 8.58519 190.897 7.19874 191.347 9.74649C191.466 10.4338 191.596 15.3515 191.596 17.5438V17.603Z" fill="#15161A"/>
</svg>
