<svg width="214" height="225" viewBox="0 0 214 225" fill="none" xmlns="http://www.w3.org/2000/svg">
<path d="M121.615 219.53C121.342 219.211 121.028 218.93 120.683 218.692C120.197 218.941 119.764 219.282 119.408 219.695C119.278 219.849 119.077 219.695 119.195 219.495C119.513 219.07 119.915 218.717 120.376 218.456L119.691 217.949C119.195 218.244 118.688 218.515 118.216 218.846C118.11 218.916 117.98 218.751 118.074 218.669C118.454 218.294 118.883 217.972 119.349 217.712C119.178 217.573 119.024 217.415 118.889 217.24C118.416 217.441 117.921 217.606 117.472 217.795C117.295 217.878 117.154 217.559 117.331 217.476C117.756 217.288 118.216 217.063 118.605 216.851C118.514 216.571 118.51 216.271 118.594 215.989C118.098 216.155 117.567 216.284 117.13 216.438C116.894 216.52 116.811 216.155 117.024 216.084C117.519 215.907 118.062 215.635 118.629 215.458C118.631 215.253 118.667 215.05 118.735 214.856C118.096 214.986 117.438 214.986 116.8 214.856C116.599 214.856 116.658 214.502 116.8 214.526C117.475 214.651 118.172 214.594 118.818 214.36C118.9 214.054 118.983 213.759 119.077 213.464C118.279 213.615 117.453 213.512 116.717 213.168C116.634 213.168 116.717 213.027 116.717 213.039C117.538 213.269 118.41 213.249 119.219 212.98C119.361 212.566 119.526 212.165 119.679 211.705C118.799 211.985 117.85 211.956 116.988 211.622C116.894 211.622 116.894 211.481 116.988 211.469C117.934 211.62 118.902 211.539 119.809 211.233C120.262 210.194 120.656 209.13 120.989 208.046C121.007 207.96 121.007 207.872 120.989 207.786C126.513 195.594 129.841 182.47 129.169 169.168C129.38 168.828 129.551 168.463 129.676 168.082C129.44 167.681 129.24 167.268 129.015 166.902C129.015 166.607 129.015 166.312 128.944 166.017C129.228 166.595 129.511 167.197 129.806 167.74C130.373 166.288 131.506 163.597 133.252 164.872C130.895 160.941 128.953 156.776 127.457 152.444C127.457 152.314 127.611 152.267 127.646 152.444C129.403 156.898 131.531 161.198 134.008 165.297H133.937C135.023 164.624 128.272 142.789 127.516 140.145H198.191C202.264 140.139 206.169 138.522 209.054 135.648C211.94 132.773 213.572 128.875 213.593 124.802V15.4025C213.59 11.3226 211.97 7.41025 209.087 4.52307C206.204 1.63589 202.294 0.00937085 198.214 0H15.3436C11.2698 0.0187148 7.36903 1.64936 4.49392 4.53553C1.61881 7.4217 0.00314915 11.3287 7.28028e-05 15.4025V124.743C-0.012472 128.826 1.59665 132.747 4.47379 135.644C7.35092 138.541 11.2606 140.177 15.3436 140.192H86.7262C84.1533 147.463 82.6543 156.515 77.886 162.004C75.8088 163.633 81.5449 165.084 85.4398 163.762C86.6166 163.528 87.8383 163.721 88.8861 164.305C84.4939 173.112 78.5118 181.031 71.2411 187.663L71.0169 187.486C69.3173 188.867 68.6563 190.012 65.6584 192.207C64.5139 192.805 63.4273 193.509 62.4127 194.308C62.2121 194.166 57.3021 197.565 60.2764 199.914C60.3046 199.942 60.3398 199.963 60.3786 199.973C60.4173 199.983 60.458 199.983 60.4966 199.972C60.5351 199.961 60.57 199.94 60.5977 199.911C60.6255 199.883 60.6449 199.847 60.6541 199.808C60.9826 199.653 61.3018 199.48 61.6101 199.288C60.7721 200.327 60.5833 200.339 60.7013 200.469C60.7299 200.496 60.7679 200.511 60.8075 200.511C60.8471 200.511 60.8852 200.496 60.9138 200.469C61.6927 202.829 65.8591 209.38 68.8098 206.83C68.8266 206.804 68.8355 206.773 68.8355 206.742C68.8355 206.71 68.8266 206.68 68.8098 206.653C69.3483 206.286 69.754 205.754 69.9666 205.137C70.1792 204.521 70.1874 203.852 69.99 203.231C69.4696 203.078 68.924 203.029 68.3849 203.089C68.196 203.089 68.1252 202.829 68.314 202.806C68.8438 202.699 69.3894 202.699 69.9192 202.806C69.8881 202.518 69.8328 202.234 69.754 201.956C69.1992 201.838 68.6445 201.696 68.078 201.625C67.9364 201.625 67.9246 201.389 68.078 201.389C68.6226 201.387 69.1655 201.451 69.695 201.578C69.6714 201.355 69.6714 201.129 69.695 200.905C69.2229 200.74 68.7507 200.54 68.314 200.374C68.1016 200.304 68.1842 199.973 68.3967 200.044C68.8452 200.197 69.3291 200.315 69.7894 200.481C69.8832 200.214 70.0366 199.971 70.2379 199.772C69.754 199.56 69.2819 199.288 68.8452 199.1C68.6563 199.017 68.8452 198.687 68.9868 198.769C69.4825 198.982 70.0844 199.147 70.6274 199.406L71.0995 199.041C70.5471 198.71 70.0624 198.277 69.6714 197.766C69.5415 197.601 69.7776 197.353 69.9192 197.53C70.3536 198.05 70.9088 198.455 71.5362 198.71L72.3388 198.214C71.6228 197.792 71.0667 197.145 70.7572 196.373C70.7572 195.818 70.9106 197.093 72.7755 198.002L73.9557 197.412C72.7755 196.893 71.8194 195.559 72.0555 195.429C72.2915 195.299 72.3152 195.937 73.4364 196.609C73.7551 196.822 74.121 196.963 74.4632 197.176C74.7229 197.046 77.6382 195.712 77.591 195.323C88.7799 190.531 99.5912 183.52 107.593 174.668C111.134 183.284 111.783 197.188 111.052 206.37C110.945 206.193 110.898 206.051 111.052 206.051H110.627C110.541 208.426 110.297 210.792 109.895 213.133C109.457 214.348 109.129 215.6 108.915 216.874C108.905 216.868 108.892 216.865 108.88 216.865C108.867 216.865 108.855 216.868 108.844 216.874C108.408 219.117 107.947 222.339 111.122 222.386C111.16 222.386 111.197 222.376 111.229 222.358C111.262 222.339 111.289 222.313 111.309 222.282C111.329 222.25 111.341 222.214 111.343 222.176C111.346 222.139 111.339 222.102 111.323 222.068C111.441 221.749 111.571 221.407 111.677 221.076V222.351C111.677 222.54 111.901 222.54 111.972 222.351C114.191 223.626 121.65 225.679 122.158 221.749C122.235 220.969 122.044 220.186 121.615 219.53ZM68.9396 205.957L69.2111 205.874C69.0458 206.158 68.8216 206.429 68.6327 206.701C65.0919 207.668 62.5071 203.089 60.9964 200.492C61.4173 200.079 61.7506 199.586 61.976 199.041C62.0389 199.003 62.0982 198.959 62.153 198.911C62.153 198.911 62.153 198.769 62.0586 198.805C61.5515 199.053 61.0625 199.337 60.5951 199.654C60.1397 199.193 59.8351 198.605 59.7217 197.967C59.8633 196.786 60.7839 195.972 62.0232 194.945C61.3977 196.007 61.9288 197.931 62.8022 199.017C63.9943 200.953 66.5318 206.429 68.9396 205.957ZM131.423 115.171H131.364L128.012 112.81C127.95 112.768 127.881 112.738 127.807 112.723C127.734 112.708 127.658 112.708 127.585 112.722C127.511 112.736 127.441 112.765 127.379 112.806C127.316 112.848 127.263 112.901 127.221 112.964L123.055 120.553C122.842 116.764 122.677 113.329 121.414 110.06C133.536 103.958 143.698 90.1844 144.3 76.6231C146.412 77.1188 145.48 76.6231 146.106 72.917C146.708 72.5866 147.675 71.7958 147.156 71.3001C146.917 71.2706 146.675 71.2706 146.436 71.3001C146.637 71.0876 147.687 70.6155 147.463 69.4588C147.215 68.8215 146.53 69.388 146.412 69.4588L146.92 64.9148H147.073L154.45 73.2829C154.558 73.3903 154.705 73.4506 154.857 73.4506C155.01 73.4506 155.156 73.3903 155.264 73.2829L158.133 70.0372C158.214 69.9099 158.242 69.7559 158.211 69.6082C158.18 69.4604 158.093 69.3306 157.967 69.2464L148.525 63.1798V63.0264L159.454 60.6658C159.527 60.6446 159.594 60.6086 159.653 60.5603C159.711 60.512 159.759 60.4523 159.793 60.3849C159.827 60.3174 159.847 60.2437 159.852 60.1682C159.857 60.0927 159.846 60.0171 159.82 59.9459L158.557 56.1336V56.0628C158.526 55.9953 158.481 55.9347 158.426 55.8845C158.371 55.8343 158.306 55.7954 158.236 55.7702C158.166 55.745 158.091 55.7339 158.017 55.7375C157.942 55.7411 157.869 55.7594 157.802 55.7913L147.782 60.7603V60.6068L151.417 49.6539C151.444 49.5037 151.412 49.3487 151.325 49.2227C151.239 49.0966 151.106 49.0098 150.956 48.9812L147.121 48.2258C146.971 48.2125 146.822 48.258 146.705 48.3527C146.588 48.4475 146.513 48.584 146.495 48.7333L145.574 59.9223H145.421L137.785 51.7194C137.676 51.612 137.53 51.5518 137.378 51.5518C137.225 51.5518 137.079 51.612 136.97 51.7194L134.208 54.8471C134.127 54.9762 134.098 55.1321 134.129 55.2818C134.16 55.4314 134.248 55.5634 134.374 55.6497L143.816 61.8933V62.0468L133.193 64.2066C133.121 64.2279 133.053 64.2638 132.995 64.3122C132.937 64.3605 132.889 64.4202 132.855 64.4876C132.821 64.5551 132.801 64.6288 132.796 64.7043C132.791 64.7798 132.802 64.8554 132.828 64.9266L134.102 68.7507C134.134 68.8182 134.179 68.8788 134.234 68.929C134.289 68.9792 134.353 69.018 134.424 69.0433C134.494 69.0685 134.568 69.0796 134.643 69.076C134.717 69.0724 134.79 69.0541 134.858 69.0221L144.677 64.2066V64.3601L143.285 68.4556C142.978 67.7829 142.258 67.7947 142.034 68.2196C141.913 68.4102 141.81 68.6117 141.727 68.8215V68.9041C141.314 69.7621 141.031 70.6771 140.889 71.6187L140.11 71.1584H139.945C122.583 83.7991 124.188 88.2369 121.06 88.7208C117.323 89.7502 113.679 91.0926 110.166 92.7338C110.023 92.4231 109.771 92.1755 109.458 92.0374C111.748 89.9837 111.311 87.4343 111.205 84.5191C112.114 72.4803 103.038 68.8805 97.1126 72.079C95.9324 72.622 95.6609 71.7722 93.0053 73.3537C88.4849 75.8913 87.1039 82.2648 88.6147 86.5255C89.3654 88.606 90.6998 90.426 92.4581 91.7678C94.2164 93.1095 96.3241 93.9161 98.5289 94.0911C98.6255 94.6339 98.6925 95.1815 98.7296 95.7316C98.314 95.9787 97.8752 96.1842 97.4195 96.3454C97.1095 96.0682 96.8627 95.7278 96.6958 95.347C96.5288 94.9662 96.4455 94.554 96.4517 94.1383C94.7518 93.9379 93.1414 93.2676 91.8014 92.2026C91.5654 92.0138 89.0278 89.7359 89.252 89.5352C88.5675 89.9955 87.7649 90.2906 87.0803 90.8099C86.3629 91.3277 85.7333 91.9573 85.2155 92.6747C84.377 93.7175 83.9865 95.0504 84.1297 96.3808C84.3421 97.6555 85.1447 98.7413 85.0385 99.9216C84.8647 101.018 84.2776 102.006 83.3979 102.683C82.572 103.345 81.8654 104.144 81.3088 105.044C81.0463 105.651 80.9218 106.309 80.9442 106.971C80.9667 107.632 81.1355 108.28 81.4386 108.868C82.0636 110.036 82.9527 111.043 84.0352 111.807C82.4156 114.546 81.1429 117.476 80.2466 120.529H8.25015V15.1783H204.623V120.47H127.351L131.458 115.985C131.558 115.871 131.611 115.722 131.604 115.571C131.597 115.419 131.533 115.276 131.423 115.171ZM117.838 133.37C118.653 133.276 119.656 133.099 119.113 133.477C117.541 134.397 115.764 134.908 113.943 134.964C113.994 133.646 113.97 132.325 113.872 131.01C114.38 130.101 115.419 128.413 115.808 129.381C116.08 130.042 115.135 130.561 115.513 130.833C115.891 131.104 118.204 129.912 118.771 130.054V130.172C118.251 131.281 116.788 131.447 116.977 131.966C117.165 132.485 117.767 131.966 118.782 131.659L119.479 131.399H119.668C119.491 132.167 118.782 132.237 117.732 132.839C117.685 132.872 117.648 132.918 117.626 132.971C117.605 133.025 117.599 133.083 117.611 133.14C117.622 133.196 117.649 133.248 117.69 133.289C117.73 133.33 117.782 133.358 117.838 133.37ZM118.228 129.535C118.354 129.493 118.491 129.493 118.617 129.535C118.491 129.523 118.365 129.523 118.239 129.535H118.228ZM119.113 126.678L116.233 129.83C116.233 128.649 115.183 128.437 114.746 129.204C114.398 129.725 114.101 130.278 113.861 130.856C113.743 129.428 114.038 129.346 109.446 126.891L119.184 126.525L119.113 126.678ZM112.031 136.25C113.672 137.313 114.817 138.977 115.36 138.009L117.224 134.763C118.058 134.652 118.85 134.331 119.526 133.831C118.976 134.244 118.356 134.555 117.697 134.751C116.103 137.112 115.69 139.331 114.604 138.528L111.783 136.368L112.031 136.25ZM119.668 132.922C119.502 132.733 119.467 132.78 119.349 132.733C120.329 132.261 120.529 130.845 119.703 130.786C119.43 130.796 119.161 130.861 118.912 130.974C118.937 130.93 118.965 130.886 118.995 130.845C119.179 130.786 119.377 130.786 119.561 130.845L121.107 128.177H121.261L122.229 131.187L121.202 132.013C120.848 132.19 120.092 132.674 119.691 132.922H119.668ZM146.212 71.6187C146.443 71.4942 146.711 71.4565 146.967 71.5125C147.25 71.6659 146.483 72.3977 146.106 72.6928L146.212 71.6187ZM146.283 70.8044L146.389 69.8129C146.696 69.6123 147.003 69.4234 146.991 69.5769C146.971 69.8228 146.898 70.0614 146.775 70.2757C146.653 70.4899 146.485 70.6744 146.283 70.8162V70.8044ZM141.774 72.3623L140.889 71.8312C141.019 70.7571 141.88 67.6412 142.647 68.3848C143.214 68.8805 142.636 69.5415 141.774 72.3623ZM97.9152 89.7005C97.9184 89.6842 97.9166 89.6673 97.9101 89.652C97.9035 89.6367 97.8925 89.6238 97.8785 89.6148C97.8645 89.6059 97.8481 89.6014 97.8315 89.602C97.8148 89.6025 97.7988 89.608 97.7854 89.6178C97.5163 89.7637 97.2193 89.8507 96.9141 89.873C96.6089 89.8954 96.3024 89.8527 96.015 89.7477C92.2145 88.2959 94.3154 81.7454 97.868 87.6232C99.2017 89.7949 101.102 90.2788 100.724 89.9011C98.6234 87.5406 99.3787 84.6017 97.9742 79.1961C99.0129 80.5033 99.5675 82.1296 99.544 83.7991C99.6738 83.8699 102.034 83.0555 102.837 82.8077C102.637 83.141 102.554 83.5314 102.601 83.9171C102.79 83.5131 103.007 83.1226 103.25 82.7487C104.725 82.2766 106.177 81.7809 107.629 81.2615C107.987 81.3127 108.339 81.3997 108.679 81.5212C108.563 81.3159 108.38 81.1574 108.16 81.0727L108.691 80.8957C108.703 80.8827 108.709 80.8659 108.709 80.8484C108.709 80.831 108.703 80.8142 108.691 80.8012C108.524 79.4174 108.091 78.0788 107.416 76.8591C109.175 78.9836 113.129 89.3464 108.195 92.4269C107.372 92.9155 106.401 93.0954 105.457 92.9344C105.162 93.0524 106.083 95.3894 107.652 96.369C108.216 97.377 108.432 98.5426 108.266 99.6855H107.947C107.962 99.6745 107.974 99.6603 107.982 99.6439C107.99 99.6275 107.995 99.6094 107.995 99.5911C107.995 99.5728 107.99 99.5547 107.982 99.5383C107.974 99.5219 107.962 99.5077 107.947 99.4967C105.203 98.0818 102.199 97.2386 99.1191 97.0181C99.0955 93.4419 98.3165 94.0321 97.9152 89.7005ZM107.617 96.1565C106.721 95.3951 106.078 94.3779 105.776 93.2413C105.957 93.2529 106.138 93.2529 106.319 93.2413C105.611 93.5954 106.873 94.8582 107.617 96.2038V96.1565ZM98.7178 96.9001C97.7854 96.9001 97.809 96.7939 96.9002 96.7703C97.5406 96.7048 98.156 96.4862 98.6942 96.1329C98.706 96.4162 98.7178 96.7821 98.7178 96.9473V96.9001ZM91.3293 102.577C90.3969 103.12 90.4205 102.2 90.7746 101.562C91.825 99.2016 91.7542 98.0214 93.1351 97.5611C95.3304 97.0299 102.825 97.0181 107.711 99.6737C104.666 99.3078 97.7736 99.9806 91.3293 102.577ZM108.538 99.6383C108.939 96.2982 106.331 93.9022 106.331 93.5481C106.331 93.1941 107.416 93.4065 108.597 92.6157C108.757 92.592 108.92 92.592 109.081 92.6157C109.812 92.781 110.509 96.5578 108.538 99.6383ZM80.5889 120.683C81.5709 117.248 83.0331 113.97 84.9322 110.945C87.0266 107.69 89.7081 104.852 92.84 102.577C104.584 98.1866 107.44 100.618 108.821 99.898C110.101 97.9316 110.559 95.5415 110.096 93.2413C113.613 91.6393 117.242 90.2942 120.954 89.2165C124.318 88.6382 122.052 84.9204 139.744 71.5125L141.644 72.6102C141.266 74.2153 140.157 75.6553 141.184 75.9031C142.211 76.151 143.981 76.5759 143.981 76.5759C143.214 90.9633 133.052 103.392 121.226 109.765C120.263 107.615 118.977 105.625 117.413 103.864C122.134 109.458 122.394 112.775 122.807 120.989L121.804 122.807H121.65L118.11 112.185C118.059 112.041 117.953 111.924 117.816 111.857C117.679 111.791 117.522 111.781 117.378 111.831L113.554 113.577C113.485 113.608 113.423 113.652 113.372 113.707C113.321 113.762 113.282 113.826 113.256 113.897C113.231 113.968 113.22 114.043 113.225 114.117C113.229 114.192 113.249 114.266 113.282 114.333V114.404L119.337 123.952V124.105L108.715 121.745C108.565 121.717 108.41 121.747 108.282 121.831C108.154 121.915 108.064 122.045 108.03 122.193V122.252L107.7 125.911C104.999 124.618 102.181 123.587 99.2843 122.831C101.35 120.222 104.005 114.793 103.321 114.569C103.296 114.56 103.27 114.556 103.243 114.558C103.217 114.559 103.191 114.567 103.168 114.579C103.145 114.591 103.124 114.608 103.108 114.629C103.091 114.649 103.08 114.673 103.073 114.699C102.182 117.657 100.718 120.412 98.765 122.807C98.1276 123.657 103.616 123.208 112.692 129.169C112.931 129.28 113.129 129.462 113.26 129.69C113.391 129.918 113.448 130.181 113.424 130.443C113.424 131.022 113.684 134.574 113.613 134.834C112.916 135.861 94.8583 143.851 83.6812 137.431C78.0041 134.102 78.665 127.623 80.5889 120.765H80.6833C80.6486 120.741 80.617 120.714 80.5889 120.683ZM80.5889 163.692C83.8429 160.267 86.6217 156.42 88.8507 152.255C85.0385 160.67 79.4086 164.919 80.6007 163.692H80.5889ZM95.9324 140.381H96.0858C94.1029 148.36 91.2231 156.622 86.6436 163.491C85.1683 164.919 92.5214 153.034 95.8969 140.381H95.9324ZM76.5169 195.382C74.8645 194.744 71.7958 190.661 71.1939 189.209V188.288C73.0115 186.553 73.1886 186.317 73.9557 185.527V185.456C78.6768 180.499 85.1565 173.122 89.1812 164.459C91.5417 165.958 92.722 169.64 95.6019 171.186C96.5343 165.509 97.6673 159.856 98.7296 154.202C98.7296 154.072 98.9538 154.12 98.9302 154.202C97.9152 159.879 96.971 165.568 95.8261 171.222C99.721 173.252 100.358 168.637 103.982 169.251C103.296 159.917 103.724 150.534 105.256 141.302C105.256 141.196 105.434 141.302 105.422 141.302C104.214 150.562 103.819 159.91 104.241 169.239C105.765 169.615 107.167 170.375 108.313 171.446C106.959 160.788 107.007 150 108.455 139.354C107.418 150.151 107.533 161.028 108.797 171.8L109.293 172.142C102.53 180.369 93.2295 188.288 76.4815 195.382H76.5169ZM121.674 221.112C121.651 221.426 121.651 221.742 121.674 222.056C119.821 225.089 114.887 223.39 112.078 222.493C112.114 221.942 112.029 221.39 111.831 220.876V220.628C111.831 220.002 111.347 221.596 111.181 222.257C110.714 222.187 110.255 222.069 109.812 221.902C109.519 221.72 109.28 221.461 109.122 221.153C108.964 220.845 108.893 220.501 108.915 220.156C108.873 219.368 108.9 218.578 108.998 217.795C109.234 218.975 110.934 220.061 112.303 220.285C114.522 220.911 120.435 223.425 121.639 221.112H121.674ZM107.877 174.503C108.49 173.818 109.057 173.122 109.647 172.414C111.363 173.622 113.464 174.156 115.548 173.913C115.749 166.612 115.537 159.307 114.911 152.03C114.906 152.016 114.904 152.001 114.906 151.986C114.908 151.971 114.913 151.956 114.922 151.944C114.931 151.931 114.942 151.921 114.956 151.914C114.969 151.907 114.984 151.903 115 151.903C115.015 151.903 115.03 151.907 115.043 151.914C115.057 151.921 115.068 151.931 115.077 151.944C115.086 151.956 115.091 151.971 115.093 151.986C115.095 152.001 115.093 152.016 115.088 152.03C115.829 159.272 116.141 166.551 116.021 173.83C119.786 173.216 121.344 170.077 124.943 170.289C120.979 161.535 119.007 152.009 119.172 142.399C119.172 142.378 119.181 142.357 119.196 142.341C119.212 142.326 119.233 142.317 119.254 142.317C119.276 142.319 119.295 142.329 119.31 142.344C119.325 142.359 119.335 142.378 119.337 142.399C119.619 151.982 121.618 161.436 125.238 170.313C125.816 170.48 126.426 170.506 127.016 170.387C127.606 170.267 128.158 170.007 128.626 169.628C129.251 183.378 125.687 195.795 119.998 208.329C118.381 209.061 113.235 208.07 111.831 207.385C111.591 207.21 111.377 207.004 111.193 206.771C111.266 206.81 111.327 206.867 111.37 206.937C112.869 186.105 107.865 174.68 107.841 174.503H107.877ZM128.425 166.064C125.363 160.102 123.366 153.651 122.524 147.003C122.524 146.837 122.736 146.778 122.76 146.944C123.776 153.209 125.659 159.302 128.354 165.049L128.425 166.064ZM213.263 124.754C213.26 128.734 211.677 132.55 208.862 135.363C206.046 138.176 202.23 139.756 198.25 139.756H127.434C127.339 139.437 127.257 139.118 127.162 138.8C125.982 139.225 125.687 139.673 124.943 139.567C124.73 139.417 124.566 139.208 124.471 138.965L122.111 131.718L122.335 131.541L124.696 138.776C125.061 139.862 126.419 138.457 129.417 137.324C129.485 137.294 129.547 137.25 129.598 137.195C129.65 137.14 129.69 137.076 129.716 137.006C129.743 136.936 129.755 136.861 129.752 136.786C129.749 136.711 129.731 136.637 129.7 136.569V136.498L123.799 127.552C123.799 127.363 123.716 127.174 123.68 126.985L134.433 129.275C134.506 129.292 134.581 129.294 134.655 129.282C134.729 129.269 134.8 129.241 134.862 129.2C134.925 129.16 134.979 129.106 135.021 129.044C135.063 128.982 135.092 128.912 135.105 128.838C135.111 128.815 135.111 128.791 135.105 128.767L135.46 124.802C135.463 124.726 135.451 124.651 135.424 124.58C135.398 124.51 135.358 124.445 135.306 124.39C135.255 124.335 135.193 124.291 135.124 124.26C135.055 124.23 134.98 124.213 134.905 124.212L123.728 124.672V124.518L127.056 120.883H205.095V14.7652H7.99049V120.871H80.223C77.6146 130.101 78.0277 136.534 87.0449 139.496C87.0449 139.59 86.9741 139.697 86.9269 139.803H15.3436C11.3679 139.794 7.55768 138.21 4.74644 135.399C1.93519 132.588 0.351702 128.777 0.342351 124.802V15.4025C0.348584 11.4248 1.93069 7.61155 4.74228 4.79776C7.55386 1.98396 11.3658 0.398851 15.3436 0.389489H198.214C202.194 0.395732 206.009 1.97946 208.823 4.7936C211.638 7.60773 213.221 11.4227 213.227 15.4025L213.263 124.754Z" fill="#15161A"/>
<path d="M108.679 86.0538C108.592 86.264 108.452 86.4477 108.272 86.5865C108.091 86.7253 107.878 86.8143 107.652 86.8446C108.62 86.939 109.47 85.8532 108.632 85.3929C107.651 84.7448 106.913 83.7903 106.531 82.6783C107.098 85.7234 108.963 85.3811 108.679 86.0538ZM103.935 85.0978C104.064 85.3929 104.501 85.0978 104.371 84.8381L104.029 84.0946C103.899 83.7995 103.463 84.0946 103.592 84.3424L103.935 85.0978ZM108.42 83.2448C108.549 83.4926 108.998 83.2448 108.856 82.9969C108.715 82.7491 108.632 82.513 108.514 82.2652C108.396 82.0173 107.936 82.2652 108.077 82.5248C108.219 82.7845 108.29 83.0087 108.42 83.2448ZM108.231 89.0281C107.683 89.26 107.082 89.3353 106.495 89.2457C105.907 89.1561 105.356 88.905 104.902 88.5206C105.457 89.2996 107.31 90.1494 108.231 89.0281ZM19.7578 37.9106C17.6806 37.9106 17.5035 41.1918 19.7578 41.4515C21.0561 41.6285 21.8823 39.7637 21.0915 38.784C21.0325 38.6778 20.3126 37.9106 19.7578 37.9106ZM19.1323 40.8731C18.8687 40.7512 18.6563 40.5406 18.5322 40.278C18.408 40.0154 18.3801 39.7176 18.4532 39.4365C18.5262 39.1554 18.6957 38.9089 18.932 38.74C19.1683 38.5712 19.4564 38.4907 19.746 38.5126C22.0003 38.5008 21.2096 41.6993 19.1323 40.8731Z" fill="#15161A"/>
<path d="M130.62 50.9646L139.071 49.9967C139.135 49.9995 139.198 50.0169 139.255 50.0475C139.311 50.0782 139.36 50.1213 139.398 50.1735C139.435 50.2258 139.461 50.2859 139.471 50.3494C139.482 50.4128 139.479 50.4779 139.461 50.5397C139.514 51.4792 139.514 52.421 139.461 53.3605C139.036 52.9828 138.552 52.4399 138.28 52.1802C138.009 51.9206 137.655 51.3658 137.206 51.295C137.124 51.306 137.045 51.3299 136.97 51.3658C136.825 51.4314 136.693 51.5234 136.581 51.6373C135.918 52.2198 135.291 52.8426 134.704 53.5021C134.551 53.4077 131.187 52.9828 130.609 52.912V53.03L135.837 59.8166C135.888 59.9203 135.896 60.0396 135.861 60.1495C135.826 60.2594 135.75 60.3515 135.648 60.4067L132.769 61.9765C132.717 61.9993 132.661 62.0112 132.605 62.0116C132.548 62.012 132.492 62.0008 132.44 61.9786C132.388 61.9565 132.341 61.924 132.302 61.883C132.263 61.842 132.233 61.7935 132.214 61.7404L128.992 53.8562H128.874L125.05 61.6814C125.02 61.7289 124.98 61.77 124.934 61.8023C124.888 61.8346 124.837 61.8574 124.782 61.8695C124.727 61.8816 124.67 61.8826 124.615 61.8726C124.559 61.8626 124.507 61.8418 124.459 61.8112L121.91 60.1589C121.865 60.1243 121.828 60.0812 121.801 60.032C121.773 59.9829 121.755 59.9288 121.748 59.8727C121.742 59.8167 121.747 59.7599 121.762 59.7057C121.778 59.6515 121.804 59.6009 121.839 59.5569L127.28 52.8176V52.6995L119.018 53.6202H118.83C118.773 53.6103 118.72 53.5892 118.672 53.5581C118.624 53.527 118.582 53.4866 118.551 53.4392C118.519 53.3918 118.496 53.3385 118.486 53.2824C118.475 53.2262 118.475 53.1685 118.487 53.1126V50.0557C118.495 49.9997 118.513 49.9457 118.541 49.8968C118.57 49.848 118.607 49.8053 118.652 49.7712C118.698 49.7371 118.749 49.7124 118.804 49.6984C118.858 49.6845 118.915 49.6815 118.971 49.6899L127.15 50.8701V50.7521L122.193 43.7413C122.138 43.6409 122.124 43.5228 122.155 43.4124C122.186 43.302 122.259 43.2081 122.359 43.1512L125.156 41.6286C125.261 41.5848 125.379 41.5837 125.485 41.6256C125.59 41.6675 125.676 41.749 125.722 41.8529L129.063 49.6899H129.181L132.721 41.9237C132.781 41.8234 132.877 41.75 132.989 41.7192C133.101 41.6883 133.221 41.7024 133.323 41.7585L135.991 43.34C136.035 43.3746 136.073 43.4177 136.1 43.4668C136.128 43.5159 136.146 43.5701 136.152 43.6261C136.159 43.6822 136.154 43.739 136.139 43.7932C136.123 43.8474 136.097 43.898 136.062 43.9419L130.62 50.8465V50.9646Z" fill="#FF7E1F"/>
<path d="M46.3965 50.9882L54.859 50.0203C54.9142 50.0203 54.9689 50.0314 55.0199 50.0529C55.0708 50.0744 55.1168 50.1059 55.1553 50.1455C55.1939 50.1851 55.224 50.232 55.2441 50.2835C55.2641 50.335 55.2737 50.39 55.2721 50.4452V53.5139C55.266 53.6287 55.2161 53.7368 55.1327 53.8159C55.0492 53.895 54.9386 53.939 54.8236 53.9388L46.3965 52.7586V52.853L51.4716 59.6513C51.5394 59.7446 51.5686 59.8605 51.5532 59.9748C51.5378 60.089 51.479 60.193 51.389 60.2651H51.33L48.4383 61.8466C48.389 61.8757 48.3343 61.8945 48.2776 61.9019C48.2208 61.9093 48.1632 61.9052 48.1081 61.8897C48.0529 61.8743 48.0015 61.8479 47.9569 61.8121C47.9122 61.7763 47.8752 61.7318 47.8482 61.6814L44.6261 53.7972H44.5198L40.6958 61.6106C40.6713 61.6693 40.6343 61.722 40.5873 61.765C40.5403 61.8079 40.4845 61.8401 40.4238 61.8592C40.3631 61.8783 40.2989 61.8839 40.2358 61.8756C40.1727 61.8673 40.1121 61.8454 40.0584 61.8112C38.111 60.3831 36.9779 60.1825 37.3792 59.5569C37.4618 59.4271 36.6356 60.4775 42.8438 52.7822V52.6641L34.582 53.5848C33.9446 53.6556 34.0981 53.03 34.0981 50.1148C34.1011 50.001 34.1485 49.8929 34.2301 49.8136C34.3116 49.7342 34.4209 49.6898 34.5348 49.6899C34.6764 49.6899 36.2697 49.9141 42.7966 50.8701V50.7521L37.7687 43.8829C37.7022 43.7882 37.6749 43.6715 37.6925 43.5571C37.7101 43.4427 37.7712 43.3396 37.8631 43.2692L40.6485 41.7348C40.6979 41.7058 40.7525 41.687 40.8093 41.6796C40.866 41.6722 40.9237 41.6763 40.9788 41.6918C41.0339 41.7072 41.0854 41.7336 41.13 41.7694C41.1747 41.8052 41.2116 41.8496 41.2387 41.9001L44.6261 49.7607H44.7441L48.2849 41.9945C48.3065 41.942 48.3387 41.8945 48.3795 41.855C48.4202 41.8155 48.4687 41.7848 48.5219 41.7649C48.575 41.7449 48.6317 41.7362 48.6884 41.7391C48.7451 41.7421 48.8006 41.7567 48.8514 41.7821L51.6487 43.3636C51.6975 43.3938 51.74 43.4333 51.7736 43.4799C51.8071 43.5265 51.8312 43.5793 51.8444 43.6352C51.8575 43.6911 51.8595 43.7491 51.8502 43.8058C51.841 43.8625 51.8206 43.9168 51.7903 43.9656L46.3965 50.8701V50.9882Z" fill="#FF7E1F"/>
<path d="M71.3828 52.6405L63.1209 53.6084C63.0285 53.5932 62.9437 53.548 62.8797 53.4797C62.8156 53.4114 62.776 53.3238 62.7668 53.2307V50.2092C62.7699 50.0954 62.8172 49.9874 62.8988 49.908C62.9804 49.8286 63.0897 49.7842 63.2035 49.7843L71.371 50.9646V50.8583L66.284 43.9538C66.2162 43.8605 66.187 43.7446 66.2024 43.6303C66.2178 43.516 66.2766 43.4121 66.3666 43.34L69.1521 41.8057C69.2524 41.7502 69.3706 41.7365 69.481 41.7674C69.5914 41.7983 69.6852 41.8714 69.7422 41.9709L73.0705 49.7961H73.165L76.7058 42.0299C76.7545 41.9252 76.8427 41.8441 76.9511 41.8043C77.0595 41.7645 77.1792 41.7692 77.2841 41.8175L79.9869 43.4108C80.037 43.4398 80.0807 43.4788 80.1152 43.5253C80.1497 43.5718 80.1744 43.6249 80.1876 43.6812C80.2009 43.7376 80.2025 43.7961 80.1924 43.8531C80.1822 43.9101 80.1605 43.9644 80.1286 44.0128L74.6875 50.9173V51.0354L83.15 50.0675C83.2062 50.0593 83.2634 50.0627 83.3181 50.0775C83.3729 50.0923 83.424 50.1182 83.4683 50.1537C83.5126 50.1891 83.5491 50.2333 83.5756 50.2834C83.602 50.3336 83.6179 50.3887 83.6222 50.4452V53.5139C83.6161 53.6287 83.5662 53.7368 83.4827 53.8159C83.3993 53.895 83.2886 53.939 83.1736 53.9388L74.7583 52.7586V52.7704L79.9869 59.5569C80.056 59.6488 80.0872 59.7637 80.074 59.8779C80.0609 59.9921 80.0043 60.0969 79.9161 60.1707H79.8453L76.9536 61.7522C76.9043 61.7813 76.8497 61.8001 76.7929 61.8075C76.7361 61.8149 76.6785 61.8107 76.6234 61.7953C76.5683 61.7799 76.5168 61.7535 76.4722 61.7177C76.4275 61.6819 76.3906 61.6374 76.3635 61.587L73.1414 53.7028H73.0351L69.2111 61.5162C69.1623 61.6208 69.0741 61.7019 68.9658 61.7418C68.8574 61.7816 68.7376 61.7768 68.6327 61.7286L66.0834 60.0762C66.0358 60.0462 65.9947 60.0071 65.9625 59.9611C65.9302 59.9151 65.9073 59.8632 65.8952 59.8083C65.8832 59.7534 65.8821 59.6966 65.8921 59.6413C65.9021 59.586 65.923 59.5333 65.9535 59.4861L71.3828 52.7586V52.6405Z" fill="#FF7E1F"/>
<path d="M102.66 50.9882L111.122 50.0203C111.214 50.0373 111.298 50.0831 111.361 50.1511C111.425 50.219 111.465 50.3055 111.477 50.398V53.5139C111.47 53.6287 111.421 53.7368 111.337 53.8159C111.254 53.895 111.143 53.939 111.028 53.9388L102.613 52.7586V52.7704L107.841 59.5569C107.91 59.6488 107.942 59.7637 107.928 59.8779C107.915 59.9921 107.859 60.0969 107.77 60.1707H107.7L104.808 61.7522C104.708 61.8077 104.589 61.8214 104.479 61.7905C104.369 61.7596 104.275 61.6865 104.218 61.587L101.008 53.7028H100.889L97.0654 61.5162C97.0167 61.6208 96.9285 61.7019 96.8201 61.7418C96.7117 61.7816 96.592 61.7768 96.4871 61.7286L93.9495 60.0762C93.854 60.0154 93.7858 59.9199 93.7594 59.8098C93.733 59.6997 93.7504 59.5836 93.8079 59.4861L99.3079 52.6995V52.5815L91.0461 53.5021C90.932 53.512 90.8186 53.4768 90.7303 53.4039C90.6421 53.3311 90.5859 53.2265 90.5739 53.1126V50.1148C90.58 49.9999 90.6299 49.8918 90.7134 49.8128C90.7968 49.7337 90.9075 49.6897 91.0224 49.6899L99.2017 50.8701V50.7521L94.1856 43.9301C94.1505 43.8845 94.1249 43.8323 94.1101 43.7767C94.0953 43.7211 94.0916 43.6631 94.0993 43.6061C94.1069 43.5491 94.1258 43.4941 94.1548 43.4444C94.1838 43.3947 94.2223 43.3512 94.2682 43.3164L97.0654 41.7821C97.1658 41.7266 97.2839 41.7129 97.3943 41.7438C97.5047 41.7747 97.5986 41.8478 97.6556 41.9473L100.996 49.7843H101.185L104.725 42.0181C104.748 41.9652 104.782 41.9175 104.823 41.8779C104.865 41.8383 104.915 41.8076 104.969 41.7877C105.023 41.7679 105.081 41.7592 105.138 41.7623C105.196 41.7654 105.252 41.7801 105.304 41.8057L107.948 43.3636C107.997 43.3928 108.041 43.4316 108.076 43.4778C108.11 43.524 108.136 43.5766 108.15 43.6325C108.164 43.6885 108.167 43.7468 108.159 43.804C108.15 43.8611 108.131 43.916 108.101 43.9656L102.66 50.8701V50.9882Z" fill="#FF7E1F"/>
<path d="M22.7085 37.379H22.5905C21.277 36.8125 19.8254 36.6467 18.4179 36.9024C17.0105 37.1581 15.71 37.824 14.6798 38.8164C13.6496 39.8088 12.9355 41.0835 12.6274 42.4803C12.3192 43.8772 12.4306 45.334 12.9477 46.6678C13.3956 47.7617 14.1002 48.7317 15.0021 49.4959C15.9039 50.2602 16.9764 50.796 18.129 51.0584C18.129 52.7934 17.9992 66.4019 17.9992 65.5639H21.1623V65.4222H24.3727V63.9351C23.292 63.8606 22.2076 63.8606 21.1269 63.9351V63.0971H23.2986V61.6336C22.5718 61.58 21.842 61.58 21.1151 61.6336V61.0198H24.3137V58.6593H21.0679C21.0679 56.1807 21.0679 53.6786 20.9853 51.2118C22.6763 50.9009 24.2073 50.0136 25.3177 48.7009C26.4281 47.3882 27.0492 45.7313 27.0755 44.0122C27.0692 42.6021 26.653 41.2244 25.8777 40.0467C25.1023 38.869 24.0012 37.9421 22.7085 37.379ZM21.2095 64.301C22.1725 64.3601 23.1382 64.3601 24.1012 64.301V65.2216H21.2095V64.301ZM21.2095 61.9404C21.8149 61.9758 22.4218 61.9758 23.0272 61.9404V62.8256C22.406 62.7929 21.7835 62.7929 21.1623 62.8256L21.2095 61.9404ZM21.1741 59.0134C22.3544 59.0134 22.8383 59.0842 24.054 59.0134V60.7956H21.1269L21.1741 59.0134ZM23.2514 50.185H23.1216C22.3913 50.5797 21.588 50.8207 20.761 50.8931C20.6312 57.2312 20.6312 63.3214 20.6312 65.0682H18.5421C18.5421 63.6164 18.5421 70.3204 18.4123 50.9049H18.2707C10.1858 49.0637 11.6022 37.5797 19.569 37.1784C26.9221 36.8007 29.5777 46.6087 23.2514 50.1377V50.185ZM112.503 4.13086C107.593 4.13086 107.582 11.5666 112.503 11.5666C117.425 11.5666 117.413 4.13086 112.503 4.13086ZM112.503 11.1299C108.16 11.1299 108.16 4.55576 112.503 4.55576C116.847 4.55576 116.847 11.1063 112.503 11.1299ZM143.84 65.08L143.485 65.0682L142.388 65.5993H143.662L143.84 65.08Z" fill="#15161A"/>
<path d="M199.843 63.6278V38.6769C199.84 38.1749 199.639 37.6946 199.283 37.3408C198.926 36.987 198.445 36.7884 197.943 36.7884C129.617 36.7176 166.465 36.458 32.2686 36.7884L31.9972 36.8829H31.8673C31.5948 37.0416 31.3686 37.2689 31.2112 37.5423C31.0538 37.8156 30.9708 38.1254 30.9703 38.4408V63.6632C30.9703 64.1651 31.1689 64.6466 31.5227 65.0027C31.8765 65.3587 32.3568 65.5603 32.8588 65.5634H72.1027L100.122 65.646C110.863 65.7168 121.615 65.646 132.355 65.646L132.167 65.1031H114.911V37.3904H142.695V56.735L143.143 57.2189V37.3904C152.711 37.3904 162.287 37.3589 171.871 37.2959V65.0677H152.29L152.998 65.528H197.943C198.193 65.528 198.44 65.4788 198.67 65.3833C198.901 65.2878 199.11 65.1479 199.287 64.9714C199.463 64.795 199.603 64.5855 199.699 64.3549C199.794 64.1244 199.843 63.8773 199.843 63.6278ZM32.7171 65.0677C32.339 65.068 31.9754 64.9219 31.7026 64.6601C31.4297 64.3983 31.2689 64.041 31.2536 63.6632C31.6077 38.7359 30.4864 38.1457 32.1152 37.3786H32.2096C32.7643 37.1779 58.0575 37.3786 58.3644 37.3786V65.0795L32.7171 65.0677ZM86.561 65.0677H58.8601V37.3078C68.0977 37.3078 77.3352 37.3314 86.5728 37.3786L86.561 65.0677ZM86.9977 65.0677V37.3786H114.522V65.0677H86.9977ZM172.355 37.2959H197.943C198.328 37.2959 198.697 37.4489 198.97 37.7211C199.242 37.9934 199.395 38.3627 199.395 38.7477V63.734C199.371 64.1004 199.209 64.4441 198.942 64.696C198.675 64.9478 198.322 65.0891 197.955 65.0913H172.355V37.2959Z" fill="#15161A"/>
</svg>
