<svg width="235" height="218" viewBox="0 0 235 218" fill="none" xmlns="http://www.w3.org/2000/svg">
<path d="M73.5536 67.3645C73.5536 67.7958 73.0237 68.2271 72.728 68.4859C72.4322 68.7447 72.728 68.7816 72.8759 68.7447C73.4427 68.6338 74.1081 67.5987 73.9233 67.0195C73.8001 66.7114 72.1981 65.5038 71.8408 64.9247C71.7545 64.7891 71.5081 64.9247 71.5697 65.0356C71.7668 65.6517 73.5783 66.9702 73.5536 67.3645ZM75.7963 61.8194C75.8781 62.2917 75.9234 62.7696 75.9319 63.2488C75.9319 63.6431 76.5357 63.6431 76.548 63.2488C76.5892 62.7168 76.4826 62.1837 76.2399 61.7085C76.129 61.5113 75.7717 61.5852 75.7963 61.8194ZM65.7164 63.7787C65.7543 63.8108 65.8023 63.8284 65.852 63.8284C65.9016 63.8284 65.9497 63.8108 65.9875 63.7787C66.2217 63.5692 65.9875 62.3369 65.8397 62.0781C65.8226 62.0473 65.7976 62.0216 65.7673 62.0038C65.7369 61.9859 65.7024 61.9764 65.6671 61.9764C65.6319 61.9764 65.5974 61.9859 65.567 62.0038C65.5367 62.0216 65.5117 62.0473 65.4946 62.0781C65.3837 62.3616 65.4453 63.6185 65.7164 63.7787ZM63.8311 60.4885C64.4592 60.0239 65.041 59.4998 65.5686 58.9236C65.5921 58.8967 65.6067 58.8631 65.6103 58.8276C65.614 58.792 65.6065 58.7562 65.5889 58.7251C65.5713 58.694 65.5445 58.6691 65.5122 58.6539C65.4798 58.6387 65.4436 58.6339 65.4084 58.6401C64.6541 59.0105 64.0024 59.5606 63.5107 60.2421C63.5009 60.2836 63.5033 60.3271 63.5176 60.3673C63.532 60.4075 63.5576 60.4427 63.5914 60.4687C63.6252 60.4947 63.6658 60.5104 63.7083 60.5139C63.7508 60.5174 63.7934 60.5086 63.8311 60.4885ZM76.7452 59.589C76.7859 59.6139 76.8333 59.6257 76.881 59.6229C76.9286 59.6201 76.9743 59.6028 77.0118 59.5733C77.0494 59.5438 77.077 59.5035 77.091 59.4578C77.105 59.4122 77.1047 59.3634 77.0902 59.3179C76.6077 58.6862 75.9466 58.2139 75.1925 57.9624C75.1644 57.9729 75.1392 57.99 75.1192 58.0124C75.0992 58.0348 75.0849 58.0617 75.0777 58.0908C75.0704 58.1199 75.0703 58.1504 75.0774 58.1795C75.0846 58.2087 75.0987 58.2357 75.1186 58.2581C75.3034 58.5292 76.4494 59.3795 76.7452 59.589ZM68.9573 73.9695C69.3023 73.8955 69.1544 73.3903 68.8217 73.4519C67.7627 73.7269 66.6448 73.6713 65.6183 73.2924C64.5918 72.9135 63.7058 72.2296 63.0794 71.3324C63.0727 71.3223 63.0635 71.3139 63.0528 71.3081C63.042 71.3024 63.03 71.2994 63.0178 71.2994C63.0056 71.2994 62.9936 71.3024 62.9828 71.3081C62.9721 71.3139 62.9629 71.3223 62.9562 71.3324C63.4244 73.7723 66.9117 74.4254 68.9573 73.9695Z" fill="#15161A"/>
<path d="M133.355 53.3902C133.589 54.5485 135.438 58.8244 136.3 59.3913C136.423 59.4775 136.559 59.3913 136.534 59.2187C135.714 57.1681 134.772 55.1682 133.712 53.23C133.614 53.0205 133.306 53.1807 133.355 53.3902ZM134.674 61.7942C133.577 61.1164 129.19 58.9107 128.118 58.504C127.982 58.504 127.859 58.6642 127.97 58.7505C129.95 60.2416 132.143 61.4256 134.476 62.2624C134.748 62.361 134.908 61.9544 134.674 61.7942ZM135.302 65.035C133.17 65.7744 131.137 67.1915 128.857 67.4995C128.623 67.4995 128.599 67.8939 128.857 67.8939C131.244 67.6713 133.532 66.8351 135.499 65.4663C135.696 65.3308 135.573 64.9364 135.302 65.035Z" fill="#F07530"/>
<path d="M158 101.657L155.893 101.017L156.694 99.2545L158.321 101.128L157.631 98.5645H159.43L158.949 101.177L160.637 99.119L161.537 100.672L159.232 101.904L161.401 102.175L160.576 104.171L158.875 102.372L159.75 105.009H157.618L158.296 102.323L156.719 104.122L155.893 102.298L158 101.657Z" fill="#F07530"/>
<path d="M169.362 102.323L167.772 104.122L166.959 102.298L169.054 101.657L166.959 101.017L167.76 99.2545L169.386 101.128L168.696 98.5645H170.495L170.015 101.177L171.691 99.119L172.59 100.672L170.298 101.904L172.455 102.175L171.641 104.171L169.941 102.372L170.816 105.009H168.672L169.362 102.323Z" fill="#F07530"/>
<path d="M180.575 102.323L178.998 104.122L178.172 102.298L180.267 101.657L178.172 101.017L178.973 99.2545L180.6 101.128L179.91 98.5645H181.709L181.216 101.177L182.917 99.119L183.816 100.672L181.512 101.904L183.681 102.175L182.855 104.171L181.154 102.372L182.029 105.009H179.885L180.575 102.323Z" fill="#F07530"/>
<path d="M192.91 102.323L191.333 104.122L190.507 102.298L192.614 101.657L190.507 101.017L191.308 99.2545L192.935 101.128L192.245 98.5645H194.044L193.563 101.177L195.251 99.119L196.151 100.672L193.847 101.904L196.015 102.175L195.19 104.171L193.489 102.372L194.364 105.009H192.232L192.91 102.323Z" fill="#F07530"/>
<path d="M205.91 102.828L204.321 104.639L203.508 102.803L205.615 102.175L203.508 101.522L204.309 99.7597L205.935 101.633L205.245 99.0697H207.044L206.564 101.694L208.239 99.6242L209.139 101.177L206.847 102.421L209.016 102.693L208.19 104.676L206.49 102.877L207.365 105.514H205.22L205.91 102.828Z" fill="#F07530"/>
<path d="M153.096 96.3842C150.73 96.8155 151.223 99.6127 151.149 103.457C151.035 104.089 151.104 104.741 151.349 105.335C151.594 105.929 152.003 106.44 152.529 106.809C153.231 107.277 212.047 108.041 212.17 108.041C213.123 108.174 214.094 108.001 214.943 107.548C216.175 106.624 215.756 104.418 215.818 103.112C215.953 98.6885 216.274 98.1833 213.427 97.8013C212.306 97.6904 156.965 95.7064 153.096 96.3842ZM214.08 98.3681C215.608 98.8364 215.399 100.278 215.313 101.547C215.14 105.823 215.916 107.388 212.934 107.511C212.811 107.511 153.675 106.994 152.702 106.452C151.198 105.601 151.58 103.852 151.568 102.398C151.568 101.165 151.248 99.0705 151.827 97.8998C152.726 96.0761 157.569 96.6676 159.22 96.6676C162.609 96.5936 213.132 98.0477 214.08 98.3681Z" fill="#15161A"/>
<path d="M234.08 170.171C234.08 170.171 234.018 159.672 233.957 159.635C229.028 157.085 205.356 145.07 205.27 145.07C205.184 145.07 194.685 144.836 191.641 145.07L191.308 136.333C198.936 136.432 223.187 135.927 227.611 135.274C227.746 135.274 230.408 133.056 230.408 133.056L229.028 68.6085C229.028 68.6085 226.144 66.4027 225.972 66.4027C211.641 66.5999 172.221 66.2548 166.096 66.4766C166.441 55.5342 167.23 51.0734 163.114 50.2108C158.666 49.262 133.33 48.6582 126.812 48.8923C123.768 49.0155 122.671 49.7302 122.314 53.5379C121.886 61.1765 122.001 68.8358 122.659 76.4579C123.029 79.0087 123.386 81.8429 126.356 82.2865C127.046 82.3851 131.001 82.6069 135.499 82.841C135.499 88.5587 135.881 104.171 136.362 117.233C135.474 117.496 134.64 117.913 133.897 118.466C133.373 117.867 132.665 117.461 131.884 117.309C131.103 117.157 130.294 117.269 129.584 117.628C126.836 118.761 127.046 120.006 127.021 120.092C123.78 120.561 110.891 126.032 107.626 127.621C105.161 122.249 103.078 116.728 100.713 111.319L104.767 110.912L104.915 112.6H106.812L106.652 110.715H107.367L107.724 114.128H109.745L109.548 110.813C109.991 110.69 112.185 111.011 112.012 109.421C112.012 109.298 112.099 107.844 110.78 107.93L99.4803 108.608C96.0669 100.931 89.9056 89.064 81.7234 87.2033C79.4807 83.9131 74.9953 82.57 71.126 82.878C70.6578 82.8041 70.3004 82.878 70.5222 80.2903C72.4422 80.2175 74.2948 79.5636 75.8351 78.415C77.3753 77.2664 78.5306 75.6773 79.148 73.8579C80.7746 69.6682 80.7376 59.6992 80.7007 59.5883C81.0457 59.5883 81.6002 59.3419 81.7727 57.9864C82.0959 58.0605 82.4334 58.0432 82.7473 57.9364C83.0612 57.8296 83.3392 57.6376 83.5502 57.3819C83.7612 57.1261 83.8969 56.8166 83.9421 56.4882C83.9872 56.1597 83.9401 55.8251 83.806 55.5219C83.806 55.5219 86.6032 54.573 84.3851 51.3938C84.3851 51.3938 87.1454 49.8535 84.7302 46.7975C84.7302 46.7975 87.1947 43.6675 83.8922 42.5215C83.8922 42.5215 85.8762 39.2314 82.586 38.0361C82.586 38.0361 84.0031 33.908 80.294 33.6493C80.3506 33.2038 80.2844 32.7514 80.1026 32.3408C79.9208 31.9302 79.6303 31.5771 79.2625 31.3196C78.8946 31.0621 78.4634 30.91 78.0154 30.8797C77.5674 30.8495 77.1196 30.9421 76.7205 31.1478C76.7205 31.1478 76.1043 27.5496 72.3583 29.0406C72.3583 29.0406 70.9412 25.2206 67.8482 27.9685C67.8482 27.9685 64.7059 23.2243 61.613 27.2045C61.613 27.2045 59.3949 23.8035 56.4498 27.2045C56.1437 26.8974 55.762 26.6765 55.3433 26.5641C54.9245 26.4516 54.4835 26.4517 54.0647 26.5642C53.646 26.6767 53.2643 26.8976 52.9583 27.2048C52.6523 27.512 52.4327 27.8944 52.3217 28.3136C52.3217 28.3136 49.1055 27.0813 49.3397 29.9648C49.3397 29.9648 45.3964 28.4368 45.4457 33.3658C45.4457 33.3658 40.5167 32.6758 42.2295 37.4569C41.8487 37.443 41.4715 37.5344 41.1393 37.7211C40.8071 37.9078 40.5329 38.1825 40.3468 38.5151C40.1608 38.8476 40.0702 39.2251 40.0849 39.6059C40.0997 39.9866 40.2192 40.356 40.4304 40.6731C40.4304 40.6731 36.1791 41.9054 38.8285 44.9121C38.8285 44.9121 34.7004 46.9823 38.4835 51.0734C38.4835 51.0734 34.9962 53.6735 39.0873 56.8773C39.0873 56.8773 35.8834 63.5316 43.3016 64.0737C43.3016 64.0737 43.5357 69.6436 48.6866 68.1156C47.9926 68.9932 47.5935 70.0676 47.5463 71.1856C47.499 72.3035 47.8061 73.4077 48.4236 74.3408C49.0411 75.2739 49.9375 75.9881 50.9849 76.3815C52.0323 76.775 53.1773 76.8276 54.2564 76.5319C54.355 77.912 54.4412 79.3168 54.5891 80.6969C47.1093 80.9064 45.2239 84.2212 45.0391 84.5169C18.2374 89.8033 0.813291 136.74 14.2326 148.939C14.1094 148.939 15.4649 148.065 0 159.352V170.159H5.15084C5.38497 177.787 6.98691 217.219 6.99923 217.219C6.97513 217.255 6.96119 217.298 6.95886 217.341C6.95653 217.385 6.96588 217.429 6.98596 217.468C7.00604 217.507 7.03612 217.539 7.0731 217.563C7.11009 217.586 7.15264 217.599 7.19639 217.601C35.8095 217.601 210.692 216.812 226.908 216.701C226.995 216.701 227.29 216.541 227.303 216.393C227.66 212.401 227.697 177.466 227.549 170.208L234.08 170.171ZM191.777 148.471C193.197 148.492 194.617 148.418 196.028 148.249C197.345 150.3 199.014 152.102 200.957 153.573L166.158 154.361C166.947 153.708 169.978 149.95 170.927 148.902C172.436 149.02 173.952 149.02 175.461 148.902C175.461 149.63 175.56 150.357 175.597 151.071C175.597 151.33 191.863 150.911 191.863 150.911L191.777 148.471ZM175.067 136.333C175.067 136.186 174.808 136.235 174.808 136.333C174.755 139.098 174.862 141.862 175.129 144.614C174.981 144.614 177.963 144.688 122.142 144.368C124.939 142.606 131.31 135.742 133.232 133.549C134.353 134.14 136.46 133.191 137.003 130.283C137.114 132.353 137.212 134.066 137.311 135.212C137.311 135.212 137.606 135.471 137.668 135.446C152.455 135.779 189.817 136.173 189.817 136.173L190.396 150.135C188.178 150.135 177.347 150.615 176.164 150.874C175.733 146.13 175.806 141.139 175.067 136.333ZM136.608 128.274C136.65 129.155 136.55 130.037 136.313 130.887C136.017 131.86 135.08 133.622 133.848 133.438C132.616 133.253 132.382 130.973 132.369 130.911C133.922 130.764 134.267 129.889 136.608 128.274ZM132.258 130.665C131.744 128.935 131.131 127.236 130.422 125.576C132.172 124.787 133.934 124.085 135.746 123.456C136.169 124.824 136.45 126.233 136.584 127.658C135.258 128.818 133.807 129.826 132.258 130.665ZM165.936 71.1469C175.794 71.8739 213.378 71.9356 222.349 71.9725C222.349 71.9725 223.113 121.423 223.581 131.281C213.095 131.207 148.537 130.924 142.671 130.714C142.671 130.714 141.044 88.1275 140.687 83.0998L150.138 83.5558C151.494 86.0203 153.047 88.4848 154.328 90.9493C154.345 90.9801 154.37 91.0058 154.401 91.0237C154.431 91.0416 154.465 91.051 154.501 91.051C154.536 91.051 154.57 91.0416 154.601 91.0237C154.631 91.0058 154.656 90.9801 154.673 90.9493C156.398 88.5834 158.296 86.3407 159.96 83.9378C161.845 84.3567 164.051 84.1596 165.012 82.2496C165.591 81.0543 165.628 80.2903 165.936 71.1469ZM125.271 81.4609C124.789 81.1434 124.383 80.7219 124.085 80.2272C123.786 79.7325 123.602 79.1772 123.546 78.6021C122.684 75.0655 121.883 62.0035 122.807 53.2422C123.189 49.644 124.483 49.4222 127.995 49.3482C131.075 49.2866 158.419 50.2355 159.91 50.3464C164.026 50.6668 165.924 50.5928 165.911 55.9039C165.911 58.3684 165.184 80.4135 164.938 81.2638C164.236 83.642 162.116 84.0856 160.009 83.6297C160.009 83.6297 154.969 90.5796 154.328 90.0375C153.958 89.7171 151.063 84.2335 150.262 83.2354C150.2 83.2107 125.925 81.7936 125.296 81.4609H125.271ZM140.428 83.0875C140.256 87.881 141.87 128.977 142.277 130.751C142.277 130.751 142.363 131.01 142.474 131.01C147.317 131.232 224.173 132.242 224.123 131.392C223.667 121.534 223.224 76.803 222.682 71.9972C222.682 71.9972 222.682 71.4303 222.435 71.418C213.464 71.0114 175.868 70.6786 165.973 70.7896C165.973 69.4587 166.072 68.0539 166.109 66.6615C172.122 67.2899 222.139 67.0805 225.996 67.0312C229.853 66.9819 227.524 134.584 227.45 134.596C223.507 135.15 145.924 135.089 137.754 135.212C137.816 126.5 136.584 91.9598 135.906 82.8657L140.428 83.0875ZM136.399 117.517C136.51 120.585 136.633 123.493 136.744 126.143C136.423 124.023 135.351 120.105 133.996 118.552C134.341 118.367 135.635 117.85 136.374 117.517H136.399ZM134.008 119.217C134.85 120.371 135.415 121.704 135.659 123.111C133.822 123.698 132.053 124.483 130.385 125.453C129.72 124.109 128.291 121.46 128.278 121.423C128.192 121.029 130.915 119.957 131.162 119.87C132.082 119.574 133.026 119.356 133.984 119.217H134.008ZM129.252 118.071C131.137 117.209 132.616 117.307 133.823 118.897C132.308 118.971 128.623 120.129 128.056 121.251C127.835 120.893 126.171 119.464 129.227 118.071H129.252ZM107.404 127.794C107.404 127.868 107.626 127.794 107.638 127.794C111.076 126.562 125.567 120.893 127.206 120.4C133.367 130.258 131.383 132.341 133.01 133.475C129.153 137.245 125.801 141.731 121.02 144.38L94.5513 144.22C93.5038 143.653 91.5322 140.634 91.0886 139.981C90.7441 134.116 90.0196 128.279 88.9198 122.507C88.9198 122.421 88.7596 122.507 88.772 122.507C89.5606 127.584 90.3739 144.023 90.3862 144.158H83.2884C83.387 143.961 83.2145 146.105 83.5595 122.187C90.5711 120.24 90.6573 112.206 90.6573 112.206L100.133 111.282C102.487 116.814 104.693 122.421 107.379 127.794H107.404ZM93.9105 144.232H90.8422C90.9891 143.071 91.0632 141.903 91.064 140.733C91.8385 142.031 92.7974 143.21 93.9105 144.232ZM51.3482 144.01H44.5831C46.9244 142.593 49.2288 141.09 51.4715 139.537C51.3043 141.022 51.263 142.519 51.3482 144.01ZM51.8781 140.314C53.9483 140.314 56.0432 140.092 58.1134 140.067V143.973H51.6686C51.8225 142.78 51.8925 141.578 51.8781 140.375V140.314ZM51.8781 139.205C53.973 137.751 56.0267 136.239 58.0394 134.67C58.138 136.346 58.1626 138.034 58.1626 139.71C56.0924 139.895 53.9853 139.845 51.9274 140.116C51.9107 139.831 51.8778 139.548 51.8288 139.266L51.8781 139.205ZM58.5446 143.973C58.5446 140.782 58.5446 137.59 58.3968 134.399C61.3419 132.107 64.2007 129.704 67.0226 127.227C68.1686 128.077 69.4871 126.685 71.508 125.49C72.9867 124.615 73.8 124.257 70.4359 117.837C70.91 117.743 71.3727 117.598 71.8161 117.406C72.0997 118.401 72.6068 119.317 73.2988 120.086C73.9907 120.855 74.8492 121.456 75.8086 121.842C75.4503 129.239 75.6273 136.652 76.3385 144.023L58.5446 143.973ZM51.4715 100.154C52.0804 103.696 52.9034 107.198 53.936 110.641C51.6563 110 48.4031 111.676 46.7519 113.339C45.8111 109.809 45.0624 106.23 44.5092 102.619C46.7026 101.226 48.7851 99.9202 51.4715 100.154ZM44.4722 102.274C43.9994 98.7702 43.7934 95.2358 43.8561 91.701C45.7538 90.6536 47.6515 89.6185 49.8572 90.4687C50.2022 92.5389 50.2269 93.4385 51.4099 99.7969C48.865 99.7149 46.3844 100.605 44.4722 102.286V102.274ZM53.9483 110.9C53.9483 110.9 54.9341 113.5 55.4763 114.781C55.5749 115.003 55.9446 114.843 55.8583 114.621C53.919 109.067 52.4596 103.357 51.4961 97.5542C49.8695 88.9284 49.5491 87.1786 53.0611 83.9994C54.0592 88.608 59.0992 91.7996 63.6092 91.9474C68.1193 92.0953 72.3706 88.5834 74.0218 84.3937C79.7395 87.8317 77.583 94.6461 77.4475 102.446C76.2506 102.846 75.1502 103.49 74.2166 104.339C73.283 105.188 72.5367 106.222 72.0256 107.375C69.561 107.757 68.2056 110.542 66.6036 112.193C66.2658 111.951 65.8793 111.784 65.4708 111.705C65.0623 111.627 64.6415 111.638 64.2377 111.738C63.584 111.769 62.9492 111.967 62.393 112.312C61.8368 112.657 61.3776 113.138 61.0585 113.709C56.5718 114.564 52.1369 115.67 47.7747 117.024C47.4666 115.903 47.1709 114.781 46.8751 113.66C48.8016 111.88 51.3253 110.886 53.9483 110.875V110.9ZM78.2978 91.282C79.8618 91.3201 81.4199 91.4891 82.9557 91.7873C83.2805 93.8249 83.4413 95.8852 83.4363 97.9486C81.7061 97.6133 79.924 97.6553 78.2115 98.0718C78.2362 97.1229 78.3717 92.6498 78.2978 91.282ZM83.4363 98.232C83.4363 99.4642 83.4363 100.77 83.2884 102.015C81.4513 101.699 79.566 101.813 77.7802 102.348C78.0252 100.98 78.1652 99.5961 78.1992 98.2073C79.944 98.117 81.6924 98.1252 83.4363 98.232ZM74.7365 116.05C76.6342 114.707 76.856 112.773 76.1167 112.551C76.9669 111.676 76.3138 110.616 75.5005 110.727C76.4001 109.495 75.673 108.657 74.8721 108.916L74.3792 109.088C74.4357 108.263 74.7251 107.471 75.2136 106.803C75.7022 106.136 76.3699 105.621 77.1394 105.317C76.7821 107.191 76.4124 117.751 76.3878 118.564C75.5503 117.955 74.9633 117.061 74.7365 116.05ZM75.365 109.248C76.4247 109.963 74.1327 111.294 74.7612 111.245C74.9489 111.221 75.1229 111.134 75.2541 110.998C76.1043 110.912 76.7328 111.762 75.402 112.625C75.2171 112.748 75.291 113.192 75.8579 112.773C77.4105 114.485 72.4076 117.184 70.2018 117.591C69.2678 115.75 68.1577 114.005 66.887 112.378C67.6227 111.631 68.314 110.841 68.9572 110.012C69.661 108.863 70.7407 107.992 72.0132 107.548C71.5221 108.604 71.2018 109.731 71.0644 110.887C71.4218 110.629 74.8351 108.903 75.365 109.248ZM83.042 105.083V108.176C81.1652 107.83 79.2508 107.735 77.3489 107.893C77.4048 107.011 77.4048 106.126 77.3489 105.244C79.1895 104.631 81.1699 104.575 83.042 105.083ZM83.1775 116.174C82.3765 115.631 78.0883 115.705 76.893 115.94C76.893 114.88 77.275 109.667 77.3736 108.115C79.2865 108.142 81.1959 108.286 83.0912 108.546C83.1405 110.234 83.2268 115.323 83.1775 116.174ZM76.8807 116.174C78.7044 116.174 83.1159 116.58 83.1652 116.543C83.1652 116.975 83.1652 117.948 83.0912 119.304C82.0628 119.672 80.9692 119.824 79.8793 119.75C78.7893 119.676 77.7264 119.377 76.7574 118.872C76.7944 117.899 76.8437 116.999 76.8807 116.1V116.174ZM83.4363 105.281C86.3567 106.365 86.9113 109.088 87.4165 110.813C87.9217 112.539 87.1454 117.344 83.5842 119.082C83.6334 115.126 83.7443 109.088 83.4363 105.207V105.281ZM64.3239 112.083C66.3325 111.775 66.8994 112.773 68.2795 114.978C67.1689 114.992 66.0727 115.231 65.0578 115.683C64.0429 116.134 63.1307 116.787 62.377 117.603C62.0335 116.509 61.7619 115.393 61.5637 114.264C61.6869 112.662 63.141 112.193 64.3239 112.009V112.083ZM68.4397 115.225C68.8833 115.952 70.8056 119.439 71.2616 120.499C69.7212 122.261 67.2444 122.963 65.1003 123.727C64.8908 123.259 63.0547 119.378 62.4879 117.862C64.0697 116.255 66.1894 115.29 68.4397 115.151V115.225ZM71.3971 120.819C71.7515 121.61 72.02 122.436 72.1981 123.284C72.1981 124.947 68.9326 126.709 68.3165 126.87C66.8624 127.252 66.2463 126.118 65.1496 123.801C67.5236 123.514 69.7325 122.438 71.4218 120.745L71.3971 120.819ZM76.4247 140.388C78.458 140.56 80.4789 139.993 82.4751 140.19C82.7093 140.19 82.6969 139.87 82.4751 139.833C80.4481 139.853 78.4239 139.989 76.4124 140.24C76.2645 137.627 76.092 132.168 76.092 132.07C88.4146 132.809 80.8732 131.158 76.092 131.811C76.0304 128.583 76.092 125.342 76.0181 122.101C78.2899 122.809 80.7081 122.907 83.0296 122.384C82.9311 129.063 82.7585 144.06 82.8571 144.245H76.6958C76.6712 144.047 76.548 142.445 76.4247 140.314V140.388ZM98.9011 108.571L90.0782 109.113C89.8437 107.445 89.1151 105.886 87.9861 104.636C86.8572 103.386 85.3798 102.503 83.7443 102.101C83.9662 98.5154 83.9785 90.7522 81.9945 87.5113C90.3369 90.0867 95.192 100.376 98.9011 108.571ZM82.8818 91.4546C81.4229 90.8534 79.8164 90.7074 78.2731 91.0356C78.2818 88.9922 77.5359 87.0176 76.1783 85.4904C77.1156 85.2883 78.0674 85.1606 79.0248 85.1084C80.0978 85.8154 81.0012 86.751 81.6702 87.8481C82.3391 88.9453 82.7571 90.1769 82.8941 91.4546H82.8818ZM78.3594 84.7141C77.5533 84.7981 76.7643 85.0016 76.0181 85.3179C75.1082 84.362 73.9725 83.6501 72.7156 83.2477C74.6831 83.3332 76.6105 83.8329 78.3717 84.7141H78.3594ZM80.4912 59.0338C79.922 57.9747 79.0685 57.0955 78.0267 56.4953C78.9054 55.5362 79.6628 54.4726 80.2817 53.3284C80.6321 55.2094 80.7068 57.1313 80.5035 59.0338H80.4912ZM80.1215 52.737C79.6597 53.855 79.0142 54.888 78.2115 55.793C77.8541 52.0962 76.3138 47.771 73.1716 45.4666C74.892 45.9139 76.4542 46.8306 77.6837 48.1145C78.9132 49.3984 79.7615 50.9988 80.1338 52.737H80.1215ZM71.7668 45.1586L72.4815 45.2941C77.2134 48.7691 77.7679 56.3844 77.7679 56.3844C75.3034 54.8934 73.036 54.3882 68.9203 55.2508C70.7038 52.1794 71.6868 48.709 71.7791 45.1586H71.7668ZM71.4094 45.1586C71.0521 48.116 71.1137 50.7407 68.489 55.3863C66.6037 53.8726 64.5632 52.5632 62.4016 51.4801C60.4158 50.8278 58.3285 50.5398 56.2403 50.6298C58.2132 48.6548 60.5948 47.136 63.2176 46.1801C65.8404 45.2242 68.6407 44.8545 71.4218 45.0969L71.4094 45.1586ZM67.9961 55.5095C64.3514 56.4092 60.9725 58.162 58.138 60.6234C57.8612 57.309 57.2165 54.0357 56.2157 50.8639C58.3058 50.8247 60.3879 51.1328 62.377 51.7758C64.3812 52.7929 66.2693 54.0242 68.0084 55.4479L67.9961 55.5095ZM55.8953 50.9255C56.4868 54.0678 57.2631 57.0868 57.6944 60.2661C56.0096 59.3843 54.1232 58.9594 52.2231 59.0338C52.6874 56.0475 53.9569 53.2442 55.8953 50.9255ZM52.1985 59.2556C54.0876 59.6952 55.9511 60.2382 57.7806 60.8822C56.8833 61.7249 56.0853 62.6675 55.4024 63.6917C54.7 62.5704 53.4801 61.0794 52.0383 61.067C52.0497 60.4607 52.0991 59.8557 52.1862 59.2556H52.1985ZM49.1179 74.4617C48.3635 73.4976 47.9949 72.2874 48.0837 71.0665C48.1725 69.8456 48.7125 68.7015 49.5984 67.8568C50.5719 68.7687 52.4819 70.3213 53.8251 70.1734C53.8251 72.0465 54.0469 73.8702 54.1948 75.8049C52.7653 76.1745 50.2392 75.9281 49.1179 74.4617ZM54.0469 68.9658C54.0469 68.8549 53.8497 68.8919 53.8497 68.9658V69.8038C52.6175 69.9516 50.843 68.5715 49.9435 67.6596C49.0439 66.7477 46.7642 64.8254 49.5615 62.2254C50.1954 61.6654 50.9972 61.3317 51.8412 61.2765C52.5493 61.4565 53.2096 61.7891 53.7758 62.251C54.342 62.7129 54.8004 63.2929 55.119 63.9505C55.6488 64.8254 58.8897 58.6025 66.7885 56.1996C69.2373 55.3188 71.8649 55.0522 74.4408 55.4233C75.6602 55.6729 76.8136 56.1759 77.8262 56.8998C78.8388 57.6237 79.6879 58.5522 80.3187 59.6253C80.3187 66.8587 80.5528 79.5509 70.4606 79.9083C70.2634 79.9083 69.0681 83.8392 71.2616 83.2107C72.1129 83.4592 72.9383 83.7893 73.7261 84.1965C72.0995 88.2137 68.0577 91.5901 63.5969 91.4422C61.31 91.335 59.1076 90.5452 57.2737 89.1747C55.4397 87.8042 54.0583 85.9158 53.3075 83.7529C53.8251 83.3093 54.3796 82.8657 54.9341 82.4098C55.2915 82.4098 55.2052 82.1263 54.6507 76.421C55.576 76.111 56.3885 75.5333 56.9852 74.7611C57.5818 73.9889 57.9359 73.057 58.0024 72.0834C58.1257 69.8407 56.191 67.1544 53.8621 67.0681C53.8373 66.9089 53.8373 66.7468 53.8621 66.5876C53.8692 66.545 53.8601 66.5013 53.8366 66.4651C53.8132 66.4289 53.777 66.4029 53.7352 66.392C53.6934 66.3812 53.6491 66.3864 53.611 66.4066C53.5729 66.4269 53.5438 66.4606 53.5293 66.5013C53.0364 67.8814 54.0962 68.5592 54.0099 67.9554C54.0099 67.7952 54.0099 67.635 53.9237 67.4871C55.6365 68.3743 57.3001 69.471 57.337 71.6645C57.3465 72.5304 57.089 73.3782 56.5995 74.0926C56.11 74.8069 55.4123 75.3532 54.6014 75.657C54.5768 75.5707 54.3303 71.073 54.0099 68.9658H54.0469ZM54.6753 81.0543C54.6753 81.424 54.7246 81.7936 54.8232 82.1633C51.2497 84.788 49.6354 85.9833 49.8942 90.173C48.8678 89.8888 47.7885 89.8522 46.7452 90.0665C45.702 90.2807 44.7244 90.7395 43.8931 91.4053C43.8876 89.366 44.2768 87.3449 45.0391 85.4534C45.1377 85.2316 47.1216 81.0543 54.6384 81.0543H54.6753ZM44.8173 84.8866C43.4864 87.2525 43.4988 90.4687 43.4371 93.0318C43.2277 101.177 45.0268 109.384 47.3188 117.159C45.1377 117.862 42.9812 118.638 40.874 119.501C41.2684 118.121 42.2911 112.218 42.439 110.69C42.439 110.579 42.2788 110.567 42.2542 110.69C41.8229 112.341 40.5044 118.392 40.3195 119.76C34.8729 122.039 31.7676 124.023 32.6426 123.666C56.0555 114.079 55.6735 115.89 61.231 114.239C61.3912 117.418 65.2112 125.6 66.6159 127.055C58.9011 133.833 50.5673 139.873 41.7243 145.095C33.7516 149.777 28.7609 152.488 18.3114 150.517C0.0862578 147.153 14.2203 91.7873 44.8173 84.8866ZM226.76 216.048C198.11 216.048 23.4376 216.923 7.4182 217.059C7.64001 213.103 6.34614 177.7 5.63142 170.171H227.056C226.514 177.405 226.317 212.068 226.76 216.048ZM0.628453 159.364C2.93278 158.132 14.3681 149.432 14.4544 149.198C16.3398 150.776 18.2991 151.059 20.8622 151.268C28.3666 151.872 31.3364 151.983 43.967 144.38C60.9722 144.38 174.365 145.612 175.166 145.181C175.252 146.241 175.351 147.301 175.424 148.36L170.865 148.767C169.768 149.284 166.528 153.228 165.665 154.238V156.099L201.758 155.544V153.56C201.758 153.56 196.052 147.818 195.917 147.83C194.526 147.82 193.137 147.927 191.764 148.151L191.653 145.341C194.722 145.575 205.405 145.538 205.442 145.501C214.697 150.295 224.037 154.916 233.267 159.771L0.628453 159.364Z" fill="#15161A"/>
<path d="M111.606 96.6306C112.316 96.8918 112.948 97.3299 113.442 97.9035C113.936 98.477 114.275 99.1671 114.428 99.9084C114.445 99.9392 114.47 99.9649 114.5 99.9828C114.53 100.001 114.565 100.01 114.6 100.01C114.635 100.01 114.67 100.001 114.7 99.9828C114.731 99.9649 114.756 99.9392 114.773 99.9084C115.086 98.5208 115.869 97.2843 116.991 96.4088C117.064 96.43 117.143 96.4212 117.21 96.3842C117.277 96.3472 117.327 96.2852 117.348 96.2116C117.369 96.1381 117.36 96.0591 117.323 95.9921C117.286 95.9251 117.224 95.8755 117.151 95.8543C115.487 95.4723 114.551 91.948 114.526 91.7878C114.502 91.6276 114.218 91.6399 114.193 91.7878C114.125 92.7312 113.86 93.6498 113.414 94.4841C112.968 95.3183 112.352 96.0496 111.606 96.6306ZM114.391 93.439C114.552 94.0193 114.827 94.5619 115.199 95.0356C115.572 95.5093 116.034 95.9048 116.559 96.1993C115.783 96.4581 114.883 98.2818 114.637 98.9226C114.131 97.9395 113.335 97.1353 112.357 96.6183C113.234 95.6993 113.924 94.6198 114.391 93.439ZM119.406 104.135C119.332 103.926 118.962 103.95 118.999 104.135C119.066 104.887 118.869 105.639 118.441 106.262C118.014 106.885 117.384 107.34 116.658 107.548C116.658 107.548 116.572 107.659 116.658 107.684C118.962 108.423 118.753 109.582 118.962 110.148C118.982 110.19 119.014 110.225 119.053 110.25C119.092 110.274 119.138 110.287 119.184 110.287C119.23 110.287 119.276 110.274 119.315 110.25C119.354 110.225 119.386 110.19 119.406 110.148C119.519 109.612 119.756 109.109 120.098 108.681C120.441 108.253 120.879 107.912 121.378 107.684C121.55 107.684 121.661 107.425 121.513 107.364C120.864 107.12 120.309 106.676 119.93 106.095C119.551 105.514 119.367 104.828 119.406 104.135ZM119.209 109.286C118.852 108.539 118.228 107.954 117.459 107.647C118.242 107.173 118.878 106.49 119.295 105.675C119.369 106.415 120.404 107.253 120.872 107.487C120.478 107.642 120.123 107.885 119.835 108.196C119.547 108.508 119.333 108.88 119.209 109.286ZM201.277 28.8563C201.4 28.8563 201.536 28.7331 201.474 28.5852C200.932 27.2544 197.543 19.8731 197.42 20.1196C196.57 21.7585 192.861 27.353 192.75 28.5113C192.738 28.6838 201.24 28.8933 201.277 28.8563ZM193.107 28.3018C194.762 25.9021 196.249 23.3905 197.556 20.785C198.406 23.4761 199.547 26.0667 200.957 28.5113C198.357 28.1462 195.723 28.0759 193.107 28.3018ZM210.581 9.11552C210.885 7.77757 210.856 6.38518 210.495 5.06139C210.495 4.93816 210.26 4.91352 210.236 5.06139C210.137 5.67752 210.113 8.3392 210.063 9.04158C210.014 9.31268 210.519 9.43591 210.581 9.11552ZM210.556 15.7328C210.605 15.7002 210.642 15.652 210.659 15.596C210.677 15.54 210.676 15.4796 210.655 15.4247C210.667 14.2084 210.584 12.993 210.408 11.7895C210.4 11.7619 210.382 11.7378 210.359 11.7207C210.336 11.7036 210.308 11.6944 210.279 11.6944C210.25 11.6944 210.222 11.7036 210.199 11.7207C210.175 11.7378 210.158 11.7619 210.149 11.7895C209.854 13.0374 209.854 14.337 210.149 15.5849C210.159 15.6267 210.179 15.6653 210.208 15.6974C210.237 15.7294 210.273 15.7539 210.313 15.7686C210.353 15.7832 210.397 15.7877 210.439 15.7814C210.481 15.7751 210.522 15.7584 210.556 15.7328ZM211.209 10.5942C212.387 10.6785 213.57 10.6206 214.733 10.4217C215.103 10.4217 215.128 9.81791 214.733 9.84255C213.533 9.84805 212.337 9.99698 211.172 10.2862C210.987 10.3355 211.049 10.5696 211.209 10.5942ZM205.27 10.4957C206.394 10.6782 207.533 10.7443 208.671 10.6928C208.74 10.6787 208.803 10.6409 208.848 10.5859C208.893 10.5308 208.918 10.462 208.918 10.3909C208.918 10.3198 208.893 10.251 208.848 10.196C208.803 10.1409 208.74 10.1031 208.671 10.089C207.561 9.97203 206.441 9.97203 205.331 10.089C205.097 10.0767 204.986 10.4464 205.27 10.4957ZM108.131 36.0774C108.435 34.7394 108.406 33.347 108.044 32.0232C108.044 31.9123 107.81 31.8754 107.786 32.0232C107.687 32.627 107.65 35.2887 107.613 35.9911C107.564 36.2252 108.069 36.3485 108.131 36.0774ZM108.106 42.6453C108.159 42.6164 108.2 42.5691 108.22 42.5123C108.241 42.4556 108.239 42.3933 108.217 42.3372C108.229 41.125 108.147 39.9137 107.971 38.7144C107.962 38.6868 107.945 38.6627 107.921 38.6456C107.898 38.6285 107.87 38.6192 107.841 38.6192C107.812 38.6192 107.784 38.6285 107.761 38.6456C107.738 38.6627 107.72 38.6868 107.712 38.7144C107.422 39.9588 107.422 41.2531 107.712 42.4974C107.725 42.5357 107.746 42.5706 107.774 42.5997C107.802 42.6287 107.836 42.6512 107.874 42.6653C107.911 42.6795 107.952 42.6851 107.992 42.6816C108.032 42.6781 108.071 42.6657 108.106 42.6453ZM108.759 37.5068C109.938 37.5769 111.12 37.5107 112.283 37.3096C112.653 37.3096 112.678 36.6935 112.283 36.7181C111.083 36.7229 109.887 36.8719 108.722 37.1617C108.676 37.1666 108.635 37.1895 108.606 37.2253C108.577 37.2612 108.563 37.307 108.568 37.3527C108.573 37.3985 108.596 37.4404 108.632 37.4693C108.668 37.4982 108.713 37.5117 108.759 37.5068ZM102.82 37.4082C103.943 37.5973 105.083 37.6634 106.221 37.6054C106.29 37.5912 106.353 37.5534 106.398 37.4984C106.443 37.4434 106.467 37.3745 106.467 37.3035C106.467 37.2324 106.443 37.1635 106.398 37.1085C106.353 37.0535 106.29 37.0157 106.221 37.0016C105.115 36.8783 103.999 36.8783 102.894 37.0016C102.647 36.9892 102.536 37.3096 102.82 37.4082ZM200.809 3.50874C201.062 3.37539 201.28 3.18483 201.446 2.95225C201.613 2.71966 201.722 2.45147 201.766 2.16904C201.811 1.88662 201.788 1.59775 201.701 1.32545C201.614 1.05315 201.465 0.80495 201.265 0.600609C200.831 0.234941 200.288 0.0242929 199.721 0.00197557C199.154 -0.0203418 198.596 0.146945 198.135 0.477383C197.934 0.601128 197.761 0.765727 197.627 0.960536C197.493 1.15534 197.402 1.37603 197.359 1.60831C197.316 1.8406 197.323 2.07932 197.378 2.30904C197.433 2.53876 197.535 2.75436 197.679 2.9419C198.03 3.41804 198.549 3.742 199.131 3.84739C199.713 3.95278 200.313 3.83162 200.809 3.50874ZM200.365 0.637577C200.634 0.709787 200.871 0.870892 201.036 1.09465C201.202 1.31841 201.287 1.59164 201.277 1.86984C201.209 2.30345 200.986 2.69755 200.649 2.97887C200.329 3.2522 199.923 3.40242 199.503 3.40242C199.082 3.40242 198.676 3.2522 198.357 2.97887C197.617 2.28881 197.925 -0.00319816 200.365 0.637577ZM120.466 30.3473C120.719 30.214 120.937 30.0234 121.103 29.7909C121.269 29.5583 121.379 29.2901 121.423 29.0077C121.467 28.7252 121.445 28.4364 121.358 28.1641C121.271 27.8918 121.121 27.6436 120.922 27.4392C120.489 27.0716 119.945 26.8596 119.378 26.8373C118.81 26.8149 118.252 26.9835 117.792 27.316C117.59 27.4397 117.417 27.6043 117.284 27.7991C117.15 27.994 117.059 28.2146 117.016 28.4469C116.973 28.6792 116.979 28.9179 117.034 29.1476C117.089 29.3774 117.192 29.593 117.336 29.7805C117.5 30.0279 117.713 30.2396 117.961 30.4029C118.209 30.5661 118.488 30.6775 118.78 30.7305C119.072 30.7834 119.372 30.7768 119.662 30.7109C119.952 30.6451 120.225 30.5214 120.466 30.3473ZM120.022 27.4515C120.291 27.5238 120.527 27.6849 120.693 27.9086C120.858 28.1324 120.943 28.4056 120.934 28.6838C120.886 28.9981 120.756 29.2942 120.557 29.542C120.358 29.7897 120.097 29.9802 119.8 30.0942C119.503 30.2081 119.182 30.2414 118.868 30.1907C118.554 30.1399 118.259 30.0069 118.013 29.8052C117.274 29.1274 117.336 26.8354 120.022 27.4515ZM13.4069 74.2774C11.2875 75.7808 13.8013 78.923 16.0933 77.3088C18.7673 75.3741 15.662 72.6262 13.4069 74.2774ZM15.6497 74.4253C17.9417 75.1153 15.4402 78.4178 13.6411 76.7666C12.8894 76.0395 13.3823 73.7106 15.6497 74.376V74.4253ZM15.8468 8.54868C16.1795 7.93255 20.246 4.69171 20.3076 4.17416C20.3489 4.14423 20.3809 4.10327 20.3999 4.05598C20.419 4.00869 20.4243 3.95698 20.4153 3.9068C20.4063 3.85662 20.3833 3.81 20.349 3.77228C20.3147 3.73457 20.2704 3.70729 20.2213 3.69358C19.137 3.41016 13.9984 3.18835 12.5197 2.91726C12.4458 2.91726 12.3349 2.91726 12.3718 3.01584C12.4088 3.11442 15.5264 8.43778 15.5511 8.4501C15.5757 8.46242 15.7729 8.69655 15.8468 8.54868ZM19.8147 4.16184C19.5436 4.4699 16.1918 7.39036 15.7606 8.04346C14.7378 6.50313 13.8752 4.79029 12.7908 3.27461C13.6904 3.64429 18.4346 3.89074 19.8147 4.16184Z" fill="#15161A"/>
</svg>
